<svg width="16" height="16" viewBox="0 0 16 16" fill="none" xmlns="http://www.w3.org/2000/svg">
<path d="M7.4242 0.989336C7.68135 0.547825 8.31919 0.547825 8.57634 0.989337L10.4386 4.18675C10.5328 4.34849 10.6907 4.46317 10.8736 4.50278L14.49 5.2859C14.9894 5.39404 15.1865 6.00066 14.846 6.38166L12.3806 9.14089C12.2559 9.28046 12.1956 9.46603 12.2145 9.65224L12.5872 13.3336C12.6387 13.842 12.1227 14.2169 11.6551 14.0109L8.2691 12.5187C8.09783 12.4433 7.90271 12.4433 7.73144 12.5187L4.3454 14.0109C3.87784 14.2169 3.36182 13.842 3.41329 13.3336L3.78603 9.65224C3.80488 9.46601 3.74459 9.28046 3.61988 9.14089L1.15445 6.38166C0.81402 6.00066 1.01112 5.39404 1.51049 5.2859L5.12689 4.50278C5.30982 4.46317 5.46767 4.34849 5.56187 4.18675L7.4242 0.989336Z" fill="white" fill-opacity="0.38"/>
</svg>
