<svg width="16" height="14" viewBox="0 0 16 14" fill="none" xmlns="http://www.w3.org/2000/svg">
<path d="M2.82346 0.00500107C1.78692 0.0897799 0.898123 0.785278 0.566063 1.77044C0.434305 2.15979 0.391655 2.5515 0.43659 2.95185C0.531791 3.79021 1.00703 4.57991 1.7039 5.05561C1.81434 5.13097 1.93772 5.20555 2.00321 5.23695C2.01845 5.2448 2.03139 5.25343 2.03139 5.25579C2.03139 5.25893 1.99712 5.3335 1.95599 5.42142C1.59652 6.18443 1.38631 7.01887 1.32691 7.91297L1.32158 7.99069L1.26674 8.04171C0.571394 8.69403 0.15708 9.45783 0.035985 10.3072C-0.0310364 10.779 -0.00361856 11.2641 0.111384 11.6707C0.221817 12.0585 0.406887 12.3748 0.69249 12.6629C0.908786 12.8819 1.14793 13.0507 1.46933 13.2116C2.33375 13.6442 3.57822 13.8742 5.50813 13.9574C6.79067 14.0123 9.0793 14.0147 10.4053 13.9613C12.8637 13.8624 14.2955 13.5194 15.1348 12.8262C15.243 12.7367 15.4159 12.5585 15.4966 12.4541C15.751 12.1236 15.9101 11.7312 15.9718 11.2806C16.0114 10.9933 16.0092 10.6133 15.9657 10.3033C15.8957 9.80008 15.706 9.29926 15.4174 8.85496C15.2567 8.60612 15.1173 8.43499 14.8721 8.18379L14.6771 7.98284L14.6672 7.85802C14.604 6.98826 14.3915 6.16794 14.0259 5.38217C13.9924 5.31152 13.9665 5.25265 13.9673 5.25186C13.9688 5.25108 14.0107 5.22831 14.061 5.20084C14.6025 4.90804 15.0663 4.40172 15.3252 3.81926C15.5073 3.40871 15.5895 3.00287 15.5781 2.57113C15.5728 2.39921 15.5613 2.28932 15.5301 2.12839C15.3092 0.987805 14.3968 0.142374 13.246 0.0104961C13.1349 -0.00206375 12.8416 -0.00206375 12.732 0.011281C12.2217 0.07094 11.7746 0.261692 11.3839 0.588247C11.307 0.651832 11.1295 0.831594 11.0572 0.918727C10.8622 1.15187 10.6985 1.43368 10.5842 1.73119C10.55 1.81989 10.4989 1.98082 10.4807 2.0546L10.4685 2.10641L10.339 2.0601C9.10976 1.61894 7.68099 1.54279 6.38017 1.84972C6.13645 1.90703 5.83105 1.99809 5.62084 2.0758L5.53554 2.1072L5.52717 2.07423C5.47538 1.86464 5.37561 1.60481 5.27355 1.40934C5.21186 1.29238 5.08163 1.09064 4.99709 0.981526C4.86305 0.809614 4.6498 0.603947 4.46473 0.469714C4.1281 0.225583 3.72368 0.0670147 3.30404 0.0159912C3.18294 0.00107574 2.93771 -0.0052042 2.82346 0.00500107ZM13.2735 1.00822C13.7967 1.10634 14.246 1.45095 14.4692 1.9243C14.6893 2.39215 14.6794 2.94478 14.4418 3.43854C14.3252 3.68267 14.2087 3.84281 14.0084 4.0367C13.7784 4.25964 13.5058 4.41349 13.1859 4.50141C13.0579 4.53674 13 4.56892 12.9262 4.64664C12.8553 4.71964 12.8241 4.77694 12.7997 4.87899C12.767 5.01244 12.7906 5.13568 12.8774 5.28091C13.0907 5.64122 13.2483 5.9662 13.3656 6.28805C13.5202 6.71194 13.6329 7.18843 13.687 7.64608C13.7061 7.80778 13.7144 7.90669 13.7259 8.11314C13.7426 8.43342 13.767 8.48758 13.9787 8.67049C14.1775 8.8424 14.3801 9.06062 14.521 9.2553C14.8858 9.75691 15.0648 10.3174 15.045 10.892C15.0328 11.2335 14.9574 11.4988 14.8043 11.7327C14.4562 12.2665 13.7251 12.5931 12.4464 12.787C11.7221 12.8961 10.9087 12.9565 9.60938 12.9966C9.18669 13.0091 7.37025 13.0146 6.83332 13.0044C5.49823 12.9793 4.60334 12.9251 3.81355 12.8223C2.16924 12.6096 1.33376 12.1967 1.06035 11.4611C1.00932 11.323 0.983423 11.2052 0.964383 11.0254C0.952959 10.9187 0.959813 10.6031 0.976569 10.4838C1.03217 10.0733 1.1822 9.6894 1.42592 9.32987C1.58966 9.08967 1.77778 8.88243 2.03749 8.65557C2.08623 8.61318 2.13573 8.56765 2.1464 8.55588C2.20199 8.49386 2.25378 8.37611 2.26292 8.29369C2.26521 8.27014 2.2713 8.1783 2.27511 8.08959C2.28349 7.91768 2.29796 7.74341 2.317 7.59113C2.34975 7.3313 2.42134 6.96392 2.47846 6.76924L2.49826 6.70173L2.57899 6.69702C2.8585 6.67975 2.94608 6.67347 3.11287 6.65621C5.43958 6.41757 7.32303 5.24166 7.82265 3.71485C7.9247 3.40321 7.97192 3.04761 7.94831 2.77365C7.93841 2.65748 7.93841 2.65041 7.9506 2.64649C7.98792 2.63707 8.44793 2.6614 8.68402 2.68573C9.31844 2.75089 9.9818 2.93693 10.5606 3.21089C10.7084 3.28076 10.751 3.29489 10.8325 3.2996C11.0237 3.3098 11.2011 3.2054 11.2834 3.03348C11.3245 2.94792 11.3298 2.92202 11.3382 2.76737C11.3474 2.61038 11.3634 2.48556 11.3885 2.37174C11.4761 1.97689 11.6848 1.61501 11.9665 1.37167C12.2011 1.16835 12.4898 1.03726 12.7975 0.994086C12.8911 0.980742 13.1729 0.989376 13.2735 1.00822Z" fill="#F14336"/>
<path d="M5.74723 7.10312C5.52104 7.15572 5.35196 7.31585 5.2857 7.54272C5.26742 7.60395 5.26514 7.62671 5.26514 7.71541C5.26514 7.80412 5.26742 7.82688 5.2857 7.88811C5.31159 7.97524 5.34891 8.04825 5.39994 8.11026C5.48448 8.21231 5.57663 8.27511 5.69773 8.31279C5.75713 8.33163 5.77922 8.33398 5.86528 8.33398C5.95134 8.33398 5.97343 8.33163 6.03284 8.31279C6.23999 8.24842 6.3946 8.08514 6.45248 7.86849C6.47381 7.79077 6.47228 7.63299 6.44943 7.55214C6.38927 7.33626 6.23466 7.17613 6.0275 7.11411C5.95439 7.09292 5.81654 7.08742 5.74723 7.10312Z" fill="#F14336"/>
<path d="M10.0326 7.10152C9.90998 7.12507 9.80259 7.18394 9.70816 7.28128C9.59544 7.39746 9.54289 7.51991 9.53603 7.68319C9.5307 7.78995 9.5406 7.85667 9.57259 7.94224C9.6457 8.1377 9.81402 8.28371 10.0166 8.32688C10.0547 8.33473 10.108 8.3418 10.1354 8.3418C10.3776 8.3418 10.6107 8.17616 10.6982 7.94224C10.7302 7.85667 10.7401 7.78995 10.7348 7.68319C10.7279 7.51991 10.6754 7.39746 10.5627 7.28128C10.4446 7.1596 10.319 7.1023 10.1583 7.09759C10.1103 7.09602 10.0539 7.09759 10.0326 7.10152Z" fill="#F14336"/>
<path d="M7.20674 9.71701C7.16713 9.75234 7.16637 9.8536 7.20369 9.96899C7.26005 10.1433 7.42684 10.3238 7.61953 10.4172L7.66598 10.44L7.63324 10.4816C7.61496 10.5044 7.58754 10.5467 7.57231 10.5766C7.49995 10.7132 7.47025 10.7571 7.40856 10.8223C7.27833 10.9589 7.12296 11.0264 6.94017 11.0264C6.8564 11.0264 6.78404 11.0091 6.71169 10.9722C6.63477 10.933 6.58831 10.8851 6.54414 10.8027C6.46874 10.6598 6.37506 10.5797 6.23417 10.5397C6.03996 10.4839 5.82366 10.5711 5.71094 10.7508C5.61879 10.8976 5.61346 11.0876 5.69571 11.2556C5.82137 11.5123 6.02244 11.7172 6.27986 11.8498C6.46036 11.9432 6.63172 11.9903 6.85183 12.0084C7.22654 12.039 7.63628 11.9048 7.93864 11.6528L8.00033 11.6018L8.05669 11.6481C8.45882 11.9793 8.98813 12.0947 9.46414 11.9534C9.83885 11.842 10.1321 11.6018 10.2981 11.2705C10.3446 11.1779 10.3636 11.1033 10.3636 11.0146C10.3636 10.8757 10.3202 10.7689 10.2227 10.6684C10.1199 10.5632 10.0102 10.5193 9.86474 10.5263C9.6911 10.535 9.54868 10.63 9.46414 10.7932C9.38188 10.9526 9.24632 11.0264 9.03688 11.0264C8.93711 11.0264 8.87694 11.0138 8.79849 10.9761C8.6477 10.9039 8.54869 10.8011 8.44815 10.6103C8.42455 10.5648 8.39027 10.5083 8.37199 10.4839L8.33848 10.44L8.37809 10.4211C8.50147 10.3623 8.64998 10.2312 8.72538 10.115C8.80992 9.98548 8.848 9.82613 8.81373 9.74292C8.78859 9.67933 8.74061 9.68875 8.51289 9.80179C8.24176 9.93602 8.0902 9.97449 7.91351 9.95172C7.7848 9.93524 7.68731 9.9007 7.4573 9.78766C7.2669 9.69425 7.24101 9.68718 7.20674 9.71701Z" fill="#F14336"/>
</svg>
