<svg width="16" height="16" viewBox="0 0 16 16" fill="none" xmlns="http://www.w3.org/2000/svg">
<path d="M2.14939 15.4384C1.56309 15.0989 1.00799 14.6782 0.625101 14.1192C0.311752 13.6618 0.0957642 13.1272 0.0269166 12.4854C-0.0314803 11.941 0.016496 11.3701 0.0635575 10.8177C0.117942 10.1793 0.29269 9.58123 0.524948 9.00437C0.608189 8.79763 0.589334 8.52202 0.609113 8.27681C0.680316 7.39402 0.876038 6.55156 1.12998 5.7309C1.44634 4.70852 1.8581 3.7479 2.4244 2.91592C3.028 2.02916 3.73145 1.28617 4.68361 1.13333C5.14797 1.0588 5.63029 1.11811 6.10115 1.1678C6.73586 1.23478 7.29124 1.64394 7.88307 1.89796C8.18158 2.02608 8.50221 2.09125 8.81708 2.13255C9.28545 2.19399 9.74806 2.13923 10.1878 1.88775C10.4424 1.7422 10.4607 1.71292 10.4095 1.36573C10.3556 0.999922 10.5138 0.27524 10.7909 0.103253C11.0148 -0.0357103 11.2406 -0.00854887 11.468 0.0362183C11.8678 0.114913 12.2095 0.377498 12.5604 0.611957C12.6553 0.67531 12.7681 0.72516 12.8736 0.727846C13.6006 0.746371 14.3162 0.865627 14.9969 1.19229C15.2617 1.31939 15.5033 1.54137 15.7369 1.75326C16.0493 2.03671 16.0432 2.73098 15.9254 3.0864C15.736 3.6581 15.3956 4.06463 15.0224 4.42709C14.473 4.96072 13.8529 5.30319 13.1693 5.45848C13.1144 5.47096 13.0522 5.55058 13.0244 5.61929C12.7783 6.22765 12.5536 6.8507 12.2932 7.44877C12.1069 7.87664 11.8689 8.26752 11.5338 8.53349C11.3953 8.64345 11.4123 8.80778 11.4371 8.95384C11.448 9.01793 11.5485 9.08303 11.6161 9.10158C11.9429 9.19117 12.259 9.30264 12.526 9.57801C12.863 9.92553 12.9298 10.4335 12.8087 10.8819C12.7312 11.169 12.4959 11.247 12.2793 11.2527C11.6991 11.2679 11.1184 11.265 10.5382 11.2508C10.4504 11.2486 10.347 11.1699 10.2799 11.088C9.95392 10.6901 9.63806 10.2788 9.31809 9.87293C9.2301 9.76132 8.87845 9.77689 8.80875 9.902C8.79131 9.93332 8.80537 9.99645 8.81049 10.044C8.8241 10.1701 8.8444 10.2952 8.85556 10.4216C8.91195 11.0606 8.6053 11.248 8.20692 11.2563C7.66233 11.2676 7.11748 11.2592 6.57274 11.2592C5.72824 11.2593 4.88369 11.2532 4.03924 11.2623C3.71925 11.2657 3.49195 11.0746 3.33126 10.7544C3.25258 10.5977 3.15809 10.539 3.0277 10.5353C2.87314 10.5308 2.71749 10.5473 2.56408 10.5299C2.37291 10.5081 2.22847 10.5944 2.11431 10.7804C1.89024 11.1453 1.70419 11.5464 1.76726 12.0196C1.79716 12.244 1.92627 12.4693 2.05207 12.6464C2.37712 13.104 2.78422 13.4269 3.21966 13.694C3.62398 13.9421 4.0422 14.136 4.49624 14.1185C4.86624 14.1042 5.2387 14.073 5.60386 13.9995C6.55209 13.8084 7.47396 13.4765 8.38623 13.1C8.58033 13.0199 8.75797 13.0749 8.82154 13.2195C8.90063 13.3993 8.86207 13.6292 8.72005 13.8139C7.84757 14.9489 6.79298 15.6429 5.56183 15.888C4.51064 16.0973 3.46662 16.021 2.45624 15.5935C2.35204 15.5495 2.2501 15.4967 2.14939 15.4384ZM5.55355 1.86726C5.45841 1.8666 5.36265 1.87469 5.26824 1.86378C4.8104 1.81086 4.38775 1.96464 3.99408 2.24006C3.29533 2.72894 2.79591 3.47975 2.38009 4.3229C1.9632 5.16821 1.62952 6.06725 1.4345 7.03708C1.33087 7.55242 1.24068 8.07677 1.19355 8.60414C1.16383 8.93663 1.1379 9.24504 1.00736 9.5497C0.665989 10.3464 0.59511 11.2191 0.610101 12.1124C0.616377 12.4864 0.698706 12.8257 0.840025 13.1436C1.19958 13.9526 1.77745 14.4238 2.43381 14.755C3.1753 15.1292 3.94983 15.2387 4.7457 15.2148C5.33447 15.1971 5.89522 15.0454 6.44381 14.7966C6.55341 14.7468 6.49488 14.5871 6.37689 14.6109C5.97098 14.6925 5.56867 14.7809 5.16452 14.8524C4.69344 14.9357 4.21695 14.9353 3.75278 14.7737C2.88202 14.4708 2.12668 13.9138 1.5174 13.061C1.33013 12.7989 1.17109 12.5028 1.14913 12.1289C1.11225 11.5011 1.25833 10.9417 1.54356 10.4339C1.77665 10.0189 2.05778 9.74361 2.49312 9.80161C2.73431 9.83375 2.98032 9.80913 3.22415 9.8071C3.46668 9.80508 3.66762 9.95175 3.7733 10.1986C3.89167 10.4752 4.05702 10.5331 4.26818 10.5332C5.4041 10.5332 6.54003 10.5362 7.67593 10.5301C7.69503 10.53 7.71413 10.5295 7.73324 10.5286C8.01564 10.5154 8.24016 10.1503 7.97649 10.0483C7.75807 9.96378 7.53316 9.8864 7.30701 9.85873C6.93961 9.81377 6.82867 9.70483 6.82358 9.26718C6.81483 8.51449 6.62702 7.83754 6.3027 7.21538C6.09839 6.82345 5.86015 6.47409 5.55201 6.20525C5.38996 6.06386 5.3432 5.77786 5.44067 5.60715C5.53345 5.44463 5.74389 5.39733 5.88272 5.55755C6.1747 5.89449 6.47671 6.22884 6.72098 6.61859C7.13568 7.28029 7.33258 8.07068 7.42992 8.90271C7.4371 8.96403 7.47223 9.05633 7.50921 9.07019C7.92423 9.22582 8.34074 9.28727 8.76433 9.09854C8.88732 9.04373 8.91559 8.98828 8.85455 8.84318C8.76506 8.63045 8.67884 8.41487 8.60159 8.19463C8.5222 7.96824 8.57285 7.73712 8.70594 7.66129C8.88757 7.55781 9.05287 7.63641 9.14634 7.87197C9.26394 8.16834 9.37763 8.46732 9.49924 8.76099C9.57056 8.93321 9.63383 9.12121 9.73587 9.26048C10.0235 9.65307 10.326 10.0285 10.6308 10.3998C10.6882 10.4697 10.7821 10.5228 10.8609 10.527C11.1459 10.542 11.4319 10.5413 11.7171 10.5296C12.0068 10.5177 12.2198 10.1606 11.9609 10.0299C11.9362 10.0174 11.9105 10.007 11.884 9.99859C11.6274 9.91688 11.3651 9.86033 11.103 9.81262C10.9285 9.78085 10.8532 9.6702 10.8545 9.4529C10.8567 9.08241 10.8572 8.71185 10.8543 8.34137C10.8529 8.17038 10.9063 8.05716 11.0328 7.99037C11.288 7.85559 11.4603 7.59863 11.6182 7.32427C12.0169 6.63173 12.2943 5.85911 12.5307 5.06122C12.5903 4.86027 12.6688 4.73129 12.8551 4.71339C13.3707 4.66384 13.8465 4.45191 14.2884 4.10938C14.676 3.80901 15.0367 3.47567 15.2832 2.97487C15.4667 2.60194 15.429 2.35173 15.1347 2.12236C15.0496 2.05597 14.9552 2.00689 14.8621 1.95907C14.2278 1.63314 13.5614 1.52887 12.8842 1.50519C12.6386 1.4966 12.4091 1.45705 12.1988 1.25909C12.0485 1.11766 11.868 1.02008 11.6916 0.93403C11.5397 0.859879 11.3759 0.815807 11.2141 0.788436C11.1655 0.780198 11.0808 0.856713 11.0562 0.921262C10.9299 1.25225 11.0709 1.97567 11.2965 2.2134C11.4331 2.35741 11.4706 2.66543 11.3696 2.81401C11.2813 2.94385 11.0368 2.9454 10.9089 2.81785C10.8415 2.7507 10.7738 2.68423 10.7061 2.61772C10.6547 2.56726 10.5983 2.5237 10.5306 2.54821C10.1962 2.66919 9.86636 2.85346 9.52583 2.89478C8.7192 2.99267 7.93209 2.85276 7.18928 2.39914C6.68423 2.09071 6.15248 1.89362 5.55355 1.86726Z" fill="#FFE714"/>
<path d="M5.58871 1.76382C6.1659 1.79059 6.69333 1.99092 7.19428 2.3044C7.93106 2.76546 8.71178 2.90766 9.51186 2.80817C9.84962 2.76617 10.1768 2.57889 10.5085 2.45592C10.5758 2.43095 10.6313 2.47506 10.6819 2.52599C10.7493 2.59378 10.8167 2.66154 10.8837 2.72998C11.0105 2.85962 11.2531 2.85804 11.3407 2.72608C11.4408 2.57506 11.4037 2.26199 11.2681 2.11562C11.0444 1.87399 10.9045 1.13871 11.0298 0.802293C11.0542 0.736686 11.1382 0.658916 11.1865 0.667289C11.3469 0.695109 11.5093 0.739903 11.6601 0.815271C11.835 0.902736 12.0141 1.00192 12.1631 1.14566C12.3717 1.34686 12.5993 1.38706 12.843 1.39579C13.5147 1.41986 14.1757 1.52584 14.8048 1.85712C14.8972 1.90573 14.9908 1.95561 15.0752 2.02308C15.3671 2.25621 15.4045 2.51053 15.2225 2.88957C14.978 3.39859 14.6202 3.73739 14.2358 4.04268C13.7975 4.39083 13.3255 4.60624 12.8141 4.6566C12.6293 4.6748 12.5515 4.80589 12.4924 5.01013C12.2578 5.82111 11.9827 6.60639 11.5873 7.31029C11.4306 7.58915 11.2597 7.85033 11.0066 7.98732C10.8811 8.0552 10.8282 8.17028 10.8295 8.34407C10.8324 8.72062 10.832 9.09726 10.8297 9.47383C10.8284 9.69469 10.9032 9.80716 11.0762 9.83944C11.3362 9.88794 11.5964 9.94541 11.8509 10.0285C11.8799 10.0379 11.9079 10.0497 11.9347 10.0642C12.1885 10.2013 11.9735 10.5561 11.6853 10.5682C11.4024 10.5801 11.1188 10.5808 10.8361 10.5655C10.7579 10.5613 10.6648 10.5073 10.6079 10.4363C10.3056 10.0588 10.0055 9.67728 9.7202 9.27825C9.61899 9.1367 9.55623 8.94561 9.48549 8.77057C9.36486 8.47208 9.2521 8.1682 9.13545 7.86697C9.04273 7.62755 8.87878 7.54766 8.69862 7.65284C8.56662 7.72991 8.51638 7.96482 8.59513 8.19492C8.67174 8.41878 8.75727 8.63789 8.84603 8.8541C8.90657 9.00159 8.87854 9.05795 8.75654 9.11365C8.33639 9.30548 7.92327 9.24302 7.51161 9.08485C7.47493 9.07075 7.44008 8.97694 7.43297 8.91461C7.33641 8.06894 7.14112 7.26559 6.72978 6.59304C6.4875 6.1969 6.18793 5.85707 5.89833 5.5146C5.76062 5.35176 5.55189 5.39984 5.45986 5.56502C5.36319 5.73853 5.40956 6.02922 5.5703 6.17292C5.87594 6.44617 6.11224 6.80126 6.31489 7.19962C6.63658 7.83198 6.82286 8.52003 6.83155 9.28507C6.83659 9.72989 6.94664 9.84061 7.31105 9.88631C7.53537 9.91444 7.75845 9.99309 7.9751 10.079C8.24069 10.1842 8.01092 10.5555 7.72548 10.5675C7.70931 10.5682 7.69314 10.5686 7.67698 10.5687C6.5503 10.5749 5.42359 10.5718 4.29689 10.5718C4.08745 10.5718 3.92343 10.5128 3.80603 10.2318C3.7012 9.98085 3.50189 9.83179 3.26133 9.83384C3.01949 9.8359 2.77547 9.86092 2.53624 9.82826C2.10443 9.7693 1.82559 10.0491 1.59439 10.4709C1.31148 10.987 1.16658 11.5556 1.20316 12.1937C1.22494 12.5737 1.38269 12.8746 1.56844 13.1411C2.17277 14.0079 2.92198 14.574 3.78567 14.8819C4.24608 15.0461 4.7187 15.0466 5.18595 14.9618C5.58583 14.8893 5.98388 14.7998 6.38547 14.717C6.50493 14.6924 6.56546 14.8537 6.45486 14.9051C5.91072 15.1581 5.35453 15.3122 4.77054 15.3302C3.98113 15.3545 3.21288 15.2432 2.47741 14.8629C1.82638 14.5263 1.2532 14.0473 0.896564 13.2251C0.756391 12.9019 0.674732 12.5571 0.668506 12.1769C0.653637 11.269 0.723941 10.382 1.06254 9.57221C1.19202 9.26255 1.21774 8.94909 1.24722 8.61115C1.29397 8.07513 1.38343 7.54218 1.48621 7.01839C1.67965 6.03266 2.01062 5.11887 2.42412 4.25971C2.83657 3.40274 3.33193 2.63961 4.02502 2.14272C4.41549 1.86278 4.83471 1.70648 5.28883 1.76026C5.38247 1.77135 5.47746 1.76313 5.58871 1.76382ZM13.5842 1.97429C13.5218 1.92276 13.4402 1.90135 13.3593 1.90267C13.1726 1.90572 13.0009 2.06474 12.9609 2.27063C12.9071 2.54774 12.9841 2.81991 13.1537 2.95202C13.2908 3.05891 13.5461 3.02699 13.6648 2.8881C13.8983 2.61499 13.8616 2.20339 13.5842 1.97429Z" fill="#FFC700"/>
</svg>
