<svg width="16" height="16" viewBox="0 0 16 16" fill="none" xmlns="http://www.w3.org/2000/svg">
<path d="M8.00017 2.66635C5.05465 2.66635 2.66684 5.05416 2.66684 7.99968C2.66684 8.03141 2.66712 8.06389 2.66768 8.09547C2.67414 8.46361 2.38096 8.76728 2.01282 8.77375C1.64469 8.78022 1.34102 8.48703 1.33455 8.1189C1.33385 8.07923 1.3335 8.03949 1.3335 7.99968C1.3335 4.31778 4.31827 1.33301 8.00017 1.33301C11.6821 1.33301 14.6668 4.31778 14.6668 7.99968C14.6668 11.6816 11.6821 14.6663 8.00017 14.6663C7.96036 14.6663 7.92062 14.666 7.88095 14.6653C7.51282 14.6588 7.21963 14.3552 7.2261 13.987C7.23257 13.6189 7.53624 13.3257 7.90438 13.3322C7.93623 13.3327 7.96816 13.333 8.00017 13.333C10.9457 13.333 13.3335 10.9452 13.3335 7.99968C13.3335 5.05416 10.9457 2.66635 8.00017 2.66635Z" fill="white" fill-opacity="0.38"/>
<path d="M6.42294 13.8291C6.28804 14.1717 5.90096 14.34 5.55837 14.2051C5.4844 14.176 5.41108 14.1456 5.33843 14.1139C5.00092 13.9668 4.84657 13.5739 4.99369 13.2364C5.14082 12.8989 5.5337 12.7445 5.87122 12.8916C5.92925 12.9169 5.98783 12.9412 6.04691 12.9645C6.3895 13.0994 6.55785 13.4865 6.42294 13.8291Z" fill="white" fill-opacity="0.38"/>
<path d="M3.37079 12.7979C3.63571 13.0536 4.05776 13.0461 4.31345 12.7812C4.56914 12.5162 4.56165 12.0942 4.29672 11.8385C4.25101 11.7944 4.20609 11.7495 4.16198 11.7037C3.90629 11.4388 3.48425 11.4313 3.21932 11.687C2.95439 11.9427 2.94691 12.3648 3.2026 12.6297C3.25766 12.6867 3.31373 12.7428 3.37079 12.7979Z" fill="white" fill-opacity="0.38"/>
<path d="M2.76381 11.006C2.42629 11.1531 2.03341 10.9988 1.88629 10.6613C1.85462 10.5886 1.82421 10.5153 1.79508 10.4413C1.66017 10.0988 1.82853 9.71172 2.17111 9.57682C2.5137 9.44191 2.90078 9.61026 3.03569 9.95285C3.05895 10.0119 3.08325 10.0705 3.10855 10.1285C3.25567 10.466 3.10133 10.8589 2.76381 11.006Z" fill="white" fill-opacity="0.38"/>
<path fill-rule="evenodd" clip-rule="evenodd" d="M12 8C12 10.2091 10.2091 12 8 12C5.79086 12 4 10.2091 4 8C4 5.79086 5.79086 4 8 4C10.2091 4 12 5.79086 12 8ZM8 5.33333C8.36819 5.33333 8.66667 5.63181 8.66667 6V7.72386L9.80474 8.86193C10.0651 9.12228 10.0651 9.54439 9.80474 9.80474C9.54439 10.0651 9.12228 10.0651 8.86193 9.80474L7.5286 8.4714C7.40357 8.34638 7.33333 8.17681 7.33333 8V6C7.33333 5.63181 7.63181 5.33333 8 5.33333Z" fill="white" fill-opacity="0.38"/>
</svg>
