<svg width="16" height="16" viewBox="0 0 16 16" fill="none" xmlns="http://www.w3.org/2000/svg">
<g clip-path="url(#clip0_241_15439)">
<path d="M3.30908 8C3.30908 6.8954 4.20916 6 5.31947 6H10.6805C11.7908 6 12.6909 6.8954 12.6909 8C12.6909 9.1046 11.7908 10 10.6805 10H5.31947C4.20916 10 3.30908 9.1046 3.30908 8Z" fill="white" fill-opacity="0.6"/>
<path d="M11.0851 4.69107C10.9524 4.67517 10.8173 4.66699 10.6803 4.66699H8.66992V2.66699H10.6803C11.5039 2.66699 12.2841 2.85176 12.9815 3.18189L11.0851 4.69107Z" fill="white" fill-opacity="0.6"/>
<path d="M12.5493 5.23325C13.266 5.71329 13.7862 6.46166 13.964 7.33363H15.9999C15.8306 5.98304 15.1536 4.78929 14.165 3.94727L12.5493 5.23325Z" fill="white" fill-opacity="0.6"/>
<path d="M4.91491 4.69107C5.04759 4.67517 5.18273 4.66699 5.31967 4.66699H7.33005V2.66699H5.31967C4.49607 2.66699 3.71584 2.85176 3.01855 3.18189L4.91491 4.69107Z" fill="white" fill-opacity="0.6"/>
<path d="M1.83467 3.94727L3.45045 5.23323C2.73369 5.71327 2.21375 6.46162 2.03591 7.33357H0C0.169332 5.98301 0.846167 4.78928 1.83467 3.94727Z" fill="white" fill-opacity="0.6"/>
<path d="M3.45045 10.7673L1.83467 12.0533C0.846167 11.2113 0.169332 10.0175 0 8.66699H2.03591C2.21375 9.53893 2.73369 10.2873 3.45045 10.7673Z" fill="white" fill-opacity="0.6"/>
<path d="M3.01855 12.8188L4.91491 11.3096C5.04759 11.3254 5.18273 11.3336 5.31967 11.3336H7.33005V13.3336H5.31967C4.49607 13.3336 3.71584 13.1489 3.01855 12.8188Z" fill="white" fill-opacity="0.6"/>
<path d="M11.0851 11.3096L12.9815 12.8188C12.2841 13.1489 11.5039 13.3336 10.6803 13.3336H8.66992V11.3336H10.6803C10.8173 11.3336 10.9524 11.3254 11.0851 11.3096Z" fill="white" fill-opacity="0.6"/>
<path d="M14.165 12.0533L12.5493 10.7674C13.266 10.2873 13.7862 9.53893 13.964 8.66699H15.9999C15.8306 10.0176 15.1536 11.2113 14.165 12.0533Z" fill="white" fill-opacity="0.6"/>
</g>
<defs>
<clipPath id="clip0_241_15439">
<rect width="16" height="16" fill="white"/>
</clipPath>
</defs>
</svg>
