<svg width="16" height="16" viewBox="0 0 16 16" fill="none" xmlns="http://www.w3.org/2000/svg">
<path d="M6.35575 5.97768C6.58555 5.57566 6.76672 5.13545 6.81462 4.65084C6.83012 4.49513 6.82625 4.33001 6.82245 4.16847L6.82144 4.12443L7.6754 4.02734V14.4198C6.26579 14.2621 5.11882 13.7458 4.43302 12.4604C4.12482 11.8829 4.07752 11.2522 4.16773 10.5884C4.2933 9.66101 4.67572 8.82157 5.15641 8.00261C5.31544 7.73151 5.47858 7.45937 5.64225 7.18634C5.88269 6.78524 6.12433 6.38216 6.35575 5.97768Z" fill="white" fill-opacity="0.6"/>
<path d="M9.639 5.97768C9.40919 5.57566 9.22802 5.13545 9.18013 4.65084C9.16463 4.49513 9.1685 4.33001 9.1723 4.16847L9.17331 4.12443L8.31934 4.02734V14.4198C9.72895 14.2621 10.8759 13.7458 11.5617 12.4604C11.8699 11.8829 11.9172 11.2522 11.8271 10.5884C11.7015 9.66101 11.319 8.82157 10.8383 8.00261C10.6793 7.73151 10.5162 7.45937 10.3525 7.18634C10.112 6.78524 9.87042 6.38216 9.639 5.97768Z" fill="white" fill-opacity="0.6"/>
<path d="M3.60195 12.5953C3.32695 11.9316 3.26258 11.2206 3.36488 10.4751C3.4806 9.65924 3.74852 8.87083 4.15482 8.15147C4.41511 7.68263 4.69304 7.22043 4.96911 6.76135C5.10908 6.5286 5.24856 6.29664 5.38503 6.06503C5.62436 5.65847 5.84011 5.26239 5.95681 4.82806C6.00386 4.65212 6.03093 4.48241 6.0228 4.30957C4.24552 4.82069 2.83704 5.83412 1.79107 7.35413C1.78284 7.36795 1.77764 7.38333 1.77576 7.39926L1.77542 7.40224C1.70899 7.89921 1.70897 8.40265 1.7754 8.89961C1.96842 10.3624 2.57903 11.5899 3.60195 12.5953Z" fill="white" fill-opacity="0.6"/>
<path d="M12.3983 12.5953C12.6733 11.9316 12.7377 11.2206 12.6354 10.4751C12.5196 9.65924 12.2518 8.87083 11.8455 8.15147C11.5852 7.68263 11.3072 7.22043 11.0311 6.76135C10.8912 6.5286 10.7517 6.29664 10.6152 6.06503C10.3759 5.65847 10.1602 5.26239 10.0435 4.82806C9.99642 4.65212 9.9694 4.48241 9.9775 4.30957C11.7547 4.82069 13.1632 5.83412 14.2092 7.35413C14.2174 7.36795 14.2227 7.38333 14.2246 7.39926L14.2248 7.40224C14.2913 7.89921 14.2913 8.40265 14.2248 8.89961C14.0319 10.3624 13.4213 11.5899 12.3983 12.5953Z" fill="white" fill-opacity="0.6"/>
<path d="M4.66582 2.8925C5.08861 3.03177 5.45197 3.21539 5.72234 3.53626C5.72722 3.5421 5.73201 3.54799 5.73674 3.55396C4.43978 3.93515 3.3073 4.57553 2.34131 5.47399C2.36921 5.41406 2.39811 5.35453 2.42845 5.29533C2.92254 4.32778 3.66295 3.50362 4.57668 2.90432L4.58121 2.90134L4.58556 2.89811C4.59547 2.89075 4.60713 2.88604 4.61944 2.88442C4.63173 2.88279 4.64424 2.88433 4.65576 2.88886L4.66073 2.89082L4.66582 2.8925Z" fill="white" fill-opacity="0.6"/>
<path d="M11.3375 2.8925C10.9147 3.03177 10.5513 3.21539 10.281 3.53626C10.2761 3.5421 10.2713 3.54799 10.2666 3.55396C11.5635 3.93515 12.696 4.57553 13.662 5.47399C13.6341 5.41406 13.6052 5.35453 13.5748 5.29533C13.0807 4.32778 12.3404 3.50362 11.4266 2.90432L11.4221 2.90134L11.4178 2.89811C11.4079 2.89075 11.3962 2.88604 11.3839 2.88442C11.3715 2.88279 11.3591 2.88433 11.3475 2.88886L11.3426 2.89082L11.3375 2.8925Z" fill="white" fill-opacity="0.6"/>
<path d="M6.76184 3.32953C6.69555 3.34119 6.63465 3.35177 6.57483 3.35914C6.33067 2.94455 5.97604 2.60669 5.55225 2.38077C6.22621 2.08942 6.94699 1.91644 7.68211 1.87012V3.22478L7.61338 3.23125C7.40759 3.2506 7.20079 3.27005 6.9953 3.29337C6.91637 3.30235 6.83884 3.31599 6.76779 3.32849L6.76184 3.32953Z" fill="white" fill-opacity="0.6"/>
<path d="M9.23718 3.32953C9.30345 3.34119 9.36437 3.35177 9.42419 3.35914C9.66834 2.94455 10.0229 2.60669 10.4467 2.38077C9.7728 2.08942 9.05202 1.91644 8.31689 1.87012V3.22478L8.38563 3.23125C8.59143 3.2506 8.79822 3.27005 9.00372 3.29337C9.08264 3.30235 9.16017 3.31599 9.23123 3.32849L9.23718 3.32953Z" fill="white" fill-opacity="0.6"/>
</svg>
