<svg width="16" height="16" viewBox="0 0 16 16" fill="none" xmlns="http://www.w3.org/2000/svg">
<path d="M9.28673 1.21722L8.98822 3.46121C9.60398 4.56846 10.2284 6.10941 10.5431 7.62698C10.6417 8.10454 10.3838 8.34045 10.3061 8.00673C9.97347 6.56504 9.39669 4.94102 8.78662 3.83557L6.79633 5.20893C6.93789 5.92636 6.97307 6.8646 6.97307 7.80283C6.97201 8.71661 6.92251 9.5804 6.90503 10.2378C6.89386 10.633 6.59768 10.6121 6.60758 10.2676C6.62611 9.60306 6.67667 8.71877 6.67667 7.80319C6.67773 6.84949 6.62717 5.90587 6.49782 5.29704L4.22356 4.77236C3.59159 5.89436 3.00111 7.74709 2.72367 9.21719C2.65879 9.56206 2.38999 9.32939 2.4395 9.06579C2.72494 7.55793 3.29982 5.72606 3.96234 4.512L2.91011 2.71969C2.33396 3.16165 1.75675 4.28365 1.34766 5.4283C1.11741 6.07237 0.942983 6.72039 0.833019 7.23356C0.779302 7.48493 0.751916 7.74133 0.728744 7.98695C0.68935 7.95854 0.651011 7.93409 0.611406 7.9064C0.329335 7.70394 0.131948 7.9233 0.0386267 8.31816C-0.0799742 8.82018 0.0915031 9.18698 0.309745 9.35205C4.46687 12.5037 8.16876 12.0448 10.0316 10.0824C11.9286 8.08405 12.4257 5.7426 12.5092 5.15247C12.5663 4.74431 12.4257 4.45375 12.2227 4.34946C11.9758 4.22 11.7422 4.37139 11.6465 4.77057C11.5094 4.17325 11.1881 3.16956 10.9149 2.70315C10.4881 1.97241 9.90669 1.38804 9.28673 1.21722ZM6.79064 0.00568233C6.5033 -0.0112195 6.21365 0.00963771 5.92842 0.0675355C4.78644 0.299486 3.72978 1.12768 3.21177 2.47803L4.23557 4.26495L6.58799 4.80832L8.69962 3.35081L9.00465 1.04676C8.41018 0.406292 7.61347 0.0545898 6.79064 0.00568233Z" fill="#E6E7E7"/>
<path d="M14.4213 1.93283C14.6248 1.93283 14.7892 2.22001 14.7892 2.57544C14.7892 2.93088 14.6248 3.21806 14.4213 3.21806C14.2188 3.21806 14.0545 2.93088 14.0545 2.57544C14.0545 2.22001 14.2188 1.93283 14.4213 1.93283ZM14.1166 0.000394459C13.8816 -0.00667888 13.6518 0.0813845 13.4483 0.263877C12.8588 0.792608 12.6784 1.65838 12.5478 2.56978C12.3802 3.73229 12.5856 4.42689 12.4844 5.19293C12.3874 5.9282 11.8603 8.3296 9.96649 10.3706C8.26446 12.2054 5.24587 12.6366 1.7428 10.6178C1.50148 10.4795 1.26926 10.5368 1.19557 11.305C1.10912 12.2058 0.96477 13.206 0.777905 13.9702C0.695506 14.3112 0.667164 14.6001 0.727495 14.8562C0.786409 15.1105 0.917194 15.265 1.07227 15.3884C1.5774 15.7884 2.04142 15.9596 2.5674 15.9907C2.76155 16.0038 2.92271 15.8493 3.02312 15.6318C3.12334 15.4143 3.17274 15.1451 3.19379 14.8891C3.24238 14.2762 3.27619 13.5851 3.2772 12.9018C3.27822 12.6624 3.34988 12.5351 3.4912 12.6659C4.29049 13.3969 5.273 13.7619 6.2792 13.7011C7.29774 13.6403 8.25414 13.1338 9.00079 12.303C9.13684 12.152 9.2413 12.2864 9.24313 12.5022C9.2496 13.2134 9.22632 13.9554 9.16437 14.6571C9.13056 15.033 9.1419 15.3333 9.23908 15.5578C9.33484 15.7828 9.48911 15.8694 9.65957 15.9133C10.2153 16.0572 10.7057 16.031 11.233 15.7662C11.4798 15.6445 11.6315 15.3478 11.7001 15.0365C11.7687 14.7235 11.7675 14.3975 11.7517 14.1449C11.6813 12.9754 11.7191 11.5996 11.3776 10.3505C11.2826 10.0081 11.2774 9.8295 11.5608 9.76089C13.11 9.38883 14.9394 7.66471 15.6142 6.08665C15.7419 5.78638 15.8642 5.40655 15.9116 5.02176C15.9494 4.71371 15.9367 4.38233 15.6678 4.57578C15.3514 4.80071 14.99 4.77666 14.6428 4.539C14.4721 4.423 14.5521 4.12627 14.7252 4.23343C15.011 4.39188 15.3303 4.28295 15.6214 4.10222C15.8565 3.9551 15.9537 3.59754 15.9875 3.25873C16.0351 2.79083 15.9411 2.301 15.8051 1.93849C15.5656 1.29517 15.2283 0.662105 14.8171 0.304548C14.5922 0.107202 14.3517 0.00605313 14.1166 0.000394459Z" fill="#28B446"/>
</svg>
