<svg width="46" height="40" viewBox="0 0 46 40" fill="none" xmlns="http://www.w3.org/2000/svg">
<rect width="46" height="40" rx="4" fill="#121D28"/>
<g clip-path="url(#clip0_987_3947)">
<path fill-rule="evenodd" clip-rule="evenodd" d="M14.3749 17.6099C19.7436 14.7874 23.3236 12.9267 25.1148 12.0277C30.2292 9.46077 31.2919 9.01488 31.9846 9.00016C32.1369 8.99692 32.4776 9.04248 32.6982 9.25852C32.8845 9.44094 32.9358 9.68737 32.9603 9.86033C32.9848 10.0333 33.0154 10.4273 32.9911 10.7351C32.714 14.249 31.5147 22.7762 30.9046 26.7118C30.6465 28.3771 30.1382 28.9354 29.6461 28.9901C28.5766 29.1088 27.7645 28.1372 26.7287 27.3179C25.1078 26.0358 24.1921 25.2377 22.6188 23.9867C20.8005 22.5408 21.9792 21.7462 23.0155 20.4475C23.2866 20.1076 27.9987 14.9358 28.0899 14.4667C28.1013 14.408 28.1119 14.1893 28.0042 14.0738C27.8965 13.9583 27.7376 13.9978 27.6229 14.0292C27.4604 14.0737 24.871 16.1389 19.8549 20.2247C19.1199 20.8337 18.4542 21.1304 17.8577 21.1149C17.2001 21.0977 15.9353 20.6663 14.995 20.2974C13.8417 19.8451 12.925 19.6059 13.0048 18.8376C13.0464 18.4374 13.5031 18.0282 14.3749 17.6099Z" fill="url(#paint0_linear_987_3947)"/>
</g>
<defs>
<linearGradient id="paint0_linear_987_3947" x1="32.6685" y1="9.13333" x2="19.5369" y2="20.9718" gradientUnits="userSpaceOnUse">
<stop stop-color="#4EAF90"/>
<stop offset="1" stop-color="#B2D5B2"/>
</linearGradient>
<clipPath id="clip0_987_3947">
<rect width="24" height="24" fill="white" transform="translate(11 8)"/>
</clipPath>
</defs>
</svg>
