<svg width="20" height="20" viewBox="0 0 20 20" fill="none" xmlns="http://www.w3.org/2000/svg">
<path fill-rule="evenodd" clip-rule="evenodd" d="M1.3749 8.60987C6.74359 5.78741 10.3236 3.92667 12.1148 3.02765C17.2292 0.460774 18.2919 0.0148807 18.9846 0.000156987C19.1369 -0.00308132 19.4776 0.0424773 19.6982 0.25852C19.8845 0.440943 19.9358 0.687369 19.9603 0.860325C19.9848 1.03328 20.0154 1.42728 19.9911 1.73514C19.714 5.249 18.5147 13.7762 17.9046 17.7118C17.6465 19.3771 17.1382 19.9354 16.6461 19.9901C15.5766 20.1088 14.7645 19.1372 13.7287 18.3179C12.1078 17.0358 11.1921 16.2377 9.61879 14.9867C7.80053 13.5408 8.97923 12.7462 10.0155 11.4475C10.2866 11.1076 14.9987 5.93584 15.0899 5.46668C15.1013 5.40801 15.1119 5.18929 15.0042 5.0738C14.8965 4.95831 14.7376 4.9978 14.6229 5.02921C14.4604 5.07373 11.871 7.1389 6.85486 11.2247C6.11988 11.8337 5.45416 12.1304 4.8577 12.1149C4.20015 12.0977 2.93528 11.6663 1.99498 11.2974C0.84166 10.8451 -0.074973 10.6059 0.00484519 9.83761C0.0464194 9.43745 0.503103 9.0282 1.3749 8.60987Z" fill="url(#paint0_linear_987_3953)"/>
<defs>
<linearGradient id="paint0_linear_987_3953" x1="19.6685" y1="0.133334" x2="6.53693" y2="11.9718" gradientUnits="userSpaceOnUse">
<stop stop-color="#4EAF90"/>
<stop offset="1" stop-color="#B2D5B2"/>
</linearGradient>
</defs>
</svg>
