<svg width="24" height="24" viewBox="0 0 24 24" fill="none" xmlns="http://www.w3.org/2000/svg">
<g clip-path="url(#clip0_987_3935)">
<path d="M13.0286 1.00123C13.7583 0.99843 14.488 1.00576 15.2176 1.02323L15.4116 1.03023C15.6356 1.03823 15.8566 1.04823 16.1236 1.06023C17.1876 1.11023 17.9136 1.27823 18.5506 1.52523C19.2106 1.77923 19.7666 2.12323 20.3226 2.67923C20.8309 3.17884 21.2244 3.78318 21.4756 4.45023C21.7226 5.08723 21.8906 5.81423 21.9406 6.87823C21.9526 7.14423 21.9626 7.36623 21.9706 7.59023L21.9766 7.78423C21.9943 8.51342 22.002 9.24283 21.9996 9.97223L22.0006 10.7182V12.0282C22.003 12.758 21.9954 13.4877 21.9776 14.2172L21.9716 14.4112C21.9636 14.6352 21.9536 14.8562 21.9416 15.1232C21.8916 16.1872 21.7216 16.9132 21.4756 17.5502C21.2252 18.218 20.8317 18.8228 20.3226 19.3222C19.8225 19.8306 19.2179 20.224 18.5506 20.4752C17.9136 20.7222 17.1876 20.8902 16.1236 20.9402C15.8566 20.9522 15.6356 20.9622 15.4116 20.9702L15.2176 20.9762C14.4881 20.994 13.7583 21.0017 13.0286 20.9992L12.2826 21.0002H10.9736C10.2438 21.0027 9.5141 20.995 8.78458 20.9772L8.59058 20.9712C8.35319 20.9626 8.11585 20.9526 7.87858 20.9412C6.81458 20.8912 6.08858 20.7212 5.45058 20.4752C4.78326 20.2246 4.17881 19.8311 3.67958 19.3222C3.17062 18.8225 2.7768 18.2178 2.52558 17.5502C2.27858 16.9132 2.11058 16.1872 2.06058 15.1232C2.04944 14.8859 2.03944 14.6486 2.03058 14.4112L2.02558 14.2172C2.00714 13.4877 1.99881 12.758 2.00058 12.0282V9.97223C1.99779 9.24283 2.00512 8.51343 2.02258 7.78423L2.02958 7.59023C2.03758 7.36623 2.04758 7.14423 2.05958 6.87823C2.10958 5.81323 2.27758 5.08823 2.52458 4.45023C2.77595 3.78285 3.17054 3.17868 3.68058 2.68023C4.17947 2.17098 4.78354 1.7768 5.45058 1.52523C6.08858 1.27823 6.81358 1.11023 7.87858 1.06023L8.59058 1.03023L8.78458 1.02523C9.51376 1.0068 10.2432 0.998469 10.9726 1.00023L13.0286 1.00123ZM12.0006 6.00123C11.3381 5.99186 10.6803 6.11425 10.0656 6.3613C9.45077 6.60834 8.89122 6.97511 8.41942 7.44029C7.94762 7.90546 7.57298 8.45977 7.31726 9.07099C7.06155 9.68222 6.92987 10.3382 6.92987 11.0007C6.92987 11.6633 7.06155 12.3192 7.31726 12.9305C7.57298 13.5417 7.94762 14.096 8.41942 14.5612C8.89122 15.0264 9.45077 15.3931 10.0656 15.6402C10.6803 15.8872 11.3381 16.0096 12.0006 16.0002C13.3267 16.0002 14.5984 15.4734 15.5361 14.5358C16.4738 13.5981 17.0006 12.3263 17.0006 11.0002C17.0006 9.67415 16.4738 8.40238 15.5361 7.4647C14.5984 6.52701 13.3267 6.00123 12.0006 6.00123ZM12.0006 8.00123C12.3991 7.99389 12.7951 8.06603 13.1654 8.21344C13.5357 8.36085 13.8729 8.58057 14.1574 8.85978C14.4418 9.13898 14.6678 9.47206 14.822 9.83957C14.9763 10.2071 15.0558 10.6016 15.0558 11.0002C15.0559 11.3988 14.9766 11.7934 14.8224 12.1609C14.6683 12.5285 14.4424 12.8617 14.1581 13.141C13.8737 13.4203 13.5366 13.6401 13.1663 13.7876C12.796 13.9352 12.4001 14.0074 12.0016 14.0002C11.2059 14.0002 10.4429 13.6842 9.88026 13.1216C9.31765 12.5589 9.00158 11.7959 9.00158 11.0002C9.00158 10.2046 9.31765 9.44152 9.88026 8.87891C10.4429 8.3163 11.2059 8.00023 12.0016 8.00023L12.0006 8.00123ZM17.2506 4.50123C16.928 4.51414 16.6229 4.65138 16.3992 4.8842C16.1755 5.11702 16.0506 5.42736 16.0506 5.75023C16.0506 6.0731 16.1755 6.38344 16.3992 6.61626C16.6229 6.84908 16.928 6.98632 17.2506 6.99923C17.5821 6.99923 17.9 6.86753 18.1345 6.63311C18.3689 6.39869 18.5006 6.08075 18.5006 5.74923C18.5006 5.41771 18.3689 5.09977 18.1345 4.86535C17.9 4.63093 17.5821 4.49923 17.2506 4.49923V4.50123Z" fill="url(#paint0_linear_987_3935)"/>
</g>
<defs>
<linearGradient id="paint0_linear_987_3935" x1="12.0005" y1="1" x2="12.0005" y2="21.0007" gradientUnits="userSpaceOnUse">
<stop stop-color="#4EAF90"/>
<stop offset="1" stop-color="#B2D5B2"/>
</linearGradient>
<clipPath id="clip0_987_3935">
<rect width="24" height="24" fill="white"/>
</clipPath>
</defs>
</svg>
