<svg width="20" height="20" viewBox="0 0 20 20" fill="none" xmlns="http://www.w3.org/2000/svg">
<rect width="20" height="20" fill="#F5F5F5"/>
<g id="Sedona Rooms - Light Mode">
<path d="M-973 -171C-973 -172.105 -972.105 -173 -971 -173H14306C14307.1 -173 14308 -172.105 14308 -171V2087C14308 2088.1 14307.1 2089 14306 2089H-971C-972.104 2089 -973 2088.1 -973 2087V-171Z" fill="#404040"/>
<path d="M-971 -172H14306V-174H-971V-172ZM14307 -171V2087H14309V-171H14307ZM14306 2088H-971V2090H14306V2088ZM-972 2087V-171H-974V2087H-972ZM-971 2088C-971.552 2088 -972 2087.55 -972 2087H-974C-974 2088.66 -972.657 2090 -971 2090V2088ZM14307 2087C14307 2087.55 14306.6 2088 14306 2088V2090C14307.7 2090 14309 2088.66 14309 2087H14307ZM14306 -172C14306.6 -172 14307 -171.552 14307 -171H14309C14309 -172.657 14307.7 -174 14306 -174V-172ZM-971 -174C-972.657 -174 -974 -172.657 -974 -171H-972C-972 -171.552 -971.552 -172 -971 -172V-174Z" fill="black" fill-opacity="0.1"/>
<g id="Group 101231">
<g id="SEttings Button">
<rect x="-13" y="-9" width="46" height="40" rx="4" fill="#121D28"/>
<g id="SVG" clip-path="url(#clip0_0_1)">
<path id="Vector" d="M11.0286 0.0012304C11.7583 -0.00156983 12.488 0.00576429 13.2176 0.0232305L13.4116 0.0302304C13.6356 0.0382304 13.8566 0.0482304 14.1236 0.0602304C15.1876 0.11023 15.9136 0.278231 16.5506 0.525231C17.2106 0.779231 17.7666 1.12323 18.3226 1.67923C18.8309 2.17884 19.2244 2.78318 19.4756 3.45023C19.7226 4.08723 19.8906 4.81423 19.9406 5.87823C19.9526 6.14423 19.9626 6.36623 19.9706 6.59023L19.9766 6.78423C19.9943 7.51342 20.002 8.24283 19.9996 8.97223L20.0006 9.71823V11.0282C20.003 11.758 19.9954 12.4877 19.9776 13.2172L19.9716 13.4112C19.9636 13.6352 19.9536 13.8562 19.9416 14.1232C19.8916 15.1872 19.7216 15.9132 19.4756 16.5502C19.2252 17.218 18.8317 17.8228 18.3226 18.3222C17.8225 18.8306 17.2179 19.224 16.5506 19.4752C15.9136 19.7222 15.1876 19.8902 14.1236 19.9402C13.8566 19.9522 13.6356 19.9622 13.4116 19.9702L13.2176 19.9762C12.4881 19.994 11.7583 20.0017 11.0286 19.9992L10.2826 20.0002H8.97358C8.24384 20.0027 7.5141 19.995 6.78458 19.9772L6.59058 19.9712C6.35319 19.9626 6.11585 19.9526 5.87858 19.9412C4.81458 19.8912 4.08858 19.7212 3.45058 19.4752C2.78326 19.2246 2.17881 18.8311 1.67958 18.3222C1.17062 17.8225 0.776801 17.2178 0.525577 16.5502C0.278577 15.9132 0.110577 15.1872 0.0605769 14.1232C0.0494398 13.8859 0.0394398 13.6486 0.030577 13.4112L0.0255771 13.2172C0.00714068 12.4877 -0.00119355 11.758 0.000577001 11.0282V8.97223C-0.00221397 8.24283 0.00512015 7.51343 0.0225771 6.78423L0.029577 6.59023C0.037577 6.36623 0.047577 6.14423 0.059577 5.87823C0.109577 4.81323 0.277577 4.08823 0.524577 3.45023C0.77595 2.78285 1.17054 2.17868 1.68058 1.68023C2.17947 1.17098 2.78354 0.776803 3.45058 0.525231C4.08858 0.278231 4.81358 0.11023 5.87858 0.0602304L6.59058 0.0302304L6.78458 0.0252306C7.51376 0.00680338 8.24316 -0.00153085 8.97258 0.000230468L11.0286 0.0012304ZM10.0006 5.00123C9.33808 4.99186 8.68033 5.11425 8.06555 5.3613C7.45077 5.60834 6.89122 5.97511 6.41942 6.44029C5.94762 6.90546 5.57298 7.45977 5.31726 8.07099C5.06155 8.68222 4.92987 9.33817 4.92987 10.0007C4.92987 10.6633 5.06155 11.3192 5.31726 11.9305C5.57298 12.5417 5.94762 13.096 6.41942 13.5612C6.89122 14.0264 7.45077 14.3931 8.06555 14.6402C8.68033 14.8872 9.33808 15.0096 10.0006 15.0002C11.3267 15.0002 12.5984 14.4734 13.5361 13.5358C14.4738 12.5981 15.0006 11.3263 15.0006 10.0002C15.0006 8.67415 14.4738 7.40238 13.5361 6.4647C12.5984 5.52701 11.3267 5.00123 10.0006 5.00123ZM10.0006 7.00123C10.3991 6.99389 10.7951 7.06603 11.1654 7.21344C11.5357 7.36085 11.8729 7.58057 12.1574 7.85978C12.4418 8.13898 12.6678 8.47206 12.822 8.83957C12.9763 9.20708 13.0558 9.60165 13.0558 10.0002C13.0559 10.3988 12.9766 10.7934 12.8224 11.1609C12.6683 11.5285 12.4424 11.8617 12.1581 12.141C11.8737 12.4203 11.5366 12.6401 11.1663 12.7876C10.796 12.9352 10.4001 13.0074 10.0016 13.0002C9.20593 13.0002 8.44286 12.6842 7.88026 12.1216C7.31765 11.5589 7.00158 10.7959 7.00158 10.0002C7.00158 9.20458 7.31765 8.44152 7.88026 7.87891C8.44286 7.3163 9.20593 7.00023 10.0016 7.00023L10.0006 7.00123ZM15.2506 3.50123C14.928 3.51414 14.6229 3.65138 14.3992 3.8842C14.1755 4.11702 14.0506 4.42736 14.0506 4.75023C14.0506 5.0731 14.1755 5.38344 14.3992 5.61626C14.6229 5.84908 14.928 5.98632 15.2506 5.99923C15.5821 5.99923 15.9 5.86753 16.1345 5.63311C16.3689 5.39869 16.5006 5.08075 16.5006 4.74923C16.5006 4.41771 16.3689 4.09977 16.1345 3.86535C15.9 3.63093 15.5821 3.49923 15.2506 3.49923V3.50123Z" fill="url(#paint0_linear_0_1)"/>
</g>
</g>
</g>
</g>
<defs>
<linearGradient id="paint0_linear_0_1" x1="10.0005" y1="0" x2="10.0005" y2="20.0007" gradientUnits="userSpaceOnUse">
<stop stop-color="#4EAF90"/>
<stop offset="1" stop-color="#B2D5B2"/>
</linearGradient>
<clipPath id="clip0_0_1">
<rect width="24" height="24" fill="white" transform="translate(-2 -1)"/>
</clipPath>
</defs>
</svg>
