<svg width="46" height="40" viewBox="0 0 46 40" fill="none" xmlns="http://www.w3.org/2000/svg">
<rect width="46" height="40" rx="4" fill="#121D28"/>
<g clip-path="url(#clip0_987_3955)">
<path d="M30.2682 12.33C28.9382 11.71 27.4982 11.26 25.9982 11C25.985 10.9996 25.9719 11.002 25.9598 11.0072C25.9477 11.0124 25.9369 11.0202 25.9282 11.03C25.7482 11.36 25.5382 11.79 25.3982 12.12C23.8072 11.88 22.1892 11.88 20.5982 12.12C20.4582 11.78 20.2482 11.36 20.0582 11.03C20.0482 11.01 20.0182 11 19.9882 11C18.4882 11.26 17.0582 11.71 15.7182 12.33C15.7082 12.33 15.6982 12.34 15.6882 12.35C12.9682 16.42 12.2182 20.38 12.5882 24.3C12.5882 24.32 12.5982 24.34 12.6182 24.35C14.4182 25.67 16.1482 26.47 17.8582 27C17.8882 27.01 17.9182 27 17.9282 26.98C18.3282 26.43 18.6882 25.85 18.9982 25.24C19.0182 25.2 18.9982 25.16 18.9582 25.15C18.3882 24.93 17.8482 24.67 17.3182 24.37C17.2782 24.35 17.2782 24.29 17.3082 24.26C17.4182 24.18 17.5282 24.09 17.6382 24.01C17.6582 23.99 17.6882 23.99 17.7082 24C21.1482 25.57 24.8582 25.57 28.2582 24C28.2782 23.99 28.3082 23.99 28.3282 24.01C28.4382 24.1 28.5482 24.18 28.6582 24.27C28.6982 24.3 28.6982 24.36 28.6482 24.38C28.1282 24.69 27.5782 24.94 27.0082 25.16C26.9682 25.17 26.9582 25.22 26.9682 25.25C27.2882 25.86 27.6482 26.44 28.0382 26.99C28.0682 27 28.0982 27.01 28.1282 27C29.8482 26.47 31.5782 25.67 33.3782 24.35C33.3982 24.34 33.4082 24.32 33.4082 24.3C33.8482 19.77 32.6782 15.84 30.3082 12.35C30.2982 12.34 30.2882 12.33 30.2682 12.33ZM19.5182 21.91C18.4882 21.91 17.6282 20.96 17.6282 19.79C17.6282 18.62 18.4682 17.67 19.5182 17.67C20.5782 17.67 21.4182 18.63 21.4082 19.79C21.4082 20.96 20.5682 21.91 19.5182 21.91ZM26.4882 21.91C25.4582 21.91 24.5982 20.96 24.5982 19.79C24.5982 18.62 25.4382 17.67 26.4882 17.67C27.5482 17.67 28.3882 18.63 28.3782 19.79C28.3782 20.96 27.5482 21.91 26.4882 21.91Z" fill="url(#paint0_linear_987_3955)"/>
</g>
<defs>
<linearGradient id="paint0_linear_987_3955" x1="22.9997" y1="10.9999" x2="22.9997" y2="27.0041" gradientUnits="userSpaceOnUse">
<stop stop-color="#4EAF90"/>
<stop offset="1" stop-color="#B2D5B2"/>
</linearGradient>
<clipPath id="clip0_987_3955">
<rect width="24" height="24" fill="white" transform="translate(11 8)"/>
</clipPath>
</defs>
</svg>
