<svg width="17" height="19" viewBox="0 0 17 19" fill="none" xmlns="http://www.w3.org/2000/svg">
<path d="M7.44141 0.857031C7.94414 0.582813 8.55234 0.582813 9.05859 0.857031L15.2215 4.22148C15.4008 4.31992 15.5133 4.50977 15.5133 4.71367C15.5133 4.91758 15.4008 5.10742 15.2215 5.20586L8.5207 8.86211C8.35195 8.95352 8.15156 8.95352 7.98281 8.86211L1.27852 5.20586C1.09922 5.10742 0.986719 4.91758 0.986719 4.71367C0.986719 4.50977 1.09922 4.31992 1.27852 4.22148L7.44141 0.857031ZM1.2082 6.47148L7.3957 9.84648C7.575 9.94492 7.6875 10.1348 7.6875 10.3387V17.9324C7.6875 18.1293 7.58203 18.3156 7.41328 18.4176C7.24453 18.5195 7.03008 18.523 6.85781 18.4281L1.25391 15.3695C0.7125 15.0742 0.375 14.5082 0.375 13.8895V6.96367C0.375 6.7668 0.480469 6.58047 0.649219 6.47852C0.817969 6.37656 1.03242 6.37305 1.20469 6.46797L1.2082 6.47148ZM15.2953 6.47148C15.4711 6.37656 15.682 6.38008 15.8508 6.48203C16.0195 6.58398 16.125 6.7668 16.125 6.96719V13.8895C16.125 14.5082 15.7875 15.0742 15.2461 15.3695L9.6457 18.4246C9.46992 18.5195 9.25898 18.516 9.09023 18.4141C8.92148 18.3121 8.81602 18.1293 8.81602 17.9289V10.3387C8.81602 10.1312 8.92852 9.94492 9.10781 9.84648L15.2953 6.47148Z" fill="#DFFE00"/>
</svg>
