<svg xmlns="http://www.w3.org/2000/svg" width="24" height="24" viewBox="0 0 24 24" fill="none">
  <path d="M11.614 13.98L16.522 18.902C16.912 19.293 17.512 19.262 17.808 18.796C18.7194 17.3555 19.2025 15.6856 19.201 13.981C19.2026 11.9345 18.5071 9.94839 17.229 8.35001L11.614 13.98ZM9 14.396V7.04101C7.33286 7.28332 5.8088 8.11808 4.70692 9.39241C3.60503 10.6667 2.99907 12.2954 3 13.98C3 17.856 6.134 21 10 21C11.5108 21 12.9804 20.5075 14.186 19.597L9 14.396ZM16.331 6.21301C16.721 5.82201 16.696 5.21401 16.242 4.90001C14.9664 4.01646 13.5173 3.41478 11.991 3.13501C11.447 3.03501 11 3.44701 11 4.00001V11.56L16.331 6.21301Z" fill="#858585"/>
</svg>