<svg width="36" height="29" viewBox="0 0 36 29" fill="none" xmlns="http://www.w3.org/2000/svg">
<path d="M28.8893 10.5303C30.5199 14.062 32.0995 17.3607 33.5882 20.6949C34.7102 23.208 33.6732 25.4696 30.8111 26.0505C22.0399 27.8307 13.1879 27.5981 4.41187 26.1569C0.842044 25.5706 -0.184319 22.4993 1.79678 19.5729C2.38889 18.6983 3.32282 17.9951 3.76658 17.0727C4.21027 16.1505 4.2365 15.0523 4.4619 13.9523C10.269 12.815 16.1324 11.7617 17.7135 4.85972C20.0678 5.34349 22.319 5.8061 24.715 6.29842C25.0829 5.4346 25.8207 3.54462 26.4008 3.05171C27.5413 2.08265 28.2648 1.77495 29.6261 1.65849C30.6132 1.57405 32.5112 3.00172 32.6495 3.93158C33.6008 6.8675 32.8008 7.63065 31.6008 8.39381C31.0762 9.28766 29.613 9.56732 28.8893 10.5303Z" fill="#14202D"/>
<path d="M6.35279 0.0103607C4.02057 0.185974 2.02078 1.62665 1.27364 3.66734C0.977186 4.47386 0.881224 5.28526 0.982327 6.11454C1.19653 7.85116 2.26582 9.48696 3.83378 10.4723C4.08226 10.6284 4.35986 10.7829 4.50723 10.848C4.5415 10.8642 4.57064 10.8821 4.57064 10.887C4.57064 10.8935 4.49352 11.048 4.40099 11.2301C3.59216 12.8106 3.1192 14.5391 2.98554 16.3912L2.97355 16.5521L2.85017 16.6578C1.28564 18.0091 0.353431 19.5912 0.0809662 21.3506C-0.0698319 22.3279 -0.00814176 23.3327 0.250614 24.175C0.499088 24.9783 0.915496 25.6336 1.5581 26.2304C2.04477 26.684 2.58284 27.0336 3.30599 27.367C5.25094 28.2629 8.05099 28.7394 12.3933 28.9117C15.279 29.0255 20.4284 29.0304 23.4118 28.9198C28.9434 28.715 32.165 28.0044 34.0534 26.5686C34.2967 26.3832 34.6857 26.0141 34.8673 25.7978C35.4397 25.1133 35.7978 24.3002 35.9366 23.3669C36.0257 22.7718 36.0206 21.9848 35.9229 21.3425C35.7653 20.3002 35.3386 19.2628 34.6891 18.3424C34.3275 17.827 34.014 17.4725 33.4622 16.9521L33.0235 16.5359L33.0012 16.2773C32.859 14.4757 32.3809 12.7765 31.5583 11.1488C31.4829 11.0024 31.4247 10.8805 31.4264 10.8789C31.4298 10.8772 31.5241 10.8301 31.6372 10.7732C32.8555 10.1666 33.8991 9.11785 34.4818 7.91132C34.8913 7.0609 35.0764 6.22023 35.0507 5.32591C35.0387 4.9698 35.013 4.74216 34.9427 4.40882C34.4458 2.04617 32.3929 0.294918 29.8036 0.0217438C29.5534 -0.00427437 28.8937 -0.00427437 28.6469 0.0233688C27.4988 0.146948 26.4929 0.542078 25.6138 1.21851C25.4407 1.35022 25.0415 1.72259 24.8787 1.90308C24.44 2.38601 24.0716 2.96976 23.8145 3.58604C23.7374 3.76978 23.6226 4.10312 23.5815 4.25597L23.5541 4.36329L23.2627 4.26735C20.497 3.35351 17.2822 3.19579 14.3554 3.83157C13.807 3.95027 13.1199 4.13889 12.6469 4.29987L12.455 4.36491L12.4361 4.29662C12.3196 3.86246 12.0951 3.32424 11.8655 2.91936C11.7267 2.67708 11.4337 2.25918 11.2434 2.03316C10.9419 1.67706 10.462 1.25103 10.0456 0.97298C9.28822 0.467279 8.37829 0.138819 7.43409 0.0331249C7.16162 0.00222969 6.60984 -0.0107784 6.35279 0.0103607ZM29.8653 2.08845C31.0425 2.2917 32.0536 3.00554 32.5557 3.98604C33.0509 4.95517 33.0286 6.09991 32.494 7.12269C32.2318 7.62839 31.9696 7.9601 31.5189 8.36174C31.0014 8.82353 30.3879 9.14224 29.6682 9.32436C29.3803 9.39753 29.2501 9.4642 29.0839 9.62517C28.9245 9.7764 28.8543 9.8951 28.7994 10.1065C28.7257 10.3829 28.7789 10.6382 28.9742 10.939C29.454 11.6854 29.8087 12.3586 30.0726 13.0252C30.4205 13.9033 30.6741 14.8903 30.7958 15.8383C30.8386 16.1733 30.8575 16.3781 30.8832 16.8058C30.9209 17.4692 30.9757 17.5814 31.4521 17.9603C31.8994 18.3164 32.3552 18.7684 32.6722 19.1717C33.493 20.2107 33.8957 21.3717 33.8512 22.562C33.8237 23.2693 33.6541 23.8189 33.3097 24.3035C32.5265 25.4092 30.8815 26.0856 28.0043 26.4873C26.3747 26.7133 24.5445 26.8385 21.6211 26.9214C20.67 26.9475 16.5831 26.9588 15.375 26.9377C12.371 26.8857 10.3575 26.7735 8.58049 26.5605C4.8808 26.1198 3.00096 25.2645 2.38578 23.7409C2.27097 23.4547 2.2127 23.2108 2.16986 22.8384C2.14416 22.6173 2.15958 21.9636 2.19728 21.7165C2.32237 20.866 2.65996 20.0709 3.20831 19.3262C3.57674 18.8286 4 18.3993 4.58434 17.9294C4.69402 17.8416 4.8054 17.7473 4.82939 17.7229C4.95448 17.5944 5.07101 17.3505 5.09157 17.1798C5.09671 17.131 5.11042 16.9408 5.11899 16.757C5.13784 16.4009 5.1704 16.0399 5.21324 15.7245C5.28693 15.1863 5.44801 14.4253 5.57653 14.022L5.62108 13.8822L5.80272 13.8724C6.43162 13.8366 6.62869 13.8236 7.00397 13.7879C12.2391 13.2935 16.4768 10.8577 17.601 7.69506C17.8306 7.04952 17.9368 6.31292 17.8837 5.74543C17.8614 5.50477 17.8614 5.49014 17.8888 5.48201C17.9728 5.46249 19.0078 5.5129 19.5391 5.56331C20.9665 5.69827 22.4591 6.08364 23.7614 6.65113C24.0938 6.79585 24.1898 6.82512 24.3732 6.83488C24.8033 6.85602 25.2026 6.63975 25.3876 6.28365C25.4802 6.10641 25.4922 6.05275 25.511 5.73242C25.5316 5.40721 25.5676 5.14867 25.6241 4.91289C25.8212 4.09499 26.2907 3.34538 26.9247 2.84131C27.4525 2.42016 28.102 2.14861 28.7943 2.05918C29.0051 2.03154 29.6391 2.04942 29.8653 2.08845Z" fill="#F4BF04"/>
<path d="M12.9304 14.717C12.4215 14.8259 12.0411 15.1576 11.892 15.6275C11.8508 15.7544 11.8457 15.8015 11.8457 15.9853C11.8457 16.169 11.8508 16.2162 11.892 16.343C11.9502 16.5235 12.0342 16.6747 12.149 16.8032C12.3392 17.0146 12.5466 17.1446 12.819 17.2227C12.9527 17.2617 13.0024 17.2666 13.196 17.2666C13.3897 17.2666 13.4394 17.2617 13.573 17.2227C14.0391 17.0894 14.387 16.7511 14.5172 16.3024C14.5652 16.1414 14.5618 15.8145 14.5104 15.6471C14.375 15.1999 14.0271 14.8682 13.561 14.7397C13.3965 14.6958 13.0864 14.6844 12.9304 14.717Z" fill="#F4BF04"/>
<path d="M22.5735 14.7082C22.2976 14.757 22.056 14.8789 21.8435 15.0806C21.5899 15.3212 21.4716 15.5749 21.4562 15.9131C21.4442 16.1342 21.4665 16.2724 21.5384 16.4497C21.703 16.8546 22.0817 17.157 22.5375 17.2464C22.6232 17.2627 22.7431 17.2773 22.8048 17.2773C23.3497 17.2773 23.8741 16.9342 24.0712 16.4497C24.1431 16.2724 24.1654 16.1342 24.1534 15.9131C24.138 15.5749 24.0198 15.3212 23.7661 15.0806C23.5005 14.8285 23.2178 14.7098 22.8562 14.7001C22.7483 14.6968 22.6215 14.7001 22.5735 14.7082Z" fill="#F4BF04"/>
<path d="M16.2139 20.1255C16.1248 20.1987 16.1231 20.4084 16.2071 20.6475C16.3339 21.0085 16.7092 21.3825 17.1427 21.5759L17.2472 21.6231L17.1736 21.7093C17.1324 21.7564 17.0707 21.8442 17.0365 21.906C16.8737 22.189 16.8068 22.28 16.668 22.415C16.375 22.6979 16.0254 22.8378 15.6142 22.8378C15.4257 22.8378 15.2629 22.802 15.1001 22.7256C14.927 22.6443 14.8225 22.5451 14.7231 22.3743C14.5534 22.0784 14.3427 21.9125 14.0257 21.8296C13.5887 21.7142 13.102 21.8947 12.8484 22.267C12.6411 22.5711 12.6291 22.9646 12.8141 23.3126C13.0969 23.8443 13.5493 24.2687 14.1285 24.5435C14.5346 24.737 14.9202 24.8345 15.4154 24.8719C16.2585 24.9354 17.1804 24.6573 17.8607 24.1353L17.9995 24.0297L18.1263 24.1256C19.0311 24.8118 20.2221 25.0508 21.2931 24.7581C22.1362 24.5272 22.7959 24.0297 23.1695 23.3435C23.274 23.1516 23.3169 22.9971 23.3169 22.8134C23.3169 22.5256 23.2192 22.3044 22.9999 22.0963C22.7685 21.8784 22.5218 21.7873 22.1945 21.802C21.8037 21.8199 21.4833 22.0166 21.2931 22.3548C21.108 22.6849 20.803 22.8378 20.3318 22.8378C20.1073 22.8378 19.9719 22.8117 19.7954 22.7337C19.4561 22.5841 19.2333 22.3711 19.0071 21.976C18.954 21.8816 18.8769 21.7646 18.8358 21.7142L18.7604 21.6231L18.8495 21.5841C19.1271 21.4621 19.4612 21.1906 19.6309 20.9499C19.8211 20.6816 19.9068 20.3515 19.8297 20.1792C19.7731 20.0475 19.6652 20.067 19.1528 20.3011C18.5427 20.5792 18.2017 20.6589 17.8042 20.6117C17.5146 20.5776 17.2952 20.506 16.7777 20.2719C16.3493 20.0784 16.291 20.0637 16.2139 20.1255Z" fill="#F4BF04"/>
</svg>
