<svg width="40" height="41" viewBox="0 0 40 41" fill="none" xmlns="http://www.w3.org/2000/svg">
<path d="M31.4136 0.820312H8.5864C3.84426 0.820312 0 4.66458 0 9.40671V32.2339C0 36.9761 3.84426 40.8203 8.5864 40.8203H31.4136C36.1557 40.8203 40 36.9761 40 32.2339V9.40671C40 4.66458 36.1557 0.820312 31.4136 0.820312Z" fill="#AB9FF2" fill-opacity="0.2"/>
<path fill-rule="evenodd" clip-rule="evenodd" d="M17.2436 26.8131C15.673 29.2197 13.0412 32.2653 9.53926 32.2653C7.88379 32.2653 6.29199 31.5838 6.29199 28.6234C6.29199 21.0841 16.5856 9.41309 26.1364 9.41309C31.5697 9.41309 33.7346 13.1827 33.7346 17.4635C33.7346 22.9583 30.1689 29.241 26.6245 29.241C25.4997 29.241 24.9478 28.6234 24.9478 27.6437C24.9478 27.3882 24.9903 27.1113 25.0752 26.8131C23.8654 28.879 21.5308 30.7957 19.3447 30.7957C17.7529 30.7957 16.9464 29.7948 16.9464 28.3891C16.9464 27.878 17.0525 27.3456 17.2436 26.8131ZM30.1484 17.315C30.1484 18.5624 29.4124 19.1861 28.5891 19.1861C27.7534 19.1861 27.0299 18.5624 27.0299 17.315C27.0299 16.0676 27.7534 15.4439 28.5891 15.4439C29.4124 15.4439 30.1484 16.0676 30.1484 17.315ZM25.4706 17.315C25.4706 18.5624 24.7347 19.1861 23.9114 19.1861C23.0757 19.1861 22.3522 18.5624 22.3522 17.315C22.3522 16.0676 23.0757 15.444 23.9114 15.444C24.7347 15.444 25.4706 16.0676 25.4706 17.315Z" fill="#FFFDF8"/>
</svg>
