<svg width="16" height="17" viewBox="0 0 16 17" fill="none" xmlns="http://www.w3.org/2000/svg">
<path d="M6.35575 6.00307C6.58555 5.60105 6.76672 5.16084 6.81462 4.67623C6.83012 4.52052 6.82625 4.3554 6.82245 4.19386L6.82144 4.14982L7.6754 4.05273V14.4452C6.26579 14.2875 5.11882 13.7712 4.43302 12.4857C4.12482 11.9083 4.07752 11.2776 4.16773 10.6137C4.2933 9.6864 4.67572 8.84696 5.15641 8.028C5.31544 7.7569 5.47858 7.48476 5.64225 7.21173C5.88269 6.81063 6.12433 6.40755 6.35575 6.00307Z" fill="white"/>
<path d="M9.639 6.00307C9.40919 5.60105 9.22802 5.16084 9.18013 4.67623C9.16463 4.52052 9.1685 4.3554 9.1723 4.19386L9.17331 4.14982L8.31934 4.05273V14.4452C9.72895 14.2875 10.8759 13.7712 11.5617 12.4857C11.8699 11.9083 11.9172 11.2776 11.8271 10.6137C11.7015 9.6864 11.319 8.84696 10.8383 8.028C10.6793 7.7569 10.5162 7.48476 10.3525 7.21173C10.112 6.81063 9.87042 6.40755 9.639 6.00307Z" fill="white"/>
<path d="M3.60195 12.6207C3.32695 11.957 3.26258 11.246 3.36488 10.5005C3.4806 9.68463 3.74852 8.89622 4.15482 8.17686C4.41511 7.70802 4.69304 7.24582 4.96911 6.78674C5.10908 6.55399 5.24856 6.32203 5.38503 6.09042C5.62436 5.68386 5.84011 5.28778 5.95681 4.85346C6.00386 4.67751 6.03093 4.5078 6.0228 4.33496C4.24552 4.84609 2.83704 5.85951 1.79107 7.37952C1.78284 7.39334 1.77764 7.40872 1.77576 7.42465L1.77542 7.42763C1.70899 7.9246 1.70897 8.42804 1.7754 8.925C1.96842 10.3878 2.57903 11.6153 3.60195 12.6207Z" fill="white"/>
<path d="M12.3978 12.6207C12.6728 11.957 12.7372 11.246 12.6349 10.5005C12.5191 9.68463 12.2513 8.89622 11.845 8.17686C11.5847 7.70802 11.3067 7.24582 11.0307 6.78674C10.8907 6.55399 10.7512 6.32203 10.6148 6.09042C10.3754 5.68386 10.1597 5.28778 10.043 4.85346C9.99593 4.67751 9.96892 4.5078 9.97701 4.33496C11.7542 4.84609 13.1627 5.85951 14.2087 7.37952C14.2169 7.39334 14.2222 7.40872 14.2241 7.42465L14.2244 7.42763C14.2908 7.9246 14.2908 8.42804 14.2244 8.925C14.0314 10.3878 13.4208 11.6153 12.3978 12.6207Z" fill="white"/>
<path d="M4.66533 2.91789C5.08812 3.05716 5.45148 3.24078 5.72186 3.56165C5.72673 3.56749 5.73152 3.57338 5.73626 3.57935C4.4393 3.96054 3.30682 4.60092 2.34082 5.49938C2.36873 5.43945 2.39762 5.37992 2.42796 5.32072C2.92205 4.35317 3.66246 3.52901 4.57619 2.92971L4.58073 2.92673L4.58507 2.9235C4.59499 2.91615 4.60665 2.91143 4.61895 2.90981C4.63124 2.90818 4.64375 2.90972 4.65527 2.91425L4.66025 2.91621L4.66533 2.91789Z" fill="white"/>
<path d="M11.3375 2.91789C10.9147 3.05716 10.5513 3.24078 10.281 3.56165C10.2761 3.56749 10.2713 3.57338 10.2666 3.57935C11.5635 3.96054 12.696 4.60092 13.662 5.49938C13.6341 5.43945 13.6052 5.37992 13.5748 5.32072C13.0807 4.35317 12.3404 3.52901 11.4266 2.92971L11.4221 2.92673L11.4178 2.9235C11.4079 2.91615 11.3962 2.91143 11.3839 2.90981C11.3715 2.90818 11.3591 2.90972 11.3475 2.91425L11.3426 2.91621L11.3375 2.91789Z" fill="white"/>
<path d="M6.76135 3.35492C6.69506 3.36658 6.63416 3.37716 6.57434 3.38453C6.33019 2.96995 5.97555 2.63208 5.55176 2.40616C6.22572 2.11481 6.94651 1.94183 7.68162 1.89551V3.25017L7.6129 3.25664C7.4071 3.27599 7.2003 3.29544 6.99481 3.31876C6.91588 3.32774 6.83836 3.34138 6.7673 3.35388L6.76135 3.35492Z" fill="white"/>
<path d="M9.23669 3.35492C9.30297 3.36658 9.36388 3.37716 9.4237 3.38453C9.66785 2.96995 10.0224 2.63208 10.4463 2.40616C9.77231 2.11481 9.05153 1.94183 8.31641 1.89551V3.25017L8.38514 3.25664C8.59094 3.27599 8.79773 3.29544 9.00323 3.31876C9.08216 3.32774 9.15968 3.34138 9.23074 3.35388L9.23669 3.35492Z" fill="white"/>
</svg>
