<svg width="23" height="17" viewBox="0 0 23 17" fill="none" xmlns="http://www.w3.org/2000/svg">
<path d="M12.7812 2.02637C12.7812 1.65341 12.6331 1.29572 12.3694 1.032C12.1056 0.768275 11.748 0.620117 11.375 0.620117C11.002 0.620117 10.6444 0.768275 10.3806 1.032C10.1169 1.29572 9.96875 1.65341 9.96875 2.02637C9.96875 2.39933 10.1169 2.75701 10.3806 3.02074C10.6444 3.28446 11.002 3.43262 11.375 3.43262C11.748 3.43262 12.1056 3.28446 12.3694 3.02074C12.6331 2.75701 12.7812 2.39933 12.7812 2.02637ZM5.1875 6.80762C5.56046 6.80762 5.91815 6.65946 6.18187 6.39574C6.44559 6.13201 6.59375 5.77433 6.59375 5.40137C6.59375 5.02841 6.44559 4.67072 6.18187 4.407C5.91815 4.14328 5.56046 3.99512 5.1875 3.99512C4.81454 3.99512 4.45685 4.14328 4.19313 4.407C3.92941 4.67072 3.78125 5.02841 3.78125 5.40137C3.78125 5.77433 3.92941 6.13201 4.19313 6.39574C4.45685 6.65946 4.81454 6.80762 5.1875 6.80762ZM1.25 14.1201C0.627734 14.1201 0.125 14.6229 0.125 15.2451C0.125 15.8674 0.627734 16.3701 1.25 16.3701H21.5C22.1223 16.3701 22.625 15.8674 22.625 15.2451C22.625 14.6229 22.1223 14.1201 21.5 14.1201H1.25ZM17.5625 6.80762C17.9355 6.80762 18.2931 6.65946 18.5569 6.39574C18.8206 6.13201 18.9688 5.77433 18.9688 5.40137C18.9688 5.02841 18.8206 4.67072 18.5569 4.407C18.2931 4.14328 17.9355 3.99512 17.5625 3.99512C17.1895 3.99512 16.8319 4.14328 16.5681 4.407C16.3044 4.67072 16.1562 5.02841 16.1562 5.40137C16.1562 5.77433 16.3044 6.13201 16.5681 6.39574C16.8319 6.65946 17.1895 6.80762 17.5625 6.80762ZM7.15625 10.5166L8.10195 12.2709C8.32344 12.6822 8.8332 12.8334 9.24453 12.6154C9.65586 12.3975 9.80703 11.8842 9.58906 11.4729L8.31289 9.0998C8.37266 9.04004 8.42539 8.97324 8.46406 8.8959L9.40625 7.1416V9.05762C9.40625 9.67988 9.90898 10.1826 10.5312 10.1826H12.2188C12.841 10.1826 13.3438 9.67988 13.3438 9.05762V7.1416L14.2895 8.8959C14.3316 8.97324 14.3809 9.04004 14.4406 9.0998L13.1645 11.4729C12.943 11.8842 13.0977 12.3939 13.509 12.6154C13.9203 12.8369 14.4301 12.6822 14.6516 12.2709L15.5938 10.5166V11.8701C15.5938 12.4924 16.0965 12.9951 16.7188 12.9951H18.4062C19.0285 12.9951 19.5312 12.4924 19.5312 11.8701V10.5166L20.477 12.2709C20.6984 12.6822 21.2082 12.8334 21.6195 12.6154C22.0309 12.3975 22.182 11.8842 21.9641 11.4729L20.6316 9.00137C20.0938 7.99941 19.0461 7.37363 17.907 7.37363H17.218C16.6449 7.37363 16.0965 7.53184 15.6219 7.8166L14.4406 5.62637C13.9027 4.62441 12.8551 3.99863 11.716 3.99863H11.0305C9.89141 3.99863 8.84727 4.62441 8.30586 5.62637L7.12461 7.8166C6.65 7.53184 6.10156 7.37363 5.52852 7.37363H4.84297C3.70391 7.37363 2.65977 7.99941 2.11836 9.00137L0.789453 11.4693C0.567969 11.8807 0.722656 12.3904 1.13398 12.6119C1.54531 12.8334 2.05508 12.6787 2.27656 12.2674L3.21875 10.5166V11.8701C3.21875 12.4924 3.72148 12.9951 4.34375 12.9951H6.03125C6.65352 12.9951 7.15625 12.4924 7.15625 11.8701V10.5166Z" fill="black"/>
</svg>
