<svg width="8" height="8" viewBox="0 0 8 8" fill="none" xmlns="http://www.w3.org/2000/svg">
<path fill-rule="evenodd" clip-rule="evenodd" d="M6.7126 1.5932H0.618314C0.449817 1.57985 0.293362 1.50718 0.181923 1.39041C0.0992025 1.33146 0.0433898 1.24636 0.0252862 1.15165C0.0146713 0.805634 0.447627 0.566406 0.839188 0.566406H5.87352C6.09586 0.567035 6.30892 0.648345 6.46613 0.792624C6.62333 0.936903 6.71192 1.13246 6.7126 1.3365V1.5932ZM6.99216 2.10662H0.559372C0.411038 2.10662 0.268754 2.05254 0.163816 1.95627C0.0589329 1.85995 0 1.72936 0 1.59322V6.47051C0 6.67477 0.0884009 6.87063 0.245723 7.01508C0.403112 7.15948 0.616491 7.24059 0.839059 7.24059H6.99216C7.21471 7.24059 7.42808 7.15948 7.5855 7.01508C7.7428 6.87063 7.83121 6.67477 7.83121 6.47051V5.7004H6.43278C6.03312 5.7004 5.66376 5.50468 5.46395 5.18702C5.2641 4.86934 5.2641 4.47787 5.46395 4.16021C5.66376 3.84256 6.03312 3.64681 6.43278 3.64681H7.83121V2.87673C7.83121 2.67244 7.7428 2.47661 7.5855 2.33215C7.42811 2.18776 7.21471 2.10662 6.99216 2.10662ZM5.87408 4.67367C5.87408 4.80982 5.93299 4.9404 6.03789 5.03673C6.14281 5.13298 6.28512 5.18708 6.43343 5.18708H7.83188V4.16027H6.43343C6.28509 4.16027 6.14281 4.21437 6.03789 4.31062C5.93299 4.40695 5.87408 4.53753 5.87408 4.67367Z" fill="white" fill-opacity="0.25"/>
</svg>
