<svg width="32" height="36" viewBox="0 0 32 36" fill="none" xmlns="http://www.w3.org/2000/svg">
<path d="M14.3571 0.723828C15.3786 0.175391 16.6143 0.175391 17.6429 0.723828L30.1643 7.45273C30.5286 7.64961 30.7571 8.0293 30.7571 8.43711C30.7571 8.84492 30.5286 9.22461 30.1643 9.42148L16.55 16.734C16.2071 16.9168 15.8 16.9168 15.4571 16.734L1.83571 9.42148C1.47143 9.22461 1.24286 8.84492 1.24286 8.43711C1.24286 8.0293 1.47143 7.64961 1.83571 7.45273L14.3571 0.723828ZM1.69286 11.9527L14.2643 18.7027C14.6286 18.8996 14.8571 19.2793 14.8571 19.6871V34.8746C14.8571 35.2684 14.6429 35.641 14.3 35.8449C13.9571 36.0488 13.5214 36.0559 13.1714 35.866L1.78571 29.7488C0.685714 29.1582 0 28.0262 0 26.7887V12.9371C0 12.5434 0.214286 12.1707 0.557143 11.9668C0.9 11.7629 1.33571 11.7559 1.68571 11.9457L1.69286 11.9527ZM30.3143 11.9527C30.6714 11.7629 31.1 11.7699 31.4429 11.9738C31.7857 12.1777 32 12.5434 32 12.9441V26.7887C32 28.0262 31.3143 29.1582 30.2143 29.7488L18.8357 35.859C18.4786 36.0488 18.05 36.0418 17.7071 35.8379C17.3643 35.634 17.15 35.2684 17.15 34.8676V19.6871C17.15 19.2723 17.3786 18.8996 17.7429 18.7027L30.3143 11.9527Z" fill="#B1B6C6"/>
</svg>
