<svg width="56" height="47" viewBox="0 0 56 47" fill="none" xmlns="http://www.w3.org/2000/svg">
<path d="M44.9374 17.068C47.4739 22.7919 49.9311 28.138 52.2468 33.5417C53.9921 37.6146 52.3791 41.28 47.9269 42.2215C34.2828 45.1067 20.513 44.7296 6.86139 42.3939C1.30833 41.4438 -0.288238 36.466 2.79347 31.7234C3.71453 30.3059 5.16731 29.1662 5.8576 27.6713C6.54779 26.1767 6.58859 24.3969 6.93922 22.6141C15.9724 20.7709 25.0934 19.0638 27.5528 7.87779C31.215 8.66183 34.717 9.41157 38.444 10.2095C39.0163 8.80949 40.164 5.74642 41.0664 4.94756C42.8405 3.37702 43.9659 2.87833 46.0835 2.6896C47.6189 2.55274 50.5714 4.86654 50.7866 6.37356C52.2664 11.1318 51.0219 12.3686 49.1553 13.6055C48.3392 15.0541 46.0631 15.5073 44.9374 17.068Z" fill="#14202D"/>
<path d="M9.88212 0.0170326C6.25421 0.301647 3.14343 2.63654 1.98122 5.94386C1.52007 7.25098 1.37079 8.566 1.52806 9.91001C1.86127 12.7245 3.52462 15.3757 5.96366 16.9727C6.35017 17.2257 6.78201 17.476 7.01125 17.5814C7.06456 17.6078 7.10988 17.6368 7.10988 17.6447C7.10988 17.6552 6.98992 17.9056 6.84598 18.2007C5.58781 20.7622 4.8521 23.5636 4.64418 26.5652L4.62552 26.8261L4.43359 26.9974C1.99988 29.1874 0.549781 31.7515 0.125947 34.6029C-0.108627 36.1868 -0.012665 37.8154 0.389844 39.1805C0.776359 40.4823 1.42411 41.5444 2.42371 42.5115C3.18075 43.2468 4.01776 43.8134 5.14265 44.3536C8.16813 45.8057 12.5238 46.5778 19.2784 46.8572C23.7674 47.0416 31.7775 47.0495 36.4184 46.8703C45.023 46.5383 50.0344 45.3867 52.9719 43.0597C53.3504 42.7592 53.9555 42.161 54.2381 41.8105C55.1284 40.7011 55.6855 39.3834 55.9014 37.8707C56.04 36.9062 56.032 35.6307 55.8801 34.5898C55.6349 32.9005 54.9711 31.2192 53.9608 29.7276C53.3984 28.8922 52.9106 28.3177 52.0523 27.4744L51.3699 26.7998L51.3352 26.3807C51.114 23.4608 50.3703 20.7069 49.0908 18.069C48.9735 17.8318 48.8828 17.6341 48.8855 17.6315C48.8908 17.6289 49.0374 17.5524 49.2134 17.4602C51.1086 16.4772 52.732 14.7774 53.6383 12.822C54.2754 11.4438 54.5633 10.0813 54.5233 8.63189C54.5046 8.05475 54.4647 7.68581 54.3554 7.14557C53.5823 3.31645 50.3889 0.478214 46.3612 0.0354805C45.972 -0.00668335 44.9457 -0.00668335 44.5619 0.0381165C42.7759 0.2384 41.2112 0.878784 39.8437 1.97507C39.5745 2.18853 38.9534 2.79202 38.7002 3.08454C38.0178 3.86723 37.4447 4.81331 37.0448 5.8121C36.9249 6.10989 36.7463 6.65012 36.6823 6.89785L36.6396 7.07178L36.1865 6.91629C31.8842 5.43525 26.8835 5.17962 22.3306 6.21003C21.4776 6.4024 20.4087 6.7081 19.673 6.969L19.3744 7.07441L19.3451 6.96373C19.1638 6.2601 18.8146 5.38781 18.4574 4.73161C18.2415 4.33895 17.7857 3.66168 17.4898 3.29537C17.0207 2.71824 16.2743 2.02778 15.6265 1.57714C14.4483 0.757557 13.0329 0.225224 11.5641 0.0539284C11.1403 0.00385666 10.282 -0.0172272 9.88212 0.0170326ZM46.4571 3.38497C48.2884 3.71438 49.8611 4.87128 50.6422 6.46038C51.4125 8.03103 51.3779 9.8863 50.5462 11.5439C50.1383 12.3635 49.7305 12.9011 49.0294 13.552C48.2244 14.3005 47.2701 14.817 46.1506 15.1121C45.7028 15.2307 45.5002 15.3388 45.2416 15.5997C44.9937 15.8447 44.8844 16.0371 44.7991 16.3797C44.6845 16.8277 44.7671 17.2415 45.071 17.729C45.8174 18.9386 46.3692 20.0296 46.7797 21.1101C47.3208 22.5332 47.7153 24.1328 47.9046 25.6692C47.9712 26.2121 48.0005 26.5441 48.0405 27.2372C48.0991 28.3124 48.1844 28.4943 48.9255 29.1083C49.6212 29.6854 50.3303 30.4181 50.8234 31.0716C52.1002 32.7556 52.7267 34.6372 52.6574 36.5662C52.6147 37.7126 52.3508 38.6033 51.815 39.3887C50.5968 41.1807 48.0378 42.277 43.5623 42.9279C41.0273 43.2942 38.1804 43.4971 33.6328 43.6315C32.1534 43.6737 25.7959 43.6921 23.9166 43.6579C19.2438 43.5736 16.1117 43.3917 13.3474 43.0465C7.59236 42.3323 4.66817 40.9461 3.71121 38.4769C3.53261 38.013 3.44198 37.6177 3.37534 37.0143C3.33536 36.6559 3.35935 35.5965 3.41799 35.1959C3.61258 33.8176 4.13771 32.5289 4.99071 31.322C5.56382 30.5156 6.22223 29.8198 7.1312 29.0582C7.3018 28.9159 7.47507 28.7631 7.51239 28.7235C7.70698 28.5154 7.88824 28.1201 7.92023 27.8433C7.92822 27.7643 7.94955 27.456 7.96288 27.1582C7.9922 26.581 8.04284 25.996 8.10949 25.4847C8.22411 24.6124 8.47468 23.3791 8.6746 22.7256L8.7439 22.4989L9.02646 22.4831C10.0047 22.4251 10.3113 22.4041 10.8951 22.3461C19.0385 21.5449 25.6306 17.5972 27.3793 12.4715C27.7365 11.4253 27.9017 10.2315 27.8191 9.31179C27.7844 8.92177 27.7844 8.89805 27.8271 8.88487C27.9577 8.85325 29.5677 8.93494 30.3941 9.01664C32.6146 9.23537 34.9363 9.85994 36.9622 10.7797C37.4793 11.0142 37.6286 11.0616 37.9138 11.0775C38.5829 11.1117 39.204 10.7612 39.4919 10.1841C39.6358 9.89684 39.6545 9.80987 39.6838 9.29071C39.7158 8.76365 39.7717 8.34464 39.8597 7.96251C40.1663 6.63695 40.8966 5.42207 41.8829 4.60512C42.7039 3.92257 43.7142 3.48248 44.7911 3.33753C45.119 3.29273 46.1053 3.32172 46.4571 3.38497Z" fill="#CC031A"/>
<path d="M20.1151 23.8504C19.3234 24.0269 18.7316 24.5645 18.4997 25.3261C18.4357 25.5317 18.4277 25.6081 18.4277 25.9059C18.4277 26.2037 18.4357 26.2801 18.4997 26.4857C18.5903 26.7782 18.721 27.0233 18.8995 27.2315C19.1954 27.5741 19.518 27.7849 19.9418 27.9114C20.1497 27.9746 20.227 27.9825 20.5282 27.9825C20.8295 27.9825 20.9068 27.9746 21.1147 27.9114C21.8397 27.6953 22.3809 27.1471 22.5834 26.4198C22.6581 26.1589 22.6527 25.6292 22.5728 25.3578C22.3622 24.6331 21.8211 24.0955 21.096 23.8873C20.8401 23.8161 20.3576 23.7977 20.1151 23.8504Z" fill="#CC031A"/>
<path d="M35.1139 23.8382C34.6847 23.9172 34.3088 24.1149 33.9783 24.4416C33.5838 24.8317 33.3999 25.2428 33.3759 25.7909C33.3572 26.1493 33.3919 26.3733 33.5038 26.6606C33.7597 27.3168 34.3488 27.8069 35.0579 27.9519C35.1912 27.9782 35.3778 28.002 35.4737 28.002C36.3214 28.002 37.1371 27.4459 37.4436 26.6606C37.5556 26.3733 37.5902 26.1493 37.5716 25.7909C37.5476 25.2428 37.3636 24.8317 36.9691 24.4416C36.556 24.0332 36.1161 23.8408 35.5537 23.825C35.3857 23.8197 35.1885 23.825 35.1139 23.8382Z" fill="#CC031A"/>
<path d="M25.2221 32.6187C25.0835 32.7373 25.0808 33.0773 25.2115 33.4647C25.4087 34.0497 25.9925 34.6558 26.6669 34.9695L26.8295 35.0459L26.7149 35.1855C26.6509 35.262 26.5549 35.4043 26.5016 35.5044C26.2484 35.963 26.1444 36.1105 25.9285 36.3293C25.4727 36.7878 24.9289 37.0145 24.2891 37.0145C23.9959 37.0145 23.7427 36.9565 23.4895 36.8326C23.2202 36.7009 23.0576 36.5401 22.903 36.2634C22.6391 35.7838 22.3113 35.515 21.8181 35.3806C21.1384 35.1935 20.3813 35.486 19.9868 36.0895C19.6643 36.5823 19.6456 37.22 19.9335 37.784C20.3733 38.6457 21.0771 39.3335 21.9781 39.7789C22.6098 40.0925 23.2096 40.2506 23.9799 40.3112C25.2914 40.414 26.7255 39.9634 27.7838 39.1174L27.9997 38.9461L28.1969 39.1016C29.6044 40.2137 31.457 40.6011 33.123 40.1268C34.4345 39.7526 35.4608 38.9461 36.0419 37.834C36.2045 37.5231 36.2711 37.2727 36.2711 36.9749C36.2711 36.5085 36.1192 36.1501 35.778 35.8128C35.4181 35.4596 35.0343 35.312 34.5251 35.3358C33.9174 35.3647 33.4189 35.6836 33.123 36.2318C32.8351 36.7667 32.3607 37.0145 31.6276 37.0145C31.2784 37.0145 31.0678 36.9723 30.7933 36.8458C30.2655 36.6033 29.9189 36.2581 29.5671 35.6177C29.4844 35.4649 29.3645 35.2751 29.3005 35.1935L29.1832 35.0459L29.3218 34.9826C29.7537 34.785 30.2735 34.3449 30.5374 33.9549C30.8332 33.52 30.9665 32.9851 30.8466 32.7057C30.7586 32.4923 30.5907 32.5239 29.7937 32.9034C28.8447 33.354 28.3142 33.4831 27.6958 33.4067C27.2453 33.3514 26.9041 33.2354 26.0991 32.8559C25.4327 32.5423 25.3421 32.5186 25.2221 32.6187Z" fill="#CC031A"/>
</svg>
