<svg width="46" height="25" viewBox="0 0 46 25" fill="none" xmlns="http://www.w3.org/2000/svg">
<rect y="0.000244141" width="46" height="25" rx="1" fill="#CC031A" fill-opacity="0.2"/>
<path d="M10.106 6.90024H15.332L14.552 9.13624H11.25V13.7642H15.332L14.552 16.0002H10.106C9.183 16.0002 8.52 15.3372 8.52 14.4142V8.48624C8.52 7.56324 9.183 6.90024 10.106 6.90024ZM21.7798 13.1272L23.0538 16.0002H20.1548L19.2058 13.5822H18.6078V16.0002H16.1378V6.64024H18.6078V11.4632H19.2058L20.1288 9.17524H22.9238L21.6368 11.7882C21.4288 12.1912 21.3248 12.3992 20.9738 12.5032C21.3248 12.5682 21.5978 12.7242 21.7798 13.1272ZM25.9136 14.1542H27.2916V13.2962H25.9136V14.1542ZM23.5736 14.4012V13.5172C23.5736 12.6462 24.3016 11.9182 25.1726 11.9182H27.2916V11.1512H23.5736L24.3536 9.17524H28.1626C29.0336 9.17524 29.7616 9.90324 29.7616 10.7742V16.0002H25.1726C24.3016 16.0002 23.5736 15.2722 23.5736 14.4012ZM37.3783 9.17524V16.8972C37.3783 17.7682 36.6503 18.4962 35.7793 18.4962H30.6183L31.3463 16.6502H34.9083V15.8702H32.3993C31.5283 15.8702 30.8003 15.1422 30.8003 14.2712V9.17524H33.2703V13.8942H34.9083V9.17524H37.3783Z" fill="#CC031A"/>
</svg>
