<svg width="13" height="13" viewBox="0 0 13 13" fill="none" xmlns="http://www.w3.org/2000/svg">
<path d="M6.875 0.839844H9.78359C10.0813 0.839844 10.3672 0.959375 10.5781 1.17031L12.1695 2.76172C12.3805 2.97266 12.5 3.25859 12.5 3.55625V8.71484C12.5 9.33594 11.9961 9.83984 11.375 9.83984H6.875C6.25391 9.83984 5.75 9.33594 5.75 8.71484V1.96484C5.75 1.34375 6.25391 0.839844 6.875 0.839844ZM1.625 3.83984H5V5.33984H2V11.3398H6.5V10.5898H8V11.7148C8 12.3359 7.49609 12.8398 6.875 12.8398H1.625C1.00391 12.8398 0.5 12.3359 0.5 11.7148V4.96484C0.5 4.34375 1.00391 3.83984 1.625 3.83984Z" fill="#B1B6C6"/>
</svg>
