<svg width="24" height="24" viewBox="0 0 24 24" fill="none" xmlns="http://www.w3.org/2000/svg">
<rect width="24" height="24" fill="#F5F5F5"/>
<g id="Sedona Rooms - Light Mode">
<path d="M-1459 -573C-1459 -574.105 -1458.1 -575 -1457 -575H13820C13821.1 -575 13822 -574.105 13822 -573V1685C13822 1686.1 13821.1 1687 13820 1687H-1457C-1458.1 1687 -1459 1686.1 -1459 1685V-573Z" fill="#404040"/>
<path d="M-1457 -574H13820V-576H-1457V-574ZM13821 -573V1685H13823V-573H13821ZM13820 1686H-1457V1688H13820V1686ZM-1458 1685V-573H-1460V1685H-1458ZM-1457 1686C-1457.55 1686 -1458 1685.55 -1458 1685H-1460C-1460 1686.66 -1458.66 1688 -1457 1688V1686ZM13821 1685C13821 1685.55 13820.6 1686 13820 1686V1688C13821.7 1688 13823 1686.66 13823 1685H13821ZM13820 -574C13820.6 -574 13821 -573.552 13821 -573H13823C13823 -574.657 13821.7 -576 13820 -576V-574ZM-1457 -576C-1458.66 -576 -1460 -574.657 -1460 -573H-1458C-1458 -573.552 -1457.55 -574 -1457 -574V-576Z" fill="black" fill-opacity="0.1"/>
<g id="Frame">
<rect width="1440" height="1170" transform="translate(-828 -29)" fill="#1C2936"/>
<g id="div.flex">
<g id="div.flex_2">
<rect width="1440" height="80" transform="translate(-828 -29)" fill="black" fill-opacity="0.35"/>
<g id="socials">
<g id="Socials link">
<path id="Rectangle 8" d="M-14 11C-14 -0.313707 -14 -5.97056 -10.4853 -9.48528C-6.97056 -13 -1.31371 -13 10 -13H13C24.3137 -13 29.9706 -13 33.4853 -9.48528C37 -5.97056 37 -0.313708 37 11V13C37 24.3137 37 29.9706 33.4853 33.4853C29.9706 37 24.3137 37 13 37H10C-1.31371 37 -6.97056 37 -10.4853 33.4853C-14 29.9706 -14 24.3137 -14 13V11Z" fill="#121D28"/>
<g id="mingcute:twitter-fill" clip-path="url(#clip0_0_1)">
<g id="ic:outline-discord">
<path id="Vector" d="M19.2682 5.32998C17.9382 4.70998 16.4982 4.25998 14.9982 3.99998C14.985 3.99956 14.9719 4.00203 14.9598 4.00722C14.9477 4.0124 14.9369 4.02017 14.9282 4.02999C14.7482 4.35999 14.5382 4.78998 14.3982 5.11998C12.8072 4.87998 11.1892 4.87998 9.59816 5.11998C9.45816 4.77998 9.24816 4.35999 9.05816 4.02999C9.04816 4.00999 9.01816 3.99998 8.98816 3.99998C7.48816 4.25998 6.05816 4.70998 4.71816 5.32998C4.70816 5.32998 4.69816 5.33998 4.68816 5.34998C1.96816 9.41998 1.21816 13.38 1.58816 17.3C1.58816 17.32 1.59816 17.34 1.61816 17.35C3.41816 18.67 5.14816 19.47 6.85816 20C6.88816 20.01 6.91816 20 6.92816 19.98C7.32816 19.43 7.68816 18.85 7.99816 18.24C8.01816 18.2 7.99816 18.16 7.95816 18.15C7.38816 17.93 6.84816 17.67 6.31816 17.37C6.27816 17.35 6.27816 17.29 6.30816 17.26C6.41816 17.18 6.52816 17.09 6.63816 17.01C6.65816 16.99 6.68816 16.99 6.70816 17C10.1482 18.57 13.8582 18.57 17.2582 17C17.2782 16.99 17.3082 16.99 17.3282 17.01C17.4382 17.1 17.5482 17.18 17.6582 17.27C17.6982 17.3 17.6982 17.36 17.6482 17.38C17.1282 17.69 16.5782 17.94 16.0082 18.16C15.9682 18.17 15.9582 18.22 15.9682 18.25C16.2882 18.86 16.6482 19.44 17.0382 19.99C17.0682 20 17.0982 20.01 17.1282 20C18.8482 19.47 20.5782 18.67 22.3782 17.35C22.3982 17.34 22.4082 17.32 22.4082 17.3C22.8482 12.77 21.6782 8.83998 19.3082 5.34998C19.2982 5.33998 19.2882 5.32998 19.2682 5.32998ZM8.51816 14.91C7.48816 14.91 6.62816 13.96 6.62816 12.79C6.62816 11.62 7.46816 10.67 8.51816 10.67C9.57817 10.67 10.4182 11.63 10.4082 12.79C10.4082 13.96 9.56816 14.91 8.51816 14.91ZM15.4882 14.91C14.4582 14.91 13.5982 13.96 13.5982 12.79C13.5982 11.62 14.4382 10.67 15.4882 10.67C16.5482 10.67 17.3882 11.63 17.3782 12.79C17.3782 13.96 16.5482 14.91 15.4882 14.91Z" fill="url(#paint0_linear_0_1)"/>
</g>
</g>
</g>
</g>
</g>
</g>
</g>
</g>
<defs>
<linearGradient id="paint0_linear_0_1" x1="11.9997" y1="3.99994" x2="11.9997" y2="20.0041" gradientUnits="userSpaceOnUse">
<stop stop-color="#4EAF90"/>
<stop offset="1" stop-color="#B2D5B2"/>
</linearGradient>
<clipPath id="clip0_0_1">
<rect width="24" height="24" fill="white"/>
</clipPath>
</defs>
</svg>
