<svg width="30" height="31" viewBox="0 0 30 31" fill="none" xmlns="http://www.w3.org/2000/svg">
<g clip-path="url(#clip0_179_12754)">
<path d="M2.23892 15.4821C2.23892 22.0059 7.56319 27.3127 14.1081 27.3127C18.1776 27.3127 21.7742 25.2606 23.9117 22.1406H26.5402C25.8952 23.3334 25.0715 24.4397 24.0839 25.4241C21.4188 28.0807 17.8768 29.543 14.1081 29.543C10.3393 29.543 6.79594 28.0807 4.13223 25.4241C1.4669 22.7691 0 19.237 0 15.4805C0 11.724 1.4669 8.19352 4.13223 5.53684C6.79758 2.88018 10.3393 1.41797 14.1081 1.41797C17.8768 1.41797 21.4204 2.88018 24.0855 5.53844C25.3114 6.76177 26.286 8.16942 26.9776 9.70059H24.4604C22.4256 6.09316 18.5475 3.65137 14.1081 3.65137C7.56319 3.65137 2.23892 8.95823 2.23892 15.4821Z" fill="white"/>
<path fill-rule="evenodd" clip-rule="evenodd" d="M13.3873 15.7438C12.1984 16.289 11.5713 17.0906 11.5713 18.4518V18.4838C11.5713 20.4382 13.4193 21.7209 15.9109 21.7209C18.4025 21.7209 20.2507 20.5024 20.2507 18.4197V18.3877C20.2507 17.0569 19.5767 16.3371 18.4345 15.7438C19.3015 15.2147 19.8646 14.4933 19.8646 13.2924V13.2603C19.8646 11.5304 18.2899 10.1836 15.9109 10.1836C13.5319 10.1836 11.9572 11.5464 11.9572 13.2603V13.2924C11.9572 14.4949 12.5186 15.2147 13.3873 15.7438ZM15.9109 16.8822C17.0352 16.8822 17.8557 17.3936 17.8557 18.2594V18.2915C17.8557 19.0771 17.1334 19.6863 15.9109 19.6847C14.6901 19.6847 13.9663 19.0611 13.9663 18.2915V18.2594C13.9663 17.3952 14.785 16.8822 15.9109 16.8822ZM15.9109 12.2198C16.9228 12.2198 17.5179 12.8435 17.5179 13.5329V13.565C17.5179 14.3505 16.8921 14.9277 15.9109 14.9261C14.9313 14.9261 14.3041 14.3345 14.3041 13.5489V13.5169C14.3041 12.829 14.8976 12.2198 15.9109 12.2198Z" fill="white"/>
<path d="M4.96496 13.2452L6.92579 12.7642V21.5599H9.3691V10.2646H7.68179L4.4502 11.2267L4.96496 13.2452Z" fill="white"/>
<path d="M24.8082 17.0259H21.8984V14.815H24.8082V11.9307H27.0906V14.815H30.0004V17.0259H27.0906V19.9102H24.8082V17.0259Z" fill="white"/>
</g>
<defs>
<clipPath id="clip0_179_12754">
<rect width="30" height="28.125" fill="white" transform="translate(0 1.41797)"/>
</clipPath>
</defs>
</svg>
