<svg width="45" height="38" viewBox="0 0 45 38" fill="none" xmlns="http://www.w3.org/2000/svg">
<g id="Group 101153">
<g id="Vector">
<path d="M36.1106 13.7995C38.1489 18.4273 40.1235 22.7497 41.9842 27.1187C43.3868 30.4117 42.0906 33.3752 38.5129 34.1364C27.5489 36.4691 16.4839 36.1642 5.51387 34.2757C1.05158 33.5076 -0.231376 29.483 2.245 25.6485C2.98513 24.5025 4.15255 23.581 4.70724 22.3724C5.26186 21.164 5.29464 19.725 5.5764 18.2836C12.8352 16.7933 20.1646 15.4132 22.1409 6.36912C25.0837 7.00303 27.8978 7.6092 30.8927 8.25432C31.3526 7.12241 32.2749 4.64589 33 4C34.4257 2.7302 35.33 2.327 37.0316 2.17441C38.2655 2.06377 40.638 3.9345 40.8109 5.15293C42 9 41 10 39.5 11C38.8442 12.1713 37.0152 12.5377 36.1106 13.7995Z" fill="#E3E3E4"/>
</g>
<g id="Group">
<path id="Vector_2" d="M7.94099 0.0135765C5.02571 0.24369 2.52597 2.13147 1.59205 4.80548C1.22148 5.8623 1.10153 6.92551 1.22791 8.01215C1.49566 10.2877 2.83228 12.4312 4.79223 13.7224C5.10282 13.9269 5.44983 14.1293 5.63404 14.2146C5.67688 14.2359 5.71329 14.2593 5.71329 14.2657C5.71329 14.2742 5.6169 14.4766 5.50124 14.7153C4.4902 16.7863 3.89901 19.0512 3.73193 21.4781L3.71693 21.689L3.56271 21.8275C1.60705 23.5981 0.441789 25.6712 0.101208 27.9766C-0.0872898 29.2572 -0.0101772 30.5739 0.313267 31.6776C0.62386 32.7302 1.14437 33.5889 1.94763 34.3708C2.55596 34.9653 3.22855 35.4234 4.13249 35.8602C6.56368 37.0342 10.0637 37.6585 15.4916 37.8843C19.0988 38.0335 25.5355 38.0399 29.2648 37.895C36.1792 37.6265 40.2062 36.6954 42.5667 34.814C42.8709 34.5711 43.3571 34.0874 43.5842 33.8041C44.2996 32.907 44.7473 31.8417 44.9208 30.6187C45.0322 29.8389 45.0257 28.8076 44.9037 27.966C44.7066 26.6002 44.1732 25.2409 43.3614 24.0349C42.9094 23.3595 42.5174 22.895 41.8277 22.2132L41.2794 21.6677L41.2515 21.3289C41.0737 18.9681 40.4761 16.7416 39.4479 14.6087C39.3537 14.417 39.2809 14.2572 39.283 14.2551C39.2873 14.2529 39.4051 14.1911 39.5465 14.1166C41.0694 13.3218 42.3739 11.9475 43.1022 10.3666C43.6142 9.25221 43.8455 8.15065 43.8134 6.97877C43.7984 6.51215 43.7662 6.21386 43.6784 5.77707C43.0572 2.68119 40.4911 0.386444 37.2545 0.0284882C36.9418 -0.00559998 36.1171 -0.00559998 35.8086 0.0306206C34.3735 0.192551 33.1161 0.710308 32.0173 1.59667C31.8009 1.76926 31.3018 2.25718 31.0984 2.49369C30.55 3.1265 30.0895 3.89141 29.7682 4.69894C29.6718 4.93971 29.5283 5.3765 29.4768 5.57678L29.4426 5.71741L29.0784 5.5917C25.6212 4.39426 21.6028 4.18758 17.9442 5.02068C17.2588 5.17622 16.3998 5.42337 15.8086 5.63431L15.5687 5.71954L15.5452 5.63005C15.3995 5.06116 15.1189 4.3559 14.8319 3.82536C14.6584 3.50789 14.2921 2.96031 14.0543 2.66414C13.6773 2.19753 13.0776 1.63929 12.557 1.27494C11.6103 0.612297 10.4729 0.1819 9.29261 0.0434036C8.95203 0.00292206 8.2623 -0.014122 7.94099 0.0135765ZM37.3316 2.73659C38.8032 3.00292 40.067 3.93829 40.6946 5.22309C41.3136 6.49298 41.2858 7.99298 40.6175 9.33318C40.2897 9.99582 39.962 10.4305 39.3987 10.9568C38.7518 11.5619 37.9849 11.9795 37.0853 12.2181C36.7254 12.314 36.5626 12.4014 36.3549 12.6123C36.1557 12.8104 36.0678 12.966 35.9993 13.243C35.9072 13.6052 35.9736 13.9397 36.2178 14.3339C36.8175 15.3119 37.2609 16.194 37.5908 17.0676C38.0256 18.2181 38.3427 19.5114 38.4947 20.7536C38.5483 21.1926 38.5718 21.461 38.604 22.0214C38.6511 22.8907 38.7196 23.0377 39.3151 23.5342C39.8742 24.0008 40.444 24.5931 40.8402 25.1215C41.8663 26.483 42.3696 28.0043 42.314 29.564C42.2797 30.4909 42.0676 31.211 41.6371 31.846C40.6582 33.2948 38.6018 34.1812 35.0054 34.7075C32.9683 35.0036 30.6807 35.1677 27.0264 35.2764C25.8376 35.3105 20.7288 35.3254 19.2187 35.2977C15.4638 35.2295 12.9469 35.0825 10.7256 34.8034C6.101 34.2259 3.75121 33.1052 2.98222 31.1087C2.83871 30.7337 2.76588 30.4141 2.71233 29.9262C2.6802 29.6364 2.69948 28.7799 2.7466 28.456C2.90297 27.3417 3.32494 26.2998 4.01039 25.3239C4.47092 24.672 5 24.1095 5.73043 23.4937C5.86752 23.3786 6.00675 23.2551 6.03674 23.2231C6.19311 23.0548 6.33876 22.7352 6.36447 22.5114C6.37089 22.4475 6.38803 22.1982 6.39874 21.9575C6.4223 21.4909 6.463 21.0178 6.51655 20.6045C6.60866 19.8992 6.81001 18.9021 6.97066 18.3737L7.02635 18.1904L7.25341 18.1776C8.03953 18.1308 8.28586 18.1137 8.75496 18.0668C15.2988 17.4191 20.596 14.2274 22.0012 10.0832C22.2882 9.2373 22.421 8.2721 22.3546 7.52849C22.3268 7.21315 22.3268 7.19397 22.3611 7.18332C22.466 7.15775 23.7598 7.2238 24.4238 7.28985C26.2081 7.4667 28.0738 7.97167 29.7018 8.71528C30.1173 8.90491 30.2373 8.94326 30.4665 8.95605C31.0041 8.98375 31.5032 8.70036 31.7345 8.23374C31.8502 8.0015 31.8652 7.93119 31.8888 7.51144C31.9145 7.08531 31.9594 6.74653 32.0301 6.43758C32.2765 5.36584 32.8634 4.3836 33.6559 3.72309C34.3157 3.17125 35.1275 2.81542 35.9929 2.69823C36.2563 2.66201 37.0489 2.68545 37.3316 2.73659Z" fill="#F14336"/>
<path id="Vector_3" d="M16.1645 19.2836C15.5283 19.4264 15.0528 19.861 14.8664 20.4768C14.815 20.643 14.8086 20.7048 14.8086 20.9455C14.8086 21.1863 14.815 21.2481 14.8664 21.4143C14.9393 21.6508 15.0442 21.8489 15.1877 22.0173C15.4255 22.2943 15.6847 22.4647 16.0253 22.567C16.1923 22.6181 16.2545 22.6245 16.4965 22.6245C16.7386 22.6245 16.8007 22.6181 16.9677 22.567C17.5504 22.3923 17.9852 21.9491 18.148 21.361C18.208 21.1501 18.2037 20.7218 18.1394 20.5024C17.9702 19.9164 17.5354 19.4818 16.9528 19.3134C16.7471 19.2559 16.3594 19.241 16.1645 19.2836Z" fill="#F14336"/>
<path id="Vector_4" d="M28.2168 19.273C27.872 19.337 27.57 19.4968 27.3043 19.761C26.9873 20.0763 26.8395 20.4087 26.8202 20.8519C26.8053 21.1417 26.8331 21.3228 26.9231 21.555C27.1287 22.0855 27.6021 22.4819 28.1719 22.599C28.279 22.6204 28.4289 22.6395 28.506 22.6395C29.1872 22.6395 29.8426 22.19 30.089 21.555C30.1789 21.3228 30.2068 21.1417 30.1918 20.8519C30.1725 20.4087 30.0247 20.0763 29.7077 19.761C29.3757 19.4307 29.0222 19.2752 28.5703 19.2624C28.4353 19.2581 28.2768 19.2624 28.2168 19.273Z" fill="#F14336"/>
<path id="Vector_5" d="M20.2684 26.3723C20.157 26.4681 20.1549 26.743 20.2598 27.0562C20.4183 27.5292 20.8874 28.0193 21.4294 28.2728L21.56 28.3346L21.4679 28.4475C21.4165 28.5093 21.3394 28.6244 21.2966 28.7054C21.0931 29.0761 21.0095 29.1954 20.836 29.3723C20.4697 29.743 20.0328 29.9262 19.5187 29.9262C19.2831 29.9262 19.0796 29.8794 18.8761 29.7792C18.6597 29.6727 18.5291 29.5427 18.4048 29.319C18.1928 28.9312 17.9293 28.7139 17.533 28.6052C16.9868 28.4539 16.3785 28.6904 16.0615 29.1784C15.8023 29.5768 15.7873 30.0924 16.0186 30.5484C16.3721 31.2451 16.9376 31.8012 17.6616 32.1613C18.1692 32.4149 18.6512 32.5427 19.2702 32.5917C20.3241 32.6748 21.4765 32.3105 22.3269 31.6265L22.5004 31.488L22.6589 31.6137C23.7899 32.5129 25.2786 32.8261 26.6173 32.4426C27.6712 32.14 28.4959 31.488 28.9628 30.5889C29.0935 30.3375 29.1471 30.135 29.1471 29.8943C29.1471 29.5171 29.025 29.2274 28.7508 28.9546C28.4616 28.6691 28.1532 28.5498 27.744 28.569C27.2557 28.5924 26.8551 28.8502 26.6173 29.2934C26.386 29.7259 26.0047 29.9262 25.4157 29.9262C25.1351 29.9262 24.9658 29.8921 24.7452 29.7899C24.3211 29.5938 24.0426 29.3147 23.7599 28.797C23.6935 28.6734 23.5971 28.52 23.5457 28.4539L23.4514 28.3346L23.5628 28.2835C23.9098 28.1237 24.3275 27.7679 24.5396 27.4525C24.7773 27.1009 24.8844 26.6684 24.7881 26.4426C24.7174 26.27 24.5824 26.2955 23.942 26.6024C23.1794 26.9667 22.7531 27.0711 22.2562 27.0093C21.8942 26.9646 21.62 26.8708 20.9731 26.564C20.4376 26.3105 20.3648 26.2913 20.2684 26.3723Z" fill="#F14336"/>
</g>
</g>
</svg>
