<svg width="277" height="50" viewBox="0 0 277 50" fill="none" xmlns="http://www.w3.org/2000/svg">
<rect x="0.5" y="0.5" width="276" height="49" rx="4.5" fill="#805BEB" fill-opacity="0.15"/>
<rect x="0.5" y="0.5" width="276" height="49" rx="4.5" stroke="#3637AD"/>
<path d="M53.5 15.625C52.9809 15.6243 52.4683 15.7329 52 15.9426V15.1563C52.0003 14.3742 51.7026 13.6178 51.1607 13.0233C50.6187 12.4287 49.8681 12.0352 49.044 11.9137C48.22 11.7921 47.3767 11.9505 46.6662 12.3602C45.9557 12.7699 45.4246 13.4041 45.1687 14.1485C44.6357 13.8774 44.0368 13.7409 43.4305 13.7521C42.8243 13.7634 42.2316 13.9222 41.7105 14.2128C41.1894 14.5034 40.7577 14.916 40.4579 15.4101C40.158 15.9042 40.0002 16.4628 40 17.0313V24.5313L39.5225 23.8129C39.0587 23.0626 38.2969 22.5148 37.4036 22.2895C36.5103 22.0642 35.5582 22.1795 34.7554 22.6104C33.9525 23.0412 33.3643 23.7525 33.1192 24.5887C32.8741 25.425 32.9921 26.3182 33.4475 27.0731C35.4475 31.0305 37.0637 33.8371 38.9125 35.5914C40.78 37.368 42.9 38.125 46 38.125C48.9163 38.1219 51.7123 37.0344 53.7745 35.1011C55.8367 33.1678 56.9966 30.5466 57 27.8125V18.9063C57 18.036 56.6312 17.2014 55.9748 16.5861C55.3185 15.9707 54.4282 15.625 53.5 15.625ZM55 27.8125C54.9973 30.0495 54.0483 32.1942 52.361 33.776C50.6737 35.3578 48.3861 36.2475 46 36.25C43.4525 36.25 41.8112 35.6782 40.3337 34.2754C38.68 32.7039 37.1575 30.0391 35.2375 26.2399C35.2262 26.2166 35.2137 26.1939 35.2 26.1719C35.001 25.8488 34.9472 25.4649 35.0502 25.1046C35.1532 24.7443 35.4047 24.4371 35.7493 24.2506C36.0939 24.0641 36.5035 24.0136 36.8878 24.1102C37.2721 24.2068 37.5998 24.4426 37.7987 24.7657C37.8038 24.775 37.8096 24.7841 37.8162 24.7926L40.15 28.3082C40.2646 28.4817 40.4365 28.6153 40.6395 28.6888C40.8425 28.7624 41.0655 28.7719 41.2748 28.7158C41.484 28.6597 41.6681 28.5412 41.7989 28.3782C41.9298 28.2152 42.0004 28.0166 42 27.8125V17.0313C42 16.6583 42.158 16.3006 42.4393 16.0369C42.7206 15.7732 43.1021 15.625 43.5 15.625C43.8978 15.625 44.2793 15.7732 44.5606 16.0369C44.8419 16.3006 45 16.6583 45 17.0313V24.0625C45 24.3112 45.1053 24.5496 45.2929 24.7254C45.4804 24.9013 45.7347 25 46 25C46.2652 25 46.5195 24.9013 46.7071 24.7254C46.8946 24.5496 47 24.3112 47 24.0625V15.1563C47 14.7833 47.158 14.4256 47.4393 14.1619C47.7206 13.8982 48.1021 13.75 48.5 13.75C48.8978 13.75 49.2793 13.8982 49.5606 14.1619C49.8419 14.4256 50 14.7833 50 15.1563V24.0625C50 24.3112 50.1053 24.5496 50.2929 24.7254C50.4804 24.9013 50.7347 25 51 25C51.2652 25 51.5195 24.9013 51.7071 24.7254C51.8946 24.5496 52 24.3112 52 24.0625V18.9063C52 18.5333 52.158 18.1756 52.4393 17.9119C52.7206 17.6482 53.1021 17.5 53.5 17.5C53.8978 17.5 54.2793 17.6482 54.5606 17.9119C54.8419 18.1756 55 18.5333 55 18.9063V27.8125Z" fill="black"/>
<path d="M88.1449 30V20.5455H89.2898V24.7557H94.331V20.5455H95.4759V30H94.331V25.7713H89.2898V30H88.1449ZM99.7069 30.1662C99.2575 30.1662 98.8497 30.0816 98.4835 29.9123C98.1172 29.7399 97.8264 29.4922 97.611 29.169C97.3955 28.8428 97.2878 28.4489 97.2878 27.9872C97.2878 27.581 97.3678 27.2517 97.5279 26.9993C97.6879 26.7438 97.9018 26.5438 98.1696 26.3991C98.4373 26.2545 98.7328 26.1468 99.0559 26.076C99.3822 26.0021 99.7099 25.9437 100.039 25.9006C100.47 25.8452 100.819 25.8036 101.087 25.7759C101.358 25.7451 101.555 25.6944 101.678 25.6236C101.804 25.5528 101.867 25.4297 101.867 25.2543V25.2173C101.867 24.7618 101.743 24.4079 101.493 24.1555C101.247 23.9032 100.873 23.777 100.372 23.777C99.8515 23.777 99.4437 23.8909 99.1483 24.1186C98.8528 24.3464 98.6451 24.5895 98.525 24.848L97.4909 24.4787C97.6756 24.0478 97.9218 23.7124 98.2296 23.4723C98.5404 23.2292 98.879 23.0599 99.2452 22.9645C99.6145 22.866 99.9777 22.8168 100.335 22.8168C100.562 22.8168 100.824 22.8445 101.119 22.8999C101.418 22.9522 101.706 23.0614 101.983 23.2276C102.263 23.3938 102.495 23.6446 102.68 23.9801C102.865 24.3156 102.957 24.7649 102.957 25.3281V30H101.867V29.0398H101.812C101.738 29.1937 101.615 29.3583 101.443 29.5337C101.27 29.7092 101.041 29.8584 100.755 29.9815C100.469 30.1046 100.119 30.1662 99.7069 30.1662ZM99.873 29.1875C100.304 29.1875 100.667 29.1029 100.963 28.9336C101.261 28.7643 101.486 28.5458 101.637 28.2781C101.79 28.0103 101.867 27.7287 101.867 27.4332V26.4361C101.821 26.4915 101.72 26.5423 101.563 26.5884C101.409 26.6315 101.23 26.67 101.027 26.7038C100.827 26.7346 100.632 26.7623 100.441 26.7869C100.253 26.8085 100.101 26.8269 99.9838 26.8423C99.7007 26.8793 99.436 26.9393 99.1898 27.0224C98.9467 27.1024 98.7497 27.224 98.5989 27.3871C98.4512 27.5471 98.3773 27.7656 98.3773 28.0426C98.3773 28.4212 98.5173 28.7074 98.7974 28.9013C99.0806 29.0921 99.4391 29.1875 99.873 29.1875ZM104.945 30V22.9091H105.998V24.017H106.09C106.238 23.6385 106.477 23.3446 106.806 23.1353C107.135 22.9229 107.531 22.8168 107.992 22.8168C108.46 22.8168 108.849 22.9229 109.16 23.1353C109.474 23.3446 109.719 23.6385 109.894 24.017H109.968C110.15 23.6508 110.422 23.36 110.785 23.1445C111.148 22.926 111.584 22.8168 112.092 22.8168C112.726 22.8168 113.244 23.0153 113.647 23.4123C114.051 23.8062 114.252 24.4202 114.252 25.2543V30H113.163V25.2543C113.163 24.7311 113.02 24.3571 112.733 24.1325C112.447 23.9078 112.11 23.7955 111.722 23.7955C111.224 23.7955 110.838 23.9463 110.564 24.2479C110.29 24.5464 110.153 24.925 110.153 25.3835V30H109.045V25.1435C109.045 24.7403 108.914 24.4156 108.652 24.1694C108.391 23.9201 108.054 23.7955 107.641 23.7955C107.358 23.7955 107.094 23.8709 106.847 24.0217C106.604 24.1725 106.407 24.3817 106.256 24.6495C106.109 24.9142 106.035 25.2204 106.035 25.5682V30H104.945ZM121.267 24.4972L120.288 24.7741C120.227 24.611 120.136 24.4525 120.016 24.2987C119.899 24.1417 119.739 24.0124 119.536 23.9109C119.333 23.8093 119.073 23.7585 118.756 23.7585C118.322 23.7585 117.96 23.8585 117.671 24.0586C117.384 24.2556 117.241 24.5064 117.241 24.8111C117.241 25.0819 117.34 25.2958 117.537 25.4528C117.734 25.6097 118.042 25.7405 118.46 25.8452L119.513 26.1037C120.147 26.2576 120.619 26.493 120.93 26.81C121.241 27.1239 121.396 27.5286 121.396 28.0241C121.396 28.4304 121.279 28.7936 121.045 29.1136C120.815 29.4337 120.491 29.6861 120.076 29.8707C119.66 30.0554 119.177 30.1477 118.626 30.1477C117.903 30.1477 117.304 29.9908 116.831 29.6768C116.357 29.3629 116.056 28.9044 115.93 28.3011L116.964 28.0426C117.063 28.4242 117.249 28.7105 117.523 28.9013C117.8 29.0921 118.162 29.1875 118.608 29.1875C119.116 29.1875 119.519 29.0798 119.817 28.8643C120.119 28.6458 120.27 28.3842 120.27 28.0795C120.27 27.8333 120.184 27.6271 120.011 27.4609C119.839 27.2917 119.574 27.1655 119.217 27.0824L118.035 26.8054C117.386 26.6515 116.909 26.413 116.604 26.0898C116.303 25.7636 116.152 25.3558 116.152 24.8665C116.152 24.4664 116.264 24.1125 116.489 23.8047C116.717 23.4969 117.026 23.2553 117.417 23.0799C117.811 22.9045 118.257 22.8168 118.756 22.8168C119.457 22.8168 120.008 22.9706 120.408 23.2784C120.811 23.5862 121.098 23.9924 121.267 24.4972ZM126.12 22.9091V23.8324H122.445V22.9091H126.12ZM123.516 21.2102H124.606V27.9688C124.606 28.2765 124.65 28.5073 124.74 28.6612C124.832 28.812 124.949 28.9136 125.091 28.9659C125.235 29.0152 125.388 29.0398 125.548 29.0398C125.668 29.0398 125.766 29.0336 125.843 29.0213C125.92 29.0059 125.982 28.9936 126.028 28.9844L126.249 29.9631C126.175 29.9908 126.072 30.0185 125.94 30.0462C125.808 30.0769 125.64 30.0923 125.437 30.0923C125.129 30.0923 124.827 30.0262 124.532 29.8938C124.24 29.7615 123.996 29.5599 123.803 29.2891C123.612 29.0182 123.516 28.6766 123.516 28.2642V21.2102ZM130.656 30.1477C129.972 30.1477 129.383 29.9969 128.888 29.6953C128.395 29.3906 128.015 28.9659 127.747 28.4212C127.483 27.8733 127.35 27.2363 127.35 26.5099C127.35 25.7836 127.483 25.1435 127.747 24.5895C128.015 24.0324 128.387 23.5985 128.865 23.2876C129.345 22.9737 129.905 22.8168 130.545 22.8168C130.914 22.8168 131.279 22.8783 131.639 23.0014C131.999 23.1245 132.327 23.3246 132.622 23.6016C132.918 23.8755 133.153 24.2386 133.329 24.6911C133.504 25.1435 133.592 25.7005 133.592 26.3622V26.8239H128.126V25.8821H132.484C132.484 25.482 132.404 25.125 132.244 24.8111C132.087 24.4972 131.862 24.2494 131.57 24.0678C131.28 23.8862 130.939 23.7955 130.545 23.7955C130.111 23.7955 129.735 23.9032 129.419 24.1186C129.105 24.331 128.863 24.608 128.694 24.9496C128.524 25.2912 128.44 25.6574 128.44 26.0483V26.6761C128.44 27.2116 128.532 27.6656 128.717 28.038C128.905 28.4073 129.165 28.6889 129.497 28.8828C129.829 29.0736 130.216 29.169 130.656 29.169C130.942 29.169 131.2 29.129 131.431 29.049C131.665 28.9659 131.867 28.8428 132.036 28.6797C132.205 28.5135 132.336 28.3073 132.428 28.0611L133.481 28.3565C133.37 28.7135 133.184 29.0275 132.922 29.2983C132.661 29.5661 132.338 29.7753 131.953 29.9261C131.568 30.0739 131.136 30.1477 130.656 30.1477ZM135.249 30V22.9091H136.302V23.9801H136.376C136.505 23.6293 136.739 23.3446 137.077 23.1261C137.416 22.9076 137.797 22.7983 138.222 22.7983C138.302 22.7983 138.402 22.7998 138.522 22.8029C138.642 22.806 138.733 22.8106 138.795 22.8168V23.9247C138.758 23.9155 138.673 23.9016 138.541 23.8832C138.411 23.8616 138.274 23.8509 138.13 23.8509C137.785 23.8509 137.477 23.9232 137.206 24.0678C136.939 24.2094 136.726 24.4064 136.569 24.6587C136.416 24.908 136.339 25.1927 136.339 25.5128V30H135.249ZM143.742 30V22.9091H144.795V23.9801H144.869C144.998 23.6293 145.232 23.3446 145.57 23.1261C145.909 22.9076 146.291 22.7983 146.715 22.7983C146.795 22.7983 146.895 22.7998 147.015 22.8029C147.135 22.806 147.226 22.8106 147.288 22.8168V23.9247C147.251 23.9155 147.166 23.9016 147.034 23.8832C146.905 23.8616 146.768 23.8509 146.623 23.8509C146.278 23.8509 145.97 23.9232 145.7 24.0678C145.432 24.2094 145.22 24.4064 145.063 24.6587C144.909 24.908 144.832 25.1927 144.832 25.5128V30H143.742ZM150.666 30.1662C150.217 30.1662 149.809 30.0816 149.442 29.9123C149.076 29.7399 148.785 29.4922 148.57 29.169C148.355 28.8428 148.247 28.4489 148.247 27.9872C148.247 27.581 148.327 27.2517 148.487 26.9993C148.647 26.7438 148.861 26.5438 149.129 26.3991C149.396 26.2545 149.692 26.1468 150.015 26.076C150.341 26.0021 150.669 25.9437 150.998 25.9006C151.429 25.8452 151.778 25.8036 152.046 25.7759C152.317 25.7451 152.514 25.6944 152.637 25.6236C152.763 25.5528 152.826 25.4297 152.826 25.2543V25.2173C152.826 24.7618 152.702 24.4079 152.452 24.1555C152.206 23.9032 151.832 23.777 151.331 23.777C150.81 23.777 150.403 23.8909 150.107 24.1186C149.812 24.3464 149.604 24.5895 149.484 24.848L148.45 24.4787C148.635 24.0478 148.881 23.7124 149.189 23.4723C149.499 23.2292 149.838 23.0599 150.204 22.9645C150.574 22.866 150.937 22.8168 151.294 22.8168C151.521 22.8168 151.783 22.8445 152.078 22.8999C152.377 22.9522 152.665 23.0614 152.942 23.2276C153.222 23.3938 153.454 23.6446 153.639 23.9801C153.824 24.3156 153.916 24.7649 153.916 25.3281V30H152.826V29.0398H152.771C152.697 29.1937 152.574 29.3583 152.402 29.5337C152.229 29.7092 152 29.8584 151.714 29.9815C151.428 30.1046 151.078 30.1662 150.666 30.1662ZM150.832 29.1875C151.263 29.1875 151.626 29.1029 151.922 28.9336C152.22 28.7643 152.445 28.5458 152.596 28.2781C152.749 28.0103 152.826 27.7287 152.826 27.4332V26.4361C152.78 26.4915 152.679 26.5423 152.522 26.5884C152.368 26.6315 152.189 26.67 151.986 26.7038C151.786 26.7346 151.591 26.7623 151.4 26.7869C151.212 26.8085 151.06 26.8269 150.943 26.8423C150.66 26.8793 150.395 26.9393 150.149 27.0224C149.906 27.1024 149.709 27.224 149.558 27.3871C149.41 27.5471 149.336 27.7656 149.336 28.0426C149.336 28.4212 149.476 28.7074 149.756 28.9013C150.04 29.0921 150.398 29.1875 150.832 29.1875ZM158.785 30.1477C158.12 30.1477 157.548 29.9908 157.068 29.6768C156.588 29.3629 156.218 28.9305 155.96 28.3796C155.701 27.8287 155.572 27.1993 155.572 26.4915C155.572 25.7713 155.704 25.1358 155.969 24.5849C156.237 24.0309 156.609 23.5985 157.086 23.2876C157.566 22.9737 158.126 22.8168 158.767 22.8168C159.265 22.8168 159.715 22.9091 160.115 23.0938C160.515 23.2784 160.842 23.5369 161.098 23.8693C161.353 24.2017 161.512 24.5895 161.573 25.0327H160.484C160.401 24.7095 160.216 24.4233 159.93 24.174C159.647 23.9216 159.265 23.7955 158.785 23.7955C158.36 23.7955 157.988 23.9062 157.668 24.1278C157.351 24.3464 157.103 24.6557 156.925 25.0558C156.749 25.4528 156.661 25.919 156.661 26.4545C156.661 27.0024 156.748 27.4794 156.92 27.8857C157.095 28.2919 157.342 28.6074 157.659 28.832C157.979 29.0567 158.354 29.169 158.785 29.169C159.068 29.169 159.325 29.1198 159.556 29.0213C159.787 28.9228 159.982 28.7812 160.142 28.5966C160.302 28.4119 160.416 28.1903 160.484 27.9318H161.573C161.512 28.3504 161.36 28.7274 161.116 29.0629C160.876 29.3952 160.558 29.6599 160.161 29.8569C159.767 30.0508 159.308 30.1477 158.785 30.1477ZM163.166 30V22.9091H164.256V30H163.166ZM163.72 21.7273C163.508 21.7273 163.325 21.6549 163.171 21.5103C163.02 21.3656 162.945 21.1918 162.945 20.9886C162.945 20.7855 163.02 20.6116 163.171 20.467C163.325 20.3223 163.508 20.25 163.72 20.25C163.932 20.25 164.114 20.3223 164.265 20.467C164.419 20.6116 164.496 20.7855 164.496 20.9886C164.496 21.1918 164.419 21.3656 164.265 21.5103C164.114 21.6549 163.932 21.7273 163.72 21.7273ZM167.341 25.7344V30H166.251V22.9091H167.304V24.017H167.396C167.562 23.657 167.815 23.3677 168.153 23.1491C168.492 22.9276 168.929 22.8168 169.464 22.8168C169.944 22.8168 170.364 22.9152 170.724 23.1122C171.085 23.3061 171.365 23.6016 171.565 23.9986C171.765 24.3925 171.865 24.8911 171.865 25.4943V30H170.775V25.5682C170.775 25.0111 170.631 24.5772 170.341 24.2663C170.052 23.9524 169.655 23.7955 169.15 23.7955C168.802 23.7955 168.492 23.8709 168.218 24.0217C167.947 24.1725 167.733 24.3925 167.576 24.6818C167.419 24.9711 167.341 25.322 167.341 25.7344ZM176.718 32.8068C176.191 32.8068 175.739 32.7391 175.361 32.6037C174.982 32.4714 174.667 32.2959 174.414 32.0774C174.165 31.862 173.966 31.6312 173.819 31.3849L174.687 30.7756C174.785 30.9048 174.91 31.0526 175.06 31.2188C175.211 31.388 175.417 31.5342 175.679 31.6573C175.944 31.7835 176.29 31.8466 176.718 31.8466C177.29 31.8466 177.763 31.7081 178.135 31.4311C178.507 31.1541 178.694 30.7202 178.694 30.1293V28.6889H178.601C178.521 28.8182 178.407 28.9782 178.26 29.169C178.115 29.3568 177.906 29.5245 177.632 29.6722C177.361 29.8169 176.995 29.8892 176.533 29.8892C175.961 29.8892 175.447 29.7538 174.991 29.483C174.539 29.2121 174.18 28.8182 173.916 28.3011C173.654 27.7841 173.523 27.1562 173.523 26.4176C173.523 25.6913 173.651 25.0588 173.906 24.5202C174.162 23.9786 174.517 23.56 174.973 23.2646C175.428 22.966 175.955 22.8168 176.552 22.8168C177.013 22.8168 177.379 22.8937 177.65 23.0476C177.924 23.1984 178.133 23.3707 178.278 23.5646C178.426 23.7554 178.54 23.9124 178.62 24.0355H178.731V22.9091H179.783V30.2031C179.783 30.8125 179.645 31.308 179.368 31.6896C179.094 32.0743 178.724 32.3559 178.26 32.5344C177.798 32.716 177.284 32.8068 176.718 32.8068ZM176.681 28.9105C177.118 28.9105 177.487 28.8105 177.789 28.6104C178.09 28.4104 178.32 28.1226 178.477 27.7472C178.634 27.3717 178.712 26.9223 178.712 26.3991C178.712 25.8883 178.635 25.4374 178.481 25.0465C178.327 24.6557 178.1 24.3494 177.798 24.1278C177.496 23.9062 177.124 23.7955 176.681 23.7955C176.219 23.7955 175.834 23.9124 175.527 24.1463C175.222 24.3802 174.993 24.6941 174.839 25.0881C174.688 25.482 174.613 25.919 174.613 26.3991C174.613 26.8916 174.69 27.3271 174.843 27.7056C175 28.0811 175.231 28.3765 175.536 28.592C175.844 28.8043 176.225 28.9105 176.681 28.9105ZM185.434 30V22.9091H186.523V30H185.434ZM185.988 21.7273C185.775 21.7273 185.592 21.6549 185.438 21.5103C185.287 21.3656 185.212 21.1918 185.212 20.9886C185.212 20.7855 185.287 20.6116 185.438 20.467C185.592 20.3223 185.775 20.25 185.988 20.25C186.2 20.25 186.382 20.3223 186.532 20.467C186.686 20.6116 186.763 20.7855 186.763 20.9886C186.763 21.1918 186.686 21.3656 186.532 21.5103C186.382 21.6549 186.2 21.7273 185.988 21.7273ZM193.541 24.4972L192.563 24.7741C192.501 24.611 192.41 24.4525 192.29 24.2987C192.173 24.1417 192.013 24.0124 191.81 23.9109C191.607 23.8093 191.347 23.7585 191.03 23.7585C190.596 23.7585 190.234 23.8585 189.945 24.0586C189.659 24.2556 189.516 24.5064 189.516 24.8111C189.516 25.0819 189.614 25.2958 189.811 25.4528C190.008 25.6097 190.316 25.7405 190.735 25.8452L191.787 26.1037C192.421 26.2576 192.894 26.493 193.204 26.81C193.515 27.1239 193.671 27.5286 193.671 28.0241C193.671 28.4304 193.554 28.7936 193.32 29.1136C193.089 29.4337 192.766 29.6861 192.35 29.8707C191.935 30.0554 191.452 30.1477 190.901 30.1477C190.177 30.1477 189.579 29.9908 189.105 29.6768C188.631 29.3629 188.331 28.9044 188.205 28.3011L189.239 28.0426C189.337 28.4242 189.523 28.7105 189.797 28.9013C190.074 29.0921 190.436 29.1875 190.882 29.1875C191.39 29.1875 191.793 29.0798 192.092 28.8643C192.393 28.6458 192.544 28.3842 192.544 28.0795C192.544 27.8333 192.458 27.6271 192.286 27.4609C192.113 27.2917 191.849 27.1655 191.492 27.0824L190.31 26.8054C189.66 26.6515 189.183 26.413 188.879 26.0898C188.577 25.7636 188.426 25.3558 188.426 24.8665C188.426 24.4664 188.539 24.1125 188.763 23.8047C188.991 23.4969 189.3 23.2553 189.691 23.0799C190.085 22.9045 190.531 22.8168 191.03 22.8168C191.732 22.8168 192.283 22.9706 192.683 23.2784C193.086 23.5862 193.372 23.9924 193.541 24.4972ZM199.115 30V20.5455H200.259V28.9844H204.654V30H199.115ZM206.279 30V22.9091H207.369V30H206.279ZM206.833 21.7273C206.621 21.7273 206.438 21.6549 206.284 21.5103C206.133 21.3656 206.058 21.1918 206.058 20.9886C206.058 20.7855 206.133 20.6116 206.284 20.467C206.438 20.3223 206.621 20.25 206.833 20.25C207.046 20.25 207.227 20.3223 207.378 20.467C207.532 20.6116 207.609 20.7855 207.609 20.9886C207.609 21.1918 207.532 21.3656 207.378 21.5103C207.227 21.6549 207.046 21.7273 206.833 21.7273ZM215.163 22.9091L212.54 30H211.433L208.81 22.9091H209.992L211.95 28.5597H212.023L213.981 22.9091H215.163ZM219.32 30.1477C218.637 30.1477 218.047 29.9969 217.552 29.6953C217.059 29.3906 216.679 28.9659 216.411 28.4212C216.147 27.8733 216.014 27.2363 216.014 26.5099C216.014 25.7836 216.147 25.1435 216.411 24.5895C216.679 24.0324 217.052 23.5985 217.529 23.2876C218.009 22.9737 218.569 22.8168 219.209 22.8168C219.578 22.8168 219.943 22.8783 220.303 23.0014C220.663 23.1245 220.991 23.3246 221.286 23.6016C221.582 23.8755 221.817 24.2386 221.993 24.6911C222.168 25.1435 222.256 25.7005 222.256 26.3622V26.8239H216.79V25.8821H221.148C221.148 25.482 221.068 25.125 220.908 24.8111C220.751 24.4972 220.526 24.2494 220.234 24.0678C219.945 23.8862 219.603 23.7955 219.209 23.7955C218.775 23.7955 218.4 23.9032 218.083 24.1186C217.769 24.331 217.527 24.608 217.358 24.9496C217.189 25.2912 217.104 25.6574 217.104 26.0483V26.6761C217.104 27.2116 217.196 27.6656 217.381 28.038C217.569 28.4073 217.829 28.6889 218.161 28.8828C218.493 29.0736 218.88 29.169 219.32 29.169C219.606 29.169 219.865 29.129 220.095 29.049C220.329 28.9659 220.531 28.8428 220.7 28.6797C220.869 28.5135 221 28.3073 221.093 28.0611L222.145 28.3565C222.034 28.7135 221.848 29.0275 221.586 29.2983C221.325 29.5661 221.002 29.7753 220.617 29.9261C220.232 30.0739 219.8 30.1477 219.32 30.1477Z" fill="#F4BF04"/>
</svg>
