<svg width="48" height="27" viewBox="0 0 48 27" fill="none" xmlns="http://www.w3.org/2000/svg">
<rect x="-0.00195312" width="48" height="27" rx="1" fill="#04E6EA" fill-opacity="0.2"/>
<path d="M8.58305 17V7.9H11.313V14.764H14.797L14.017 17H8.58305ZM17.5327 15.154H18.9107V14.296H17.5327V15.154ZM15.1927 15.401V14.517C15.1927 13.646 15.9207 12.918 16.7917 12.918H18.9107V12.151H15.1927L15.9727 10.175H19.7817C20.6527 10.175 21.3807 10.903 21.3807 11.774V17H16.7917C15.9207 17 15.1927 16.272 15.1927 15.401ZM22.4194 17V11.774C22.4194 10.903 23.1474 10.175 24.0184 10.175H27.0994L26.3194 12.151H24.8894V17H22.4194ZM27.4848 17V11.774C27.4848 10.903 28.2128 10.175 29.0838 10.175H32.1648L31.3848 12.151H29.9548V17H27.4848ZM39.1283 10.175V17.897C39.1283 18.768 38.4003 19.496 37.5293 19.496H32.3683L33.0963 17.65H36.6583V16.87H34.1493C33.2783 16.87 32.5503 16.142 32.5503 15.271V10.175H35.0203V14.894H36.6583V10.175H39.1283Z" fill="#04E6EA"/>
</svg>
