<svg width="56" height="47" viewBox="0 0 56 47" fill="none" xmlns="http://www.w3.org/2000/svg">
<path d="M44.9374 17.0678C47.4739 22.7917 49.9311 28.1377 52.2468 33.5415C53.9921 37.6144 52.3791 41.2798 47.9269 42.2213C34.2828 45.1065 20.513 44.7293 6.86139 42.3936C1.30833 41.4435 -0.288238 36.4658 2.79347 31.7231C3.71453 30.3057 5.16731 29.1659 5.8576 27.671C6.54779 26.1765 6.58859 24.3966 6.93922 22.6139C15.9724 20.7706 25.0934 19.0636 27.5528 7.87755C31.215 8.66159 34.717 9.41133 38.444 10.2092C39.0163 8.80925 40.164 5.74618 41.0664 4.94732C42.8405 3.37678 43.9659 2.87808 46.0835 2.68935C47.6189 2.5525 50.5714 4.8663 50.7866 6.37332C52.2664 11.1315 51.0219 12.3684 49.1553 13.6052C48.3392 15.0539 46.0631 15.5071 44.9374 17.0678Z" fill="#14202D"/>
<path d="M9.88212 0.0167885C6.25421 0.301403 3.14343 2.63629 1.98122 5.94361C1.52007 7.25073 1.37079 8.56576 1.52806 9.90977C1.86127 12.7243 3.52462 15.3754 5.96366 16.9724C6.35017 17.2254 6.78201 17.4758 7.01125 17.5812C7.06456 17.6075 7.10988 17.6365 7.10988 17.6444C7.10988 17.655 6.98992 17.9053 6.84598 18.2005C5.58781 20.762 4.8521 23.5633 4.64418 26.565L4.62552 26.8259L4.43359 26.9972C1.99988 29.1871 0.549781 31.7513 0.125947 34.6027C-0.108627 36.1865 -0.012665 37.8151 0.389844 39.1802C0.776359 40.4821 1.42411 41.5441 2.42371 42.5113C3.18075 43.2465 4.01776 43.8131 5.14265 44.3534C8.16813 45.8054 12.5238 46.5776 19.2784 46.8569C23.7674 47.0414 31.7775 47.0493 36.4184 46.8701C45.023 46.538 50.0344 45.3864 52.9719 43.0594C53.3504 42.759 53.9555 42.1608 54.2381 41.8103C55.1284 40.7008 55.6855 39.3832 55.9014 37.8705C56.04 36.906 56.032 35.6305 55.8801 34.5895C55.6349 32.9003 54.9711 31.2189 53.9608 29.7274C53.3984 28.892 52.9106 28.3175 52.0523 27.4742L51.3699 26.7995L51.3352 26.3805C51.114 23.4606 50.3703 20.7067 49.0908 18.0687C48.9735 17.8315 48.8828 17.6339 48.8855 17.6312C48.8908 17.6286 49.0374 17.5522 49.2134 17.46C51.1086 16.477 52.732 14.7772 53.6383 12.8218C54.2754 11.4435 54.5633 10.0811 54.5233 8.63164C54.5046 8.0545 54.4647 7.68556 54.3554 7.14532C53.5823 3.3162 50.3889 0.47797 46.3612 0.0352364C45.972 -0.00692749 44.9457 -0.00692749 44.5619 0.0378723C42.7759 0.238155 41.2112 0.87854 39.8437 1.97483C39.5745 2.18829 38.9534 2.79178 38.7002 3.0843C38.0178 3.86699 37.4447 4.81306 37.0448 5.81185C36.9249 6.10964 36.7463 6.64988 36.6823 6.8976L36.6396 7.07153L36.1865 6.91605C31.8842 5.435 26.8835 5.17937 22.3306 6.20978C21.4776 6.40216 20.4087 6.70786 19.673 6.96875L19.3744 7.07417L19.3451 6.96348C19.1638 6.25985 18.8146 5.38757 18.4574 4.73137C18.2415 4.33871 17.7857 3.66143 17.4898 3.29512C17.0207 2.71799 16.2743 2.02754 15.6265 1.5769C14.4483 0.757313 13.0329 0.224979 11.5641 0.0536842C11.1403 0.00361252 10.282 -0.0174713 9.88212 0.0167885ZM46.4571 3.38472C48.2884 3.71414 49.8611 4.87104 50.6422 6.46014C51.4125 8.03079 51.3779 9.88605 50.5462 11.5437C50.1383 12.3633 49.7305 12.9009 49.0294 13.5518C48.2244 14.3002 47.2701 14.8167 46.1506 15.1119C45.7028 15.2305 45.5002 15.3385 45.2416 15.5994C44.9937 15.8445 44.8844 16.0369 44.7991 16.3795C44.6845 16.8275 44.7671 17.2412 45.071 17.7288C45.8174 18.9384 46.3692 20.0294 46.7797 21.1099C47.3208 22.5329 47.7153 24.1326 47.9046 25.669C47.9712 26.2118 48.0005 26.5439 48.0405 27.237C48.0991 28.3122 48.1844 28.494 48.9255 29.1081C49.6212 29.6852 50.3303 30.4178 50.8234 31.0714C52.1002 32.7553 52.7267 34.637 52.6574 36.566C52.6147 37.7124 52.3508 38.6031 51.815 39.3884C50.5968 41.1804 48.0378 42.2767 43.5623 42.9277C41.0273 43.294 38.1804 43.4969 33.6328 43.6313C32.1534 43.6735 25.7959 43.6919 23.9166 43.6576C19.2438 43.5733 16.1117 43.3915 13.3474 43.0463C7.59236 42.3321 4.66817 40.9459 3.71121 38.4766C3.53261 38.0128 3.44198 37.6175 3.37534 37.014C3.33536 36.6556 3.35935 35.5962 3.41799 35.1956C3.61258 33.8174 4.13771 32.5287 4.99071 31.3217C5.56382 30.5153 6.22223 29.8196 7.1312 29.058C7.3018 28.9157 7.47507 28.7628 7.51239 28.7233C7.70698 28.5151 7.88824 28.1198 7.92023 27.8431C7.92822 27.764 7.94955 27.4557 7.96288 27.1579C7.9922 26.5808 8.04284 25.9957 8.10949 25.4845C8.22411 24.6122 8.47468 23.3789 8.6746 22.7253L8.7439 22.4987L9.02646 22.4829C10.0047 22.4249 10.3113 22.4038 10.8951 22.3458C19.0385 21.5447 25.6306 17.597 27.3793 12.4713C27.7365 11.4251 27.9017 10.2313 27.8191 9.31155C27.7844 8.92152 27.7844 8.89781 27.8271 8.88463C27.9577 8.853 29.5677 8.9347 30.3941 9.0164C32.6146 9.23513 34.9363 9.8597 36.9622 10.7794C37.4793 11.014 37.6286 11.0614 37.9138 11.0772C38.5829 11.1115 39.204 10.761 39.4919 10.1838C39.6358 9.89659 39.6545 9.80963 39.6838 9.29047C39.7158 8.7634 39.7717 8.34439 39.8597 7.96227C40.1663 6.6367 40.8966 5.42182 41.8829 4.60487C42.7039 3.92233 43.7142 3.48223 44.7911 3.33729C45.119 3.29249 46.1053 3.32148 46.4571 3.38472Z" fill="#04E6EA"/>
<path d="M20.1151 23.8501C19.3234 24.0267 18.7316 24.5643 18.4997 25.3259C18.4357 25.5315 18.4277 25.6079 18.4277 25.9057C18.4277 26.2035 18.4357 26.2799 18.4997 26.4854C18.5903 26.778 18.721 27.023 18.8995 27.2312C19.1954 27.5738 19.518 27.7847 19.9418 27.9111C20.1497 27.9744 20.227 27.9823 20.5282 27.9823C20.8295 27.9823 20.9068 27.9744 21.1147 27.9111C21.8397 27.6951 22.3809 27.1469 22.5834 26.4196C22.6581 26.1587 22.6527 25.629 22.5728 25.3575C22.3622 24.6328 21.8211 24.0952 21.096 23.887C20.8401 23.8159 20.3576 23.7974 20.1151 23.8501Z" fill="#04E6EA"/>
<path d="M35.1139 23.8379C34.6847 23.917 34.3088 24.1146 33.9783 24.4414C33.5838 24.8314 33.3999 25.2425 33.3759 25.7907C33.3572 26.1491 33.3919 26.3731 33.5038 26.6603C33.7597 27.3165 34.3488 27.8067 35.0579 27.9516C35.1912 27.978 35.3778 28.0017 35.4737 28.0017C36.3214 28.0017 37.1371 27.4457 37.4436 26.6603C37.5556 26.3731 37.5902 26.1491 37.5716 25.7907C37.5476 25.2425 37.3636 24.8314 36.9691 24.4414C36.556 24.0329 36.1161 23.8405 35.5537 23.8247C35.3857 23.8195 35.1885 23.8247 35.1139 23.8379Z" fill="#04E6EA"/>
<path d="M25.2221 32.6185C25.0835 32.7371 25.0808 33.077 25.2115 33.4644C25.4087 34.0495 25.9925 34.6556 26.6669 34.9692L26.8295 35.0456L26.7149 35.1853C26.6509 35.2617 26.5549 35.404 26.5016 35.5042C26.2484 35.9627 26.1444 36.1103 25.9285 36.329C25.4727 36.7876 24.9289 37.0142 24.2891 37.0142C23.9959 37.0142 23.7427 36.9562 23.4895 36.8324C23.2202 36.7006 23.0576 36.5399 22.903 36.2631C22.6391 35.7835 22.3113 35.5147 21.8181 35.3803C21.1384 35.1932 20.3813 35.4857 19.9868 36.0892C19.6643 36.582 19.6456 37.2198 19.9335 37.7837C20.3733 38.6455 21.0771 39.3333 21.9781 39.7787C22.6098 40.0923 23.2096 40.2504 23.9799 40.311C25.2914 40.4138 26.7255 39.9631 27.7838 39.1172L27.9997 38.9459L28.1969 39.1014C29.6044 40.2135 31.457 40.6009 33.123 40.1265C34.4345 39.7523 35.4608 38.9459 36.0419 37.8338C36.2045 37.5228 36.2711 37.2725 36.2711 36.9747C36.2711 36.5082 36.1192 36.1498 35.778 35.8125C35.4181 35.4594 35.0343 35.3118 34.5251 35.3355C33.9174 35.3645 33.4189 35.6834 33.123 36.2315C32.8351 36.7665 32.3607 37.0142 31.6276 37.0142C31.2784 37.0142 31.0678 36.972 30.7933 36.8456C30.2655 36.6031 29.9189 36.2579 29.5671 35.6175C29.4844 35.4646 29.3645 35.2749 29.3005 35.1932L29.1832 35.0456L29.3218 34.9824C29.7537 34.7847 30.2735 34.3446 30.5374 33.9546C30.8332 33.5198 30.9665 32.9848 30.8466 32.7055C30.7586 32.492 30.5907 32.5236 29.7937 32.9031C28.8447 33.3538 28.3142 33.4829 27.6958 33.4065C27.2453 33.3511 26.9041 33.2352 26.0991 32.8557C25.4327 32.5421 25.3421 32.5184 25.2221 32.6185Z" fill="#04E6EA"/>
</svg>
