<svg width="26" height="26" viewBox="0 0 26 26" fill="none" xmlns="http://www.w3.org/2000/svg">
<rect width="26" height="26" fill="#F5F5F5"/>
<g id="Sedona Rooms - Light Mode">
<path d="M-648 -809C-648 -810.105 -647.105 -811 -646 -811H14631C14632.1 -811 14633 -810.105 14633 -809V1449C14633 1450.1 14632.1 1451 14631 1451H-646C-647.104 1451 -648 1450.1 -648 1449V-809Z" fill="#404040"/>
<path d="M-646 -810H14631V-812H-646V-810ZM14632 -809V1449H14634V-809H14632ZM14631 1450H-646V1452H14631V1450ZM-647 1449V-809H-649V1449H-647ZM-646 1450C-646.552 1450 -647 1449.55 -647 1449H-649C-649 1450.66 -647.657 1452 -646 1452V1450ZM14632 1449C14632 1449.55 14631.6 1450 14631 1450V1452C14632.7 1452 14634 1450.66 14634 1449H14632ZM14631 -810C14631.6 -810 14632 -809.552 14632 -809H14634C14634 -810.657 14632.7 -812 14631 -812V-810ZM-646 -812C-647.657 -812 -649 -810.657 -649 -809H-647C-647 -809.552 -646.552 -810 -646 -810V-812Z" fill="black" fill-opacity="0.1"/>
<g id="Frame">
<rect width="1440" height="1170" transform="translate(-17 -265)" fill="#1C2936"/>
<g id="Group 101197">
<g id="div.css-1rqoxtp">
<path d="M-17 -185H252V585H-17V-185Z" fill="#16202B" fill-opacity="0.4"/>
<path d="M251.85 -185V585H252.15V-185H251.85Z" fill="#68758C" fill-opacity="0.25"/>
</g>
<g id="Frame 101186">
<path id="Vector" fill-rule="evenodd" clip-rule="evenodd" d="M15.0243 0.0168514C14.8436 -0.0115931 14.659 -0.00397034 14.4813 0.0392845C14.3035 0.0825394 14.1359 0.160579 13.9881 0.268948C13.8403 0.377317 13.7152 0.513893 13.6199 0.670878C13.5246 0.827864 13.461 1.00218 13.4327 1.18388C13.4044 1.36559 13.412 1.55111 13.455 1.72987C13.498 1.90862 13.5757 2.07711 13.6834 2.2257C13.7912 2.3743 13.9271 2.50009 14.0832 2.59591C14.2393 2.69172 14.4127 2.75568 14.5934 2.78412C17.127 3.19432 19.4144 4.54805 21.0008 6.57622C22.5872 8.60439 23.3564 11.1585 23.1557 13.7308C22.9549 16.3031 21.7988 18.7053 19.9172 20.4599C18.0356 22.2144 15.5662 23.1928 13 23.2007C10.9519 23.201 8.95104 22.5826 7.25685 21.4256C5.56267 20.2685 4.25338 18.6263 3.49886 16.712C3.43549 16.5356 3.33755 16.3739 3.21086 16.2364C3.08416 16.0988 2.93129 15.9882 2.7613 15.9112C2.59131 15.8342 2.40767 15.7922 2.22126 15.7879C2.03485 15.7835 1.84947 15.8168 1.67611 15.8859C1.50274 15.9549 1.34493 16.0582 1.21202 16.1897C1.07911 16.3212 0.973808 16.4782 0.902362 16.6513C0.830916 16.8245 0.794777 17.0103 0.796089 17.1978C0.797401 17.3853 0.836137 17.5706 0.91 17.7427C2.02571 20.5686 4.0861 22.9153 6.7367 24.3789C9.38729 25.8425 12.4623 26.3315 15.4328 25.7618C18.4032 25.1921 21.0833 23.5993 23.012 21.2575C24.9406 18.9157 25.9972 15.9712 26 12.9308C25.9999 9.81671 24.8942 6.80494 22.8821 4.43753C20.87 2.07011 18.0836 0.502507 15.0243 0.0168514ZM11.4474 1.09426C11.4932 1.27253 11.5036 1.45813 11.4779 1.64043C11.4523 1.82273 11.3911 1.99816 11.298 2.15668C11.2048 2.3152 11.0815 2.4537 10.9351 2.56424C10.7886 2.67479 10.622 2.75522 10.4446 2.80093C9.97931 2.92129 9.52316 3.0748 9.07957 3.26027C8.91068 3.33089 8.72961 3.36737 8.5467 3.36764C8.36379 3.3679 8.18262 3.33193 8.01353 3.2618C7.84444 3.19166 7.69074 3.08873 7.56122 2.95887C7.4317 2.82901 7.32888 2.67478 7.25864 2.50497C7.1884 2.33516 7.15212 2.1531 7.15186 1.96919C7.1516 1.78529 7.18737 1.60313 7.25712 1.43312C7.32688 1.26311 7.42926 1.10858 7.55841 0.978349C7.68757 0.848121 7.84097 0.744745 8.00986 0.674125C8.57071 0.438851 9.152 0.242789 9.75186 0.087807C9.92904 0.0420608 10.1134 0.0318544 10.2946 0.0577709C10.4757 0.0836874 10.6499 0.145219 10.8074 0.238852C10.9648 0.332485 11.1024 0.456385 11.2122 0.603477C11.322 0.750568 11.402 0.916104 11.4474 1.09426ZM5.915 3.39658C6.17193 3.6631 6.31313 4.02128 6.30755 4.39241C6.30198 4.76354 6.1501 5.11727 5.88529 5.37587C5.19475 6.05257 4.60098 6.82238 4.121 7.66325C4.03271 7.8275 3.91266 7.97234 3.76789 8.08925C3.62312 8.20617 3.45656 8.2928 3.27801 8.34405C3.09945 8.3953 2.91251 8.41014 2.72817 8.38769C2.54383 8.36524 2.36582 8.30596 2.2046 8.21333C2.04337 8.12071 1.9022 7.9966 1.78938 7.84832C1.67656 7.70003 1.59436 7.53056 1.54763 7.34988C1.50089 7.16919 1.49056 6.98093 1.51725 6.79617C1.54393 6.61141 1.60708 6.43388 1.703 6.27402C2.31123 5.20374 3.06647 4.22501 3.94643 3.3667C4.21151 3.10837 4.56774 2.96641 4.93686 2.97201C5.30599 2.97761 5.6578 3.13032 5.915 3.39658ZM1.70114 9.7191C2.06682 9.77094 2.39705 9.96666 2.61924 10.2632C2.84143 10.5598 2.93738 10.933 2.886 11.3007C2.81902 11.7801 2.78551 12.2636 2.78571 12.7478C2.78571 13.1192 2.63897 13.4754 2.37776 13.738C2.11654 14.0007 1.76227 14.1482 1.39286 14.1482C1.02345 14.1482 0.66917 14.0007 0.407958 13.738C0.146747 13.4754 0 13.1192 0 12.7478C0 12.126 0.0427143 11.5117 0.128143 10.9104C0.179699 10.5427 0.374362 10.2107 0.669335 9.98731C0.964308 9.76392 1.33544 9.66744 1.70114 9.7191ZM8.35714 16.445V9.41661C8.35731 9.09844 8.43834 8.7856 8.59253 8.50776C8.74672 8.22992 8.96896 7.99631 9.23816 7.82908C9.50737 7.66185 9.81461 7.56655 10.1307 7.55224C10.4468 7.53792 10.7614 7.60506 11.0444 7.74728L18.0347 11.2615C18.3428 11.4167 18.6018 11.6551 18.7828 11.9499C18.9639 12.2447 19.0597 12.5843 19.0597 12.9308C19.0597 13.2772 18.9639 13.6169 18.7828 13.9117C18.6018 14.2065 18.3428 14.4449 18.0347 14.6001L11.0444 18.1143C10.7614 18.2565 10.4468 18.3236 10.1307 18.3093C9.81461 18.295 9.50737 18.1997 9.23816 18.0325C8.96896 17.8652 8.74672 17.6316 8.59253 17.3538C8.43834 17.076 8.35731 16.7631 8.35714 16.445Z" fill="url(#paint0_linear_0_1)"/>
</g>
</g>
</g>
</g>
<defs>
<linearGradient id="paint0_linear_0_1" x1="13" y1="0" x2="13" y2="25.9934" gradientUnits="userSpaceOnUse">
<stop stop-color="#4EAF90"/>
<stop offset="1" stop-color="#B2D5B2"/>
</linearGradient>
</defs>
</svg>
