<svg width="125" height="26" viewBox="0 0 125 26" fill="none" xmlns="http://www.w3.org/2000/svg">
<path fill-rule="evenodd" clip-rule="evenodd" d="M15.0243 0.0168514C14.8436 -0.0115931 14.659 -0.00397034 14.4813 0.0392845C14.3035 0.0825394 14.1359 0.160579 13.9881 0.268948C13.8403 0.377317 13.7152 0.513893 13.6199 0.670878C13.5246 0.827864 13.461 1.00218 13.4327 1.18388C13.4044 1.36559 13.412 1.55111 13.455 1.72987C13.498 1.90862 13.5757 2.07711 13.6834 2.2257C13.7912 2.3743 13.9271 2.50009 14.0832 2.59591C14.2393 2.69172 14.4127 2.75568 14.5934 2.78412C17.127 3.19432 19.4144 4.54805 21.0008 6.57622C22.5872 8.60439 23.3564 11.1585 23.1557 13.7308C22.9549 16.3031 21.7988 18.7053 19.9172 20.4599C18.0356 22.2144 15.5662 23.1928 13 23.2007C10.9519 23.201 8.95104 22.5826 7.25685 21.4256C5.56267 20.2685 4.25338 18.6263 3.49886 16.712C3.43549 16.5356 3.33755 16.3739 3.21086 16.2364C3.08416 16.0988 2.93129 15.9882 2.7613 15.9112C2.59131 15.8342 2.40767 15.7922 2.22126 15.7879C2.03485 15.7835 1.84947 15.8168 1.67611 15.8859C1.50274 15.9549 1.34493 16.0582 1.21202 16.1897C1.07911 16.3212 0.973808 16.4782 0.902362 16.6513C0.830916 16.8245 0.794777 17.0103 0.796089 17.1978C0.797401 17.3853 0.836137 17.5706 0.91 17.7427C2.02571 20.5686 4.0861 22.9153 6.7367 24.3789C9.38729 25.8425 12.4623 26.3315 15.4328 25.7618C18.4032 25.1921 21.0833 23.5993 23.012 21.2575C24.9406 18.9157 25.9972 15.9712 26 12.9308C25.9999 9.81671 24.8942 6.80494 22.8821 4.43753C20.87 2.07011 18.0836 0.502507 15.0243 0.0168514ZM11.4474 1.09426C11.4932 1.27253 11.5036 1.45813 11.4779 1.64043C11.4523 1.82273 11.3911 1.99816 11.298 2.15668C11.2048 2.3152 11.0815 2.4537 10.9351 2.56424C10.7886 2.67479 10.622 2.75522 10.4446 2.80093C9.97931 2.92129 9.52316 3.0748 9.07957 3.26027C8.91068 3.33089 8.72961 3.36737 8.5467 3.36764C8.36379 3.3679 8.18262 3.33193 8.01353 3.2618C7.84444 3.19166 7.69074 3.08873 7.56122 2.95887C7.4317 2.82901 7.32888 2.67478 7.25864 2.50497C7.1884 2.33516 7.15212 2.1531 7.15186 1.96919C7.1516 1.78529 7.18737 1.60313 7.25712 1.43312C7.32688 1.26311 7.42926 1.10858 7.55841 0.978349C7.68757 0.848121 7.84097 0.744745 8.00986 0.674125C8.57071 0.438851 9.152 0.242789 9.75186 0.087807C9.92904 0.0420608 10.1134 0.0318544 10.2946 0.0577709C10.4757 0.0836874 10.6499 0.145219 10.8074 0.238852C10.9648 0.332485 11.1024 0.456385 11.2122 0.603477C11.322 0.750568 11.402 0.916104 11.4474 1.09426ZM5.915 3.39658C6.17193 3.6631 6.31313 4.02128 6.30755 4.39241C6.30198 4.76354 6.1501 5.11727 5.88529 5.37587C5.19475 6.05257 4.60098 6.82238 4.121 7.66325C4.03271 7.8275 3.91266 7.97234 3.76789 8.08925C3.62312 8.20617 3.45656 8.2928 3.27801 8.34405C3.09945 8.3953 2.91251 8.41014 2.72817 8.38769C2.54383 8.36524 2.36582 8.30596 2.2046 8.21333C2.04337 8.12071 1.9022 7.9966 1.78938 7.84832C1.67656 7.70003 1.59436 7.53056 1.54763 7.34988C1.50089 7.16919 1.49056 6.98093 1.51725 6.79617C1.54393 6.61141 1.60708 6.43388 1.703 6.27402C2.31123 5.20374 3.06647 4.22501 3.94643 3.3667C4.21151 3.10837 4.56774 2.96641 4.93686 2.97201C5.30599 2.97761 5.6578 3.13032 5.915 3.39658ZM1.70114 9.7191C2.06682 9.77094 2.39705 9.96666 2.61924 10.2632C2.84143 10.5598 2.93738 10.933 2.886 11.3007C2.81902 11.7801 2.78551 12.2636 2.78571 12.7478C2.78571 13.1192 2.63897 13.4754 2.37776 13.738C2.11654 14.0007 1.76227 14.1482 1.39286 14.1482C1.02345 14.1482 0.66917 14.0007 0.407958 13.738C0.146747 13.4754 0 13.1192 0 12.7478C0 12.126 0.0427143 11.5117 0.128143 10.9104C0.179699 10.5427 0.374362 10.2107 0.669335 9.98731C0.964308 9.76392 1.33544 9.66744 1.70114 9.7191ZM8.35714 16.445V9.41661C8.35731 9.09844 8.43834 8.7856 8.59253 8.50776C8.74672 8.22992 8.96896 7.99631 9.23816 7.82908C9.50737 7.66185 9.81461 7.56655 10.1307 7.55224C10.4468 7.53792 10.7614 7.60506 11.0444 7.74728L18.0347 11.2615C18.3428 11.4167 18.6018 11.6551 18.7828 11.9499C18.9639 12.2447 19.0597 12.5843 19.0597 12.9308C19.0597 13.2772 18.9639 13.6169 18.7828 13.9117C18.6018 14.2065 18.3428 14.4449 18.0347 14.6001L11.0444 18.1143C10.7614 18.2565 10.4468 18.3236 10.1307 18.3093C9.81461 18.295 9.50737 18.1997 9.23816 18.0325C8.96896 17.8652 8.74672 17.6316 8.59253 17.3538C8.43834 17.076 8.35731 16.7631 8.35714 16.445Z" fill="url(#paint0_linear_615_21489)"/>
<path d="M36.72 17.9991V6.79914H40.08V15.2471H44.368L43.408 17.9991H36.72ZM45.047 8.67115V6.47915H48.087V8.67115H45.047ZM45.047 17.9991V9.59914H48.087V17.9991H45.047ZM50.5896 16.2711L48.7656 9.59914H52.0936L53.3416 15.2951H53.8216L55.0376 9.59914H58.2376L55.8216 17.9991H52.9256C51.7096 17.9991 50.9576 17.6151 50.5896 16.2711ZM63.5464 11.8711H61.8504V12.9271H63.5464V11.8711ZM58.8104 16.0311V11.5671C58.8104 10.4951 59.7064 9.59914 60.7784 9.59914H64.4584C65.5304 9.59914 66.4264 10.4951 66.4264 11.5671V12.6551C66.4264 13.7271 65.5304 14.6231 64.4584 14.6231H61.8504V15.5671H66.5864L65.6264 17.9991H60.7784C59.7064 17.9991 58.8104 17.1031 58.8104 16.0311ZM77.9858 17.9991H70.7538L71.7138 15.2471H76.5778V13.5831H73.1858C72.0498 13.5831 71.2338 12.7671 71.2338 11.6311V8.75115C71.2338 7.61514 72.0498 6.79914 73.1858 6.79914H80.0978L79.1378 9.55115H74.5938V11.2151H77.9858C79.1218 11.2151 79.9378 12.0311 79.9378 13.1671V16.0471C79.9378 17.1831 79.1218 17.9991 77.9858 17.9991ZM85.5701 17.9991H83.6021C82.5301 17.9991 81.6341 17.1031 81.6341 16.0311V12.0311H80.6901L81.6341 9.59914V8.23915H84.6741V9.59914H86.4821L85.5221 12.0311H84.6741V15.5671H86.5301L85.5701 17.9991ZM87.2494 17.9991V11.5671C87.2494 10.4951 88.1454 9.59914 89.2174 9.59914H93.0094L92.0494 12.0311H90.2894V17.9991H87.2494ZM98.1558 11.8711H96.4598V12.9271H98.1558V11.8711ZM93.4198 16.0311V11.5671C93.4198 10.4951 94.3158 9.59914 95.3878 9.59914H99.0678C100.14 9.59914 101.036 10.4951 101.036 11.5671V12.6551C101.036 13.7271 100.14 14.6231 99.0678 14.6231H96.4598V15.5671H101.196L100.236 17.9991H95.3878C94.3158 17.9991 93.4198 17.1031 93.4198 16.0311ZM104.876 15.7271H106.572V14.6711H104.876V15.7271ZM101.996 16.0311V14.9431C101.996 13.8711 102.892 12.9751 103.964 12.9751H106.572V12.0311H101.996L102.956 9.59914H107.644C108.716 9.59914 109.612 10.4951 109.612 11.5671V17.9991H103.964C102.892 17.9991 101.996 17.1031 101.996 16.0311ZM110.922 9.59914H121.818C122.89 9.59914 123.786 10.4951 123.786 11.5671V17.9991H120.746V12.0311H118.874V17.9991H115.834V12.0311H113.962V17.9991H110.922V9.59914Z" fill="url(#paint1_linear_615_21489)"/>
<defs>
<linearGradient id="paint0_linear_615_21489" x1="13" y1="0" x2="13" y2="25.9934" gradientUnits="userSpaceOnUse">
<stop stop-color="#4EAF90"/>
<stop offset="1" stop-color="#B2D5B2"/>
</linearGradient>
<linearGradient id="paint1_linear_615_21489" x1="80.5" y1="2.99915" x2="80.5" y2="22.9991" gradientUnits="userSpaceOnUse">
<stop stop-color="#4EAF90"/>
<stop offset="1" stop-color="#B2D5B2"/>
</linearGradient>
</defs>
</svg>
