<svg width="91" height="14" viewBox="0 0 91 14" fill="none" xmlns="http://www.w3.org/2000/svg">
<path d="M0.0113636 12.9991V1.36278H2.47159V10.9707H7.46023V12.9991H0.0113636ZM9.04403 12.9991V4.27187H11.4645V12.9991H9.04403ZM10.2599 3.14687C9.90009 3.14687 9.59138 3.02755 9.33381 2.78892C9.08002 2.54649 8.95312 2.25672 8.95312 1.9196C8.95312 1.58627 9.08002 1.30028 9.33381 1.06165C9.59138 0.819221 9.90009 0.698009 10.2599 0.698009C10.6198 0.698009 10.9266 0.819221 11.1804 1.06165C11.438 1.30028 11.5668 1.58627 11.5668 1.9196C11.5668 2.25672 11.438 2.54649 11.1804 2.78892C10.9266 3.02755 10.6198 3.14687 10.2599 3.14687ZM21.5398 4.27187L18.4886 12.9991H15.7614L12.7102 4.27187H15.267L17.0795 10.5162H17.1705L18.9773 4.27187H21.5398ZM26.4744 13.1696C25.5767 13.1696 24.804 12.9878 24.1562 12.6241C23.5123 12.2567 23.0161 11.7378 22.6676 11.0673C22.3191 10.3931 22.1449 9.59574 22.1449 8.67528C22.1449 7.77755 22.3191 6.98968 22.6676 6.31165C23.0161 5.63362 23.5066 5.10521 24.1392 4.72642C24.7756 4.34763 25.5218 4.15824 26.3778 4.15824C26.9536 4.15824 27.4896 4.25104 27.9858 4.43665C28.4858 4.61846 28.9214 4.89308 29.2926 5.26051C29.6676 5.62793 29.9593 6.09005 30.1676 6.64687C30.3759 7.1999 30.4801 7.84763 30.4801 8.59005V9.25483H23.1108V7.75483H28.2017C28.2017 7.40634 28.1259 7.09763 27.9744 6.82869C27.8229 6.55975 27.6127 6.34952 27.3438 6.19801C27.0786 6.04271 26.7699 5.96505 26.4176 5.96505C26.0502 5.96505 25.7244 6.05028 25.4403 6.22074C25.16 6.3874 24.9403 6.61278 24.7812 6.89687C24.6222 7.17718 24.5407 7.48968 24.5369 7.83437V9.26051C24.5369 9.69233 24.6165 10.0654 24.7756 10.3798C24.9384 10.6942 25.1676 10.9366 25.4631 11.1071C25.7585 11.2776 26.1089 11.3628 26.5142 11.3628C26.7831 11.3628 27.0294 11.3249 27.2528 11.2491C27.4763 11.1734 27.6676 11.0598 27.8267 10.9082C27.9858 10.7567 28.107 10.5711 28.1903 10.3514L30.429 10.4991C30.3153 11.037 30.0824 11.5067 29.7301 11.9082C29.3816 12.306 28.9309 12.6166 28.3778 12.8401C27.8286 13.0598 27.1941 13.1696 26.4744 13.1696ZM42.1207 4.70937C42.0753 4.25104 41.8802 3.89498 41.5355 3.64119C41.1908 3.3874 40.723 3.26051 40.1321 3.26051C39.7306 3.26051 39.3916 3.31733 39.1151 3.43096C38.8385 3.54081 38.6264 3.69422 38.4787 3.89119C38.3348 4.08816 38.2628 4.31165 38.2628 4.56165C38.2552 4.76998 38.2988 4.9518 38.3935 5.1071C38.492 5.2624 38.6264 5.39687 38.7969 5.51051C38.9673 5.62036 39.1643 5.71695 39.3878 5.80028C39.6113 5.87983 39.8499 5.94801 40.1037 6.00483L41.1491 6.25483C41.6567 6.36846 42.1226 6.51998 42.5469 6.70937C42.9711 6.89877 43.3385 7.13172 43.6491 7.40824C43.9598 7.68475 44.2003 8.01051 44.3707 8.38551C44.545 8.76051 44.634 9.19043 44.6378 9.67528C44.634 10.3874 44.4522 11.0048 44.0923 11.5276C43.7363 12.0465 43.2211 12.4499 42.5469 12.7378C41.8764 13.0219 41.0677 13.1639 40.1207 13.1639C39.1813 13.1639 38.3632 13.02 37.6662 12.7321C36.973 12.4442 36.4313 12.0181 36.0412 11.4537C35.6548 10.8855 35.4522 10.1829 35.4332 9.34574H37.8139C37.8404 9.73589 37.9522 10.0616 38.1491 10.323C38.3499 10.5806 38.617 10.7757 38.9503 10.9082C39.2874 11.037 39.6681 11.1014 40.0923 11.1014C40.509 11.1014 40.8707 11.0408 41.1776 10.9196C41.4882 10.7984 41.7287 10.6298 41.8991 10.4139C42.0696 10.198 42.1548 9.9499 42.1548 9.6696C42.1548 9.40824 42.0772 9.18854 41.9219 9.01051C41.7704 8.83248 41.5469 8.68096 41.2514 8.55596C40.9598 8.43096 40.6018 8.31733 40.1776 8.21505L38.9105 7.89687C37.9295 7.65824 37.1548 7.28513 36.5866 6.77755C36.0185 6.26998 35.7363 5.58627 35.7401 4.72642C35.7363 4.02187 35.9238 3.40634 36.3026 2.87983C36.6851 2.35331 37.2098 1.94233 37.8764 1.64687C38.5431 1.35142 39.3007 1.20369 40.1491 1.20369C41.0128 1.20369 41.7666 1.35142 42.4105 1.64687C43.0582 1.94233 43.562 2.35331 43.9219 2.87983C44.2817 3.40634 44.4673 4.01619 44.4787 4.70937H42.1207ZM50.8892 4.27187V6.09005H45.6335V4.27187H50.8892ZM46.8267 2.18096H49.2472V10.3173C49.2472 10.5408 49.2813 10.7151 49.3494 10.8401C49.4176 10.9613 49.5123 11.0465 49.6335 11.0957C49.7585 11.145 49.9025 11.1696 50.0653 11.1696C50.179 11.1696 50.2926 11.1601 50.4062 11.1412C50.5199 11.1185 50.607 11.1014 50.6676 11.0901L51.0483 12.8912C50.9271 12.9291 50.7566 12.9726 50.5369 13.0219C50.3172 13.0749 50.0502 13.1071 49.7358 13.1185C49.1525 13.1412 48.6411 13.0635 48.2017 12.8855C47.7661 12.7075 47.4271 12.431 47.1847 12.056C46.9422 11.681 46.8229 11.2075 46.8267 10.6355V2.18096ZM52.4659 12.9991V4.27187H54.8125V5.7946H54.9034C55.0625 5.25293 55.3295 4.84384 55.7045 4.56733C56.0795 4.28702 56.5114 4.14687 57 4.14687C57.1212 4.14687 57.2519 4.15445 57.392 4.1696C57.5322 4.18475 57.6553 4.20558 57.7614 4.2321V6.37983C57.6477 6.34574 57.4905 6.31543 57.2898 6.28892C57.089 6.2624 56.9053 6.24915 56.7386 6.24915C56.3826 6.24915 56.0644 6.3268 55.7841 6.4821C55.5076 6.63362 55.2879 6.84574 55.125 7.11846C54.9659 7.39119 54.8864 7.70558 54.8864 8.06165V12.9991H52.4659ZM62.5838 13.1696C61.6861 13.1696 60.9134 12.9878 60.2656 12.6241C59.6217 12.2567 59.1255 11.7378 58.777 11.0673C58.4285 10.3931 58.2543 9.59574 58.2543 8.67528C58.2543 7.77755 58.4285 6.98968 58.777 6.31165C59.1255 5.63362 59.616 5.10521 60.2486 4.72642C60.8849 4.34763 61.6312 4.15824 62.4872 4.15824C63.063 4.15824 63.599 4.25104 64.0952 4.43665C64.5952 4.61846 65.0308 4.89308 65.402 5.26051C65.777 5.62793 66.0687 6.09005 66.277 6.64687C66.4853 7.1999 66.5895 7.84763 66.5895 8.59005V9.25483H59.2202V7.75483H64.3111C64.3111 7.40634 64.2353 7.09763 64.0838 6.82869C63.9323 6.55975 63.7221 6.34952 63.4531 6.19801C63.188 6.04271 62.8793 5.96505 62.527 5.96505C62.1596 5.96505 61.8338 6.05028 61.5497 6.22074C61.2694 6.3874 61.0497 6.61278 60.8906 6.89687C60.7315 7.17718 60.6501 7.48968 60.6463 7.83437V9.26051C60.6463 9.69233 60.7259 10.0654 60.8849 10.3798C61.0478 10.6942 61.277 10.9366 61.5724 11.1071C61.8679 11.2776 62.2183 11.3628 62.6236 11.3628C62.8925 11.3628 63.1387 11.3249 63.3622 11.2491C63.5857 11.1734 63.777 11.0598 63.9361 10.9082C64.0952 10.7567 64.2164 10.5711 64.2997 10.3514L66.5384 10.4991C66.4247 11.037 66.1918 11.5067 65.8395 11.9082C65.491 12.306 65.0402 12.6166 64.4872 12.8401C63.938 13.0598 63.3035 13.1696 62.5838 13.1696ZM70.6577 13.1639C70.1009 13.1639 69.6046 13.0673 69.169 12.8741C68.7334 12.6772 68.3887 12.3874 68.1349 12.0048C67.8849 11.6185 67.7599 11.1374 67.7599 10.5616C67.7599 10.0768 67.849 9.6696 68.027 9.34005C68.205 9.01051 68.4474 8.74536 68.7543 8.5446C69.0611 8.34384 69.4096 8.19233 69.7997 8.09005C70.1937 7.98778 70.6065 7.91581 71.0384 7.87415C71.5459 7.82112 71.955 7.77187 72.2656 7.72642C72.5762 7.67718 72.8016 7.60521 72.9418 7.51051C73.0819 7.41581 73.152 7.27566 73.152 7.09005V7.05596C73.152 6.69612 73.0384 6.41771 72.8111 6.22074C72.5876 6.02377 72.2694 5.92528 71.8565 5.92528C71.4209 5.92528 71.0743 6.02187 70.8168 6.21505C70.5592 6.40445 70.3887 6.64308 70.3054 6.93096L68.0668 6.74915C68.1804 6.21884 68.4039 5.76051 68.7372 5.37415C69.0705 4.98399 69.5005 4.68475 70.027 4.47642C70.5573 4.2643 71.1709 4.15824 71.8679 4.15824C72.3527 4.15824 72.8168 4.21505 73.2599 4.32869C73.7069 4.44233 74.1027 4.61846 74.4474 4.8571C74.7959 5.09574 75.0705 5.40255 75.2713 5.77755C75.4721 6.14877 75.5724 6.59384 75.5724 7.11278V12.9991H73.277V11.7889H73.2088C73.0687 12.0616 72.8812 12.3022 72.6463 12.5105C72.4115 12.7151 72.1293 12.876 71.7997 12.9935C71.4702 13.1071 71.0895 13.1639 70.6577 13.1639ZM71.3509 11.4935C71.7069 11.4935 72.0213 11.4234 72.294 11.2832C72.5668 11.1393 72.7808 10.9461 72.9361 10.7037C73.0914 10.4613 73.169 10.1866 73.169 9.87983V8.95369C73.0933 9.00293 72.9891 9.04839 72.8565 9.09005C72.7277 9.12793 72.5819 9.16392 72.419 9.19801C72.2562 9.22831 72.0933 9.25672 71.9304 9.28324C71.7675 9.30596 71.6198 9.3268 71.4872 9.34574C71.2031 9.3874 70.955 9.45369 70.7429 9.5446C70.5308 9.63551 70.366 9.75862 70.2486 9.91392C70.1312 10.0654 70.0724 10.2548 70.0724 10.4821C70.0724 10.8116 70.1918 11.0635 70.4304 11.2378C70.6728 11.4082 70.9796 11.4935 71.3509 11.4935ZM77.4503 12.9991V4.27187H79.7571V5.81165H79.8594C80.0412 5.30028 80.3442 4.89687 80.7685 4.60142C81.1927 4.30596 81.7003 4.15824 82.2912 4.15824C82.8897 4.15824 83.3991 4.30786 83.8196 4.6071C84.2401 4.90255 84.5204 5.30407 84.6605 5.81165H84.7514C84.9295 5.31165 85.2514 4.91202 85.7173 4.61278C86.187 4.30975 86.742 4.15824 87.3821 4.15824C88.1965 4.15824 88.8575 4.41771 89.3651 4.93665C89.8764 5.4518 90.1321 6.18286 90.1321 7.12983V12.9991H87.7173V7.6071C87.7173 7.12225 87.5885 6.75862 87.331 6.51619C87.0734 6.27377 86.7514 6.15255 86.3651 6.15255C85.9257 6.15255 85.5829 6.29271 85.3366 6.57301C85.0904 6.84952 84.9673 7.21505 84.9673 7.6696V12.9991H82.6207V7.55596C82.6207 7.12793 82.4976 6.78702 82.2514 6.53324C82.009 6.27945 81.6889 6.15255 81.2912 6.15255C81.0223 6.15255 80.7798 6.22074 80.5639 6.3571C80.3518 6.48968 80.1832 6.67718 80.0582 6.9196C79.9332 7.15824 79.8707 7.43854 79.8707 7.76051V12.9991H77.4503Z" fill="url(#paint0_linear_965_40)"/>
<defs>
<linearGradient id="paint0_linear_965_40" x1="45.5" y1="-2.00085" x2="45.5" y2="16.9991" gradientUnits="userSpaceOnUse">
<stop stop-color="#4EAF90"/>
<stop offset="1" stop-color="#B2D5B2"/>
</linearGradient>
</defs>
</svg>
