<svg width="9" height="13" viewBox="0 0 9 13" fill="none" xmlns="http://www.w3.org/2000/svg">
<path fill-rule="evenodd" clip-rule="evenodd" d="M0 6.07074C0 5.34982 0.577567 4.76183 1.28571 4.76183H1.93359V4.10676V2.79847C1.93359 1.35152 3.07868 0.180664 4.5 0.180664C5.92132 0.180664 7.07143 1.35152 7.07143 2.79847V4.76183H7.71429C8.42243 4.76183 9 5.34982 9 6.07074V10.8718C9 11.5927 8.42243 12.1807 7.71429 12.1807H1.28571C0.577567 12.1807 0 11.5927 0 10.8718V6.07074ZM4.41193 10.1545C4.64797 10.1545 4.83881 9.96017 4.83881 9.71986V7.53665C4.83881 7.29634 4.64797 7.10205 4.41193 7.10205C4.17589 7.10205 3.98506 7.29634 3.98506 7.53665V9.71986C3.98003 9.95506 4.17589 10.1545 4.41193 10.1545ZM2.78701 2.79647C2.78701 1.83014 3.55543 1.05298 4.49963 1.05298C5.44383 1.05298 6.21225 1.83525 6.21225 2.79647V4.75981H2.78701V4.10475V2.79647Z" fill="url(#paint0_linear_179_12149)"/>
<defs>
<linearGradient id="paint0_linear_179_12149" x1="4.5" y1="0.180664" x2="4.5" y2="12.1807" gradientUnits="userSpaceOnUse">
<stop offset="0.36" stop-color="#929EA6"/>
<stop offset="0.385" stop-color="#F4BF04"/>
</linearGradient>
</defs>
</svg>
