<svg width="259" height="228" viewBox="0 0 259 228" fill="none" xmlns="http://www.w3.org/2000/svg">
<path d="M245.064 3.10114C264.743 12.3901 263.258 39.2793 242.65 47.9164C236.895 50.1979 224.642 50.5239 129.958 50.5239C12.4389 50.5239 15.7806 50.8498 6.31224 39.9311C-0.37132 32.1089 -1.2996 22.005 4.08438 13.2049C12.4388 -0.647048 6.68356 0.0048259 129.958 0.0048259C232.254 0.0048259 238.937 0.16778 245.064 3.10114ZM231.697 92.2427C242.465 96.9687 249.519 103.487 255.089 114.08C258.616 120.762 258.988 124.347 258.988 157.266C258.988 183.666 258.245 194.747 256.389 199.473C253.233 207.459 241.165 219.192 231.14 223.755C223.899 227.34 222.228 227.34 124.017 227.829C13.5528 228.318 15.9663 228.481 6.49789 217.725C-2.78483 206.97 0.742622 188.555 13.5528 180.244C18.5654 176.984 21.7215 176.821 102.667 176.006C165.232 175.355 187.697 174.703 190.667 173.073C201.992 167.532 204.034 153.517 195.123 144.717L189.739 139.339L105.452 138.525C25.249 137.71 20.9789 137.547 14.8523 134.451C7.79747 130.865 0 119.295 0 112.613C0 105.606 6.86921 95.3391 14.2954 91.5909C21.3502 88.1686 22.0928 88.0056 121.789 88.0056H222.043L231.697 92.2427Z" fill="url(#paint0_linear_39_911)"/>
<defs>
<linearGradient id="paint0_linear_39_911" x1="129.679" y1="414.098" x2="129.679" y2="4.93643e-05" gradientUnits="userSpaceOnUse">
<stop offset="0.5" stop-color="#5FCBDE" stop-opacity="0.83"/>
<stop offset="0.605" stop-color="#82D3CB" stop-opacity="0.94"/>
<stop offset="0.73" stop-color="#A8E1C0" stop-opacity="0.88"/>
<stop offset="0.82" stop-color="#D8EFAD" stop-opacity="0.85"/>
<stop offset="0.85" stop-color="#C7EAB3" stop-opacity="0.925"/>
<stop offset="0.96" stop-color="#D8EFAD"/>
</linearGradient>
</defs>
</svg>
