<svg width="12" height="13" viewBox="0 0 12 13" fill="none" xmlns="http://www.w3.org/2000/svg">
<path fill-rule="evenodd" clip-rule="evenodd" d="M10.1669 5.30777V4.45867L6.00001 2.71878L5.59149 2.88936V10.831L6.00001 11.0016L6.4085 10.831V7.29346H7.49998V6.50883L6.4085 6.50883V3.74531L8.35455 4.55432V10.0184L9.17156 9.67729V4.89397L10.1669 5.30777ZM11.0184 9.77833V9.78314L6.00001 11.8786L0.981628 9.78314V9.77833L0.957892 9.76842V3.95228L0.981628 3.94237V3.93721L6.00001 1.8418L11.0184 3.93721V3.94238L11.0421 3.95228V9.76842L11.0184 9.77833ZM2.7504 4.07565L3.90686 7.61717V3.59277L4.72387 3.25163V10.4687L3.90686 10.1276V10.0911L3.864 10.1035L2.65057 6.38752V9.60302L1.83356 9.26188V4.45848L2.7504 4.07565ZM12 10.3551V3.36564L6 0.860352L0 3.36564V10.3551L6 12.8604L12 10.3551Z" fill="#68758C"/>
</svg>
