<svg width="76" height="12" viewBox="0 0 76 12" fill="none" xmlns="http://www.w3.org/2000/svg">
<path opacity="0.9" d="M11.9652 5.98687C11.9652 7.26717 11.719 8.3524 11.2266 9.24255C10.7341 10.1327 10.0675 10.8088 9.22656 11.271C8.38944 11.7331 7.45005 11.9641 6.40838 11.9641C5.36293 11.9641 4.42164 11.7312 3.58452 11.2653C2.7474 10.7994 2.08262 10.1232 1.5902 9.23687C1.10156 8.34672 0.857244 7.26339 0.857244 5.98687C0.857244 4.70657 1.10156 3.62134 1.5902 2.73119C2.08262 1.84104 2.7474 1.1649 3.58452 0.702781C4.42164 0.240659 5.36293 0.00959873 6.40838 0.00959873C7.45005 0.00959873 8.38944 0.240659 9.22656 0.702781C10.0675 1.1649 10.7341 1.84104 11.2266 2.73119C11.719 3.62134 11.9652 4.70657 11.9652 5.98687ZM9.0902 5.98687C9.0902 5.2293 8.98224 4.58914 8.76634 4.06642C8.55421 3.54369 8.2474 3.14786 7.84588 2.87892C7.44815 2.60998 6.96899 2.47551 6.40838 2.47551C5.85156 2.47551 5.3724 2.60998 4.97088 2.87892C4.56937 3.14786 4.26065 3.54369 4.04474 4.06642C3.83262 4.58914 3.72656 5.2293 3.72656 5.98687C3.72656 6.74445 3.83262 7.3846 4.04474 7.90733C4.26065 8.43005 4.56937 8.82589 4.97088 9.09483C5.3724 9.36377 5.85156 9.49824 6.40838 9.49824C6.96899 9.49824 7.44815 9.36377 7.84588 9.09483C8.2474 8.82589 8.55421 8.43005 8.76634 7.90733C8.98224 7.3846 9.0902 6.74445 9.0902 5.98687ZM23.5107 0.16869V11.8051H21.1243L16.4936 5.08914H16.4197V11.8051H13.6072V0.16869H16.0277L20.6072 6.87324H20.7038V0.16869H23.5107ZM28.7166 11.8051V0.16869H33.5234C34.3946 0.16869 35.1465 0.325887 35.7791 0.640281C36.4155 0.950887 36.906 1.39786 37.2507 1.98119C37.5954 2.56074 37.7678 3.24824 37.7678 4.04369C37.7678 4.85051 37.5916 5.53611 37.2393 6.10051C36.8871 6.66111 36.3871 7.08914 35.7393 7.3846C35.0916 7.67627 34.3246 7.8221 33.4382 7.8221H30.3984V5.60619H32.9155C33.3397 5.60619 33.6939 5.55127 33.978 5.44142C34.2659 5.32778 34.4837 5.15733 34.6314 4.93005C34.7791 4.69899 34.853 4.40354 34.853 4.04369C34.853 3.68384 34.7791 3.38649 34.6314 3.15164C34.4837 2.91301 34.2659 2.73498 33.978 2.61755C33.6901 2.49634 33.3359 2.43574 32.9155 2.43574H31.5291V11.8051H28.7166ZM35.2678 6.48687L38.1655 11.8051H35.0973L32.2564 6.48687H35.2678ZM41.8274 11.8051H38.8047L42.7308 0.16869H46.4751L50.4013 11.8051H47.3786L44.6456 3.10051H44.5547L41.8274 11.8051ZM41.424 7.22551H47.7422V9.36187H41.424V7.22551ZM51.6541 0.16869H55.1371L58.0916 7.37324H58.228L61.1825 0.16869H64.6655V11.8051H61.9268V4.65733H61.8303L59.0348 11.7312H57.2848L54.4893 4.61755H54.3928V11.8051H51.6541V0.16869ZM66.4197 11.8051V0.16869H71.2266C72.0978 0.16869 72.8497 0.339144 73.4822 0.680054C74.1186 1.01717 74.6091 1.48877 74.9538 2.09483C75.2985 2.6971 75.4709 3.39786 75.4709 4.1971C75.4709 5.00013 75.2947 5.70278 74.9425 6.30505C74.594 6.90354 74.0959 7.36755 73.4482 7.6971C72.8004 8.02664 72.0315 8.19142 71.1413 8.19142H68.1754V5.97551H70.6186C71.0429 5.97551 71.397 5.90164 71.6811 5.75392C71.969 5.60619 72.1868 5.39975 72.3345 5.1346C72.4822 4.86566 72.5561 4.55316 72.5561 4.1971C72.5561 3.83725 72.4822 3.52664 72.3345 3.26528C72.1868 3.00013 71.969 2.79558 71.6811 2.65164C71.3932 2.50771 71.0391 2.43574 70.6186 2.43574H69.2322V11.8051H66.4197Z" fill="url(#paint0_linear_965_443)"/>
<defs>
<linearGradient id="paint0_linear_965_443" x1="38.6016" y1="-0.194946" x2="38.6016" y2="11.8051" gradientUnits="userSpaceOnUse">
<stop stop-color="#4EAF90"/>
<stop offset="1" stop-color="#B2D5B2"/>
</linearGradient>
</defs>
</svg>
