<svg width="248" height="91" viewBox="0 0 248 91" fill="none" xmlns="http://www.w3.org/2000/svg">
<rect x="0.05" y="0.05" width="244.9" height="39.9" rx="7.95" fill="#121D28" fill-opacity="0.35"/>
<rect x="0.05" y="0.05" width="244.9" height="39.9" rx="7.95" stroke="black" stroke-width="0.1"/>
<path opacity="0.9" d="M95.9652 19.9869C95.9652 21.2672 95.719 22.3524 95.2266 23.2426C94.7341 24.1327 94.0675 24.8088 93.2266 25.271C92.3894 25.7331 91.45 25.9641 90.4084 25.9641C89.3629 25.9641 88.4216 25.7312 87.5845 25.2653C86.7474 24.7994 86.0826 24.1232 85.5902 23.2369C85.1016 22.3467 84.8572 21.2634 84.8572 19.9869C84.8572 18.7066 85.1016 17.6213 85.5902 16.7312C86.0826 15.841 86.7474 15.1649 87.5845 14.7028C88.4216 14.2407 89.3629 14.0096 90.4084 14.0096C91.45 14.0096 92.3894 14.2407 93.2266 14.7028C94.0675 15.1649 94.7341 15.841 95.2266 16.7312C95.719 17.6213 95.9652 18.7066 95.9652 19.9869ZM93.0902 19.9869C93.0902 19.2293 92.9822 18.5891 92.7663 18.0664C92.5542 17.5437 92.2474 17.1479 91.8459 16.8789C91.4482 16.61 90.969 16.4755 90.4084 16.4755C89.8516 16.4755 89.3724 16.61 88.9709 16.8789C88.5694 17.1479 88.2607 17.5437 88.0447 18.0664C87.8326 18.5891 87.7266 19.2293 87.7266 19.9869C87.7266 20.7444 87.8326 21.3846 88.0447 21.9073C88.2607 22.4301 88.5694 22.8259 88.9709 23.0948C89.3724 23.3638 89.8516 23.4982 90.4084 23.4982C90.969 23.4982 91.4482 23.3638 91.8459 23.0948C92.2474 22.8259 92.5542 22.4301 92.7663 21.9073C92.9822 21.3846 93.0902 20.7444 93.0902 19.9869ZM107.511 14.1687V25.8051H105.124L100.494 19.0891H100.42V25.8051H97.6072V14.1687H100.028L104.607 20.8732H104.704V14.1687H107.511ZM112.717 25.8051V14.1687H117.523C118.395 14.1687 119.147 14.3259 119.779 14.6403C120.415 14.9509 120.906 15.3979 121.251 15.9812C121.595 16.5607 121.768 17.2482 121.768 18.0437C121.768 18.8505 121.592 19.5361 121.239 20.1005C120.887 20.6611 120.387 21.0891 119.739 21.3846C119.092 21.6763 118.325 21.8221 117.438 21.8221H114.398V19.6062H116.915C117.34 19.6062 117.694 19.5513 117.978 19.4414C118.266 19.3278 118.484 19.1573 118.631 18.9301C118.779 18.699 118.853 18.4035 118.853 18.0437C118.853 17.6838 118.779 17.3865 118.631 17.1516C118.484 16.913 118.266 16.735 117.978 16.6176C117.69 16.4963 117.336 16.4357 116.915 16.4357H115.529V25.8051H112.717ZM119.268 20.4869L122.165 25.8051H119.097L116.256 20.4869H119.268ZM125.827 25.8051H122.805L126.731 14.1687H130.475L134.401 25.8051H131.379L128.646 17.1005H128.555L125.827 25.8051ZM125.424 21.2255H131.742V23.3619H125.424V21.2255ZM135.654 14.1687H139.137L142.092 21.3732H142.228L145.183 14.1687H148.665V25.8051H145.927V18.6573H145.83L143.035 25.7312H141.285L138.489 18.6176H138.393V25.8051H135.654V14.1687ZM150.42 25.8051V14.1687H155.227C156.098 14.1687 156.85 14.3391 157.482 14.6801C158.119 15.0172 158.609 15.4888 158.954 16.0948C159.299 16.6971 159.471 17.3979 159.471 18.1971C159.471 19.0001 159.295 19.7028 158.942 20.3051C158.594 20.9035 158.096 21.3676 157.448 21.6971C156.8 22.0266 156.031 22.1914 155.141 22.1914H152.175V19.9755H154.619C155.043 19.9755 155.397 19.9016 155.681 19.7539C155.969 19.6062 156.187 19.3998 156.335 19.1346C156.482 18.8657 156.556 18.5532 156.556 18.1971C156.556 17.8373 156.482 17.5266 156.335 17.2653C156.187 17.0001 155.969 16.7956 155.681 16.6516C155.393 16.5077 155.039 16.4357 154.619 16.4357H153.232V25.8051H150.42Z" fill="url(#paint0_linear_736_55530)"/>
<g clip-path="url(#clip0_736_55530)">
<path fill-rule="evenodd" clip-rule="evenodd" d="M28.9027 70.888H25.7578L27.7248 59.046H30.8695L28.9027 70.888Z" fill="#1767EE"/>
<path fill-rule="evenodd" clip-rule="evenodd" d="M40.3049 59.3355C39.6845 59.0959 38.7007 58.8313 37.4842 58.8313C34.3785 58.8313 32.1915 60.4437 32.1781 62.749C32.1523 64.4499 33.7439 65.3946 34.9343 65.9617C36.151 66.5412 36.5646 66.9195 36.5646 67.436C36.5522 68.2293 35.5814 68.595 34.676 68.595C33.4204 68.595 32.7477 68.4065 31.7253 67.9651L31.3112 67.7759L30.8711 70.4342C31.6087 70.7614 32.9676 71.0517 34.3785 71.0644C37.6783 71.0644 39.8266 69.4769 39.852 67.0203C39.8646 65.6722 39.0242 64.6393 37.2123 63.7952C36.1123 63.2534 35.4387 62.888 35.4387 62.3336C35.4516 61.8296 36.0085 61.3134 37.2501 61.3134C38.2725 61.2881 39.0237 61.5274 39.5927 61.7668L39.8772 61.8926L40.3049 59.3355Z" fill="#1767EE"/>
<path d="M44.4828 66.6928C44.7418 66.0125 45.7384 63.3795 45.7384 63.3795C45.7253 63.4048 45.9969 62.6867 46.1522 62.2458L46.3719 63.2662C46.3719 63.2662 46.9675 66.1008 47.0968 66.6928C46.6053 66.6928 45.104 66.6928 44.4828 66.6928ZM48.3648 59.046H45.9322C45.1821 59.046 44.6122 59.26 44.2885 60.0286L39.6172 70.8878H42.917C42.917 70.8878 43.4603 69.4263 43.577 69.1115H47.6148C47.7051 69.5272 47.99 70.8878 47.99 70.8878H50.9019L48.3648 59.046Z" fill="#1767EE"/>
<path fill-rule="evenodd" clip-rule="evenodd" d="M23.1316 59.046L20.0517 67.1211L19.7152 65.4834C19.1458 63.5937 17.36 61.5405 15.3672 60.5197L18.1882 70.8755H21.5139L26.4571 59.046H23.1316Z" fill="#1767EE"/>
<path fill-rule="evenodd" clip-rule="evenodd" d="M17.1936 59.046H12.1338L12.082 59.2853C16.029 60.268 18.643 62.6368 19.717 65.4839L18.617 60.0414C18.4359 59.2851 17.8794 59.071 17.1936 59.046Z" fill="#EC982D"/>
</g>
<g clip-path="url(#clip1_736_55530)">
<path fill-rule="evenodd" clip-rule="evenodd" d="M85.0781 59.1093H92.2987V70.7349H85.0781V59.1093Z" fill="#FF5F00"/>
<path fill-rule="evenodd" clip-rule="evenodd" d="M85.8202 64.9231C85.8184 62.6548 86.8747 60.5117 88.6847 59.1113C85.6097 56.7291 81.194 57.0761 78.5407 59.9084C75.8875 62.7407 75.8875 67.1075 78.5407 69.9398C81.194 72.7721 85.6097 73.1191 88.6847 70.7369C86.8741 69.336 85.8177 67.192 85.8202 64.9231Z" fill="#EB001B"/>
<path d="M100.115 69.8005V69.3172H100.23V69.2172H99.957V69.3172H100.065V69.8005H100.115ZM100.645 69.8005V69.2172H100.562L100.466 69.6338L100.37 69.2172H100.287V69.8005H100.347V69.3588L100.436 69.738H100.498L100.587 69.3588V69.8005H100.645Z" fill="#F79E1B"/>
<path fill-rule="evenodd" clip-rule="evenodd" d="M100.819 64.923C100.819 67.7536 99.1789 70.3357 96.5962 71.5726C94.0134 72.8096 90.9409 72.4842 88.6836 70.7348C90.4928 69.3331 91.5492 67.1903 91.5492 64.922C91.5492 62.6536 90.4928 60.5108 88.6836 59.1091C90.9409 57.3597 94.0134 57.0343 96.5962 58.2713C99.1789 59.5082 100.819 62.0903 100.819 64.9209V64.923Z" fill="#F79E1B"/>
</g>
<g clip-path="url(#clip2_736_55530)">
<path d="M133.812 59.002C133.343 59.5566 132.593 59.994 131.843 59.9315C131.749 59.1816 132.117 58.3848 132.546 57.8927C133.015 57.3225 133.835 56.9163 134.499 56.885C134.577 57.6662 134.273 58.4317 133.812 59.002ZM134.492 60.08C133.406 60.0175 132.476 60.6971 131.96 60.6971C131.437 60.6971 130.648 60.1112 129.788 60.1268C128.671 60.1424 127.632 60.7752 127.062 61.7829C125.89 63.7983 126.757 66.7823 127.89 68.4227C128.445 69.2351 129.109 70.1257 129.984 70.0944C130.812 70.0632 131.14 69.5554 132.14 69.5554C133.148 69.5554 133.437 70.0944 134.312 70.0788C135.218 70.0632 135.788 69.2664 136.343 68.454C136.976 67.5322 137.234 66.6339 137.249 66.587C137.234 66.5714 135.499 65.9074 135.484 63.9076C135.468 62.236 136.851 61.4392 136.913 61.3923C136.132 60.2362 134.913 60.1112 134.492 60.08ZM140.765 57.8146V69.9929H142.656V65.8293H145.273C147.663 65.8293 149.343 64.1889 149.343 61.8141C149.343 59.4394 147.695 57.8146 145.335 57.8146H140.765ZM142.656 59.4082H144.835C146.476 59.4082 147.413 60.2831 147.413 61.8219C147.413 63.3608 146.476 64.2435 144.827 64.2435H142.656V59.4082ZM152.796 70.0866C153.984 70.0866 155.085 69.4851 155.585 68.5321H155.624V69.9929H157.374V63.9311C157.374 62.1735 155.968 61.0408 153.804 61.0408C151.796 61.0408 150.312 62.1891 150.257 63.767H151.96C152.101 63.0171 152.796 62.525 153.749 62.525C154.906 62.525 155.554 63.064 155.554 64.0561V64.7279L153.195 64.8685C150.999 65.0013 149.812 65.8996 149.812 67.4619C149.812 69.0399 151.038 70.0866 152.796 70.0866ZM153.304 68.6415C152.296 68.6415 151.656 68.1571 151.656 67.415C151.656 66.6495 152.273 66.2042 153.452 66.1339L155.554 66.0011V66.6886C155.554 67.8291 154.585 68.6415 153.304 68.6415ZM159.71 73.305C161.554 73.305 162.421 72.6019 163.179 70.4694L166.499 61.158H164.577L162.351 68.3524H162.312L160.085 61.158H158.109L161.312 70.0241L161.14 70.5631C160.851 71.4771 160.382 71.8286 159.546 71.8286C159.398 71.8286 159.109 71.813 158.992 71.7973V73.2581C159.101 73.2894 159.57 73.305 159.71 73.305Z" fill="#E6E7E7" fill-opacity="0.75"/>
</g>
<g clip-path="url(#clip3_736_55530)">
<path d="M210.601 64.9014V69.8495H209.031V57.63H213.193C213.69 57.6196 214.184 57.7077 214.647 57.8893C215.109 58.0709 215.531 58.3423 215.888 58.6878C216.249 59.0124 216.536 59.4105 216.73 59.8553C216.925 60.3001 217.021 60.7814 217.014 61.2667C217.024 61.7546 216.929 62.239 216.735 62.6866C216.54 63.1343 216.252 63.5346 215.888 63.8602C215.16 64.5543 214.262 64.9011 213.193 64.9005H210.601V64.9014ZM210.601 59.1344V63.4H213.232C213.521 63.4085 213.808 63.3567 214.075 63.248C214.343 63.1392 214.584 62.9757 214.785 62.7682C214.984 62.5741 215.143 62.3419 215.251 62.0855C215.36 61.829 215.416 61.5534 215.416 61.275C215.416 60.9965 215.36 60.7209 215.251 60.4645C215.143 60.208 214.984 59.9759 214.785 59.7818C214.587 59.5698 214.346 59.4024 214.078 59.2906C213.811 59.1788 213.522 59.1253 213.232 59.1334H210.601V59.1344Z" fill="#E6E7E7" fill-opacity="0.75"/>
<path d="M220.631 61.2159C221.791 61.2159 222.707 61.526 223.378 62.1461C224.049 62.7662 224.384 63.6164 224.384 64.6967V69.8495H222.883V68.6892H222.814C222.165 69.6447 221.3 70.1225 220.222 70.1225C219.301 70.1225 218.531 69.8495 217.911 69.3035C217.613 69.0529 217.375 68.739 217.215 68.3848C217.054 68.0306 216.974 67.645 216.981 67.256C216.981 66.3909 217.308 65.7028 217.961 65.192C218.615 64.6811 219.488 64.425 220.579 64.4237C221.511 64.4237 222.279 64.5943 222.882 64.9355V64.5767C222.884 64.3116 222.826 64.0493 222.714 63.809C222.602 63.5687 222.438 63.3563 222.234 63.1874C221.819 62.8129 221.278 62.6085 220.719 62.6151C219.842 62.6151 219.149 62.9849 218.638 63.7246L217.256 62.8539C218.016 61.7619 219.141 61.2159 220.631 61.2159ZM218.601 67.2901C218.6 67.4899 218.646 67.687 218.737 67.8651C218.828 68.0432 218.959 68.197 219.121 68.3139C219.468 68.587 219.899 68.7316 220.341 68.7234C221.003 68.7223 221.638 68.4586 222.106 67.9902C222.626 67.5007 222.886 66.9265 222.886 66.2674C222.396 65.8774 221.714 65.6824 220.839 65.6824C220.201 65.6824 219.67 65.8361 219.244 66.1435C218.814 66.4555 218.601 66.8348 218.601 67.2901Z" fill="#E6E7E7" fill-opacity="0.75"/>
<path d="M232.998 61.489L227.758 73.535H226.138L228.082 69.3201L224.637 61.489H226.342L228.833 67.495H228.867L231.289 61.489H232.998Z" fill="#E6E7E7" fill-opacity="0.75"/>
<path d="M204.259 63.8349C204.259 63.3565 204.219 62.8789 204.138 62.4075H197.52V65.1111H201.31C201.233 65.5429 201.068 65.9546 200.828 66.3212C200.587 66.6878 200.274 67.0019 199.909 67.2444V68.9994H202.171C203.495 67.7777 204.259 65.9711 204.259 63.8349Z" fill="#4285F4"/>
<path d="M197.52 70.6948C199.414 70.6948 201.009 70.0728 202.172 69.0003L199.909 67.2453C199.28 67.6724 198.469 67.9161 197.52 67.9161C195.69 67.9161 194.136 66.6818 193.581 65.0184H191.25V66.827C191.834 67.9897 192.73 68.9671 193.837 69.6501C194.944 70.3331 196.219 70.6948 197.52 70.6948Z" fill="#34A853"/>
<path d="M193.582 65.0185C193.288 64.1469 193.288 63.203 193.582 62.3314V60.5228H191.251C190.76 61.5009 190.504 62.5803 190.504 63.675C190.504 64.7696 190.76 65.849 191.251 66.8271L193.582 65.0185Z" fill="#FBBC04"/>
<path d="M197.52 59.4337C198.521 59.4174 199.488 59.7956 200.212 60.4867L202.215 58.4831C200.945 57.2898 199.263 56.6346 197.52 56.655C196.219 56.6551 194.944 57.0168 193.837 57.6998C192.73 58.3828 191.834 59.3601 191.25 60.5228L193.581 62.3314C194.136 60.6681 195.69 59.4337 197.52 59.4337Z" fill="#EA4335"/>
</g>
<defs>
<linearGradient id="paint0_linear_736_55530" x1="122.602" y1="13.8051" x2="122.602" y2="25.8051" gradientUnits="userSpaceOnUse">
<stop stop-color="#4EAF90"/>
<stop offset="1" stop-color="#B2D5B2"/>
</linearGradient>
<clipPath id="clip0_736_55530">
<rect width="39" height="12.83" fill="white" transform="translate(12 58.6801)"/>
</clipPath>
<clipPath id="clip1_736_55530">
<rect width="27.5" height="18.19" fill="white" transform="translate(75 56)"/>
</clipPath>
<clipPath id="clip2_736_55530">
<rect width="40" height="16.42" fill="white" transform="translate(126.5 56.885)"/>
</clipPath>
<clipPath id="clip3_736_55530">
<rect width="42.5" height="16.88" fill="white" transform="translate(190.5 56.655)"/>
</clipPath>
</defs>
</svg>
