<svg width="55" height="40" viewBox="0 0 55 40" fill="none" xmlns="http://www.w3.org/2000/svg">
<rect width="55" height="40" fill="#F5F5F5"/>
<g id="Sedona Rooms - Light Mode">
<path d="M-658 -1062C-658 -1063.1 -657.105 -1064 -656 -1064H14621C14622.1 -1064 14623 -1063.1 14623 -1062V1196C14623 1197.1 14622.1 1198 14621 1198H-656C-657.104 1198 -658 1197.1 -658 1196V-1062Z" fill="#404040"/>
<path d="M-656 -1063H14621V-1065H-656V-1063ZM14622 -1062V1196H14624V-1062H14622ZM14621 1197H-656V1199H14621V1197ZM-657 1196V-1062H-659V1196H-657ZM-656 1197C-656.552 1197 -657 1196.55 -657 1196H-659C-659 1197.66 -657.657 1199 -656 1199V1197ZM14622 1196C14622 1196.55 14621.6 1197 14621 1197V1199C14622.7 1199 14624 1197.66 14624 1196H14622ZM14621 -1063C14621.6 -1063 14622 -1062.55 14622 -1062H14624C14624 -1063.66 14622.7 -1065 14621 -1065V-1063ZM-656 -1065C-657.657 -1065 -659 -1063.66 -659 -1062H-657C-657 -1062.55 -656.552 -1063 -656 -1063V-1065Z" fill="black" fill-opacity="0.1"/>
<g id="Frame">
<rect width="1440" height="1170" transform="translate(-27 -518)" fill="#1C2936"/>
<g id="Group 101197">
<g id="div.css-1rqoxtp">
<path d="M-27 -438H242V332H-27V-438Z" fill="#16202B" fill-opacity="0.4"/>
<path d="M241.85 -438V332H242.15V-438H241.85Z" fill="#68758C" fill-opacity="0.25"/>
</g>
<g id="Component 18">
<g id="Rat Roulette">
<rect x="-10" y="-15.3772" width="241" height="70.6629" rx="12" fill="#CBD7FF" fill-opacity="0.01"/>
<rect x="-10" y="-15.3772" width="241" height="70.6629" rx="12" stroke="black" stroke-width="0.1"/>
<g id="Vector">
<path d="M5.24335 36.9502C4.7144 36.6965 4.19112 36.4265 3.71482 36.084C1.80574 34.7112 0.430286 33.0187 0.0921174 30.7929C-0.107736 29.4775 0.0564549 28.0979 0.217515 26.763C0.403635 25.2204 1.00168 23.7752 1.79654 22.3812C2.08142 21.8816 2.0169 21.2157 2.08458 20.6231C2.32827 18.4899 2.99809 16.4542 3.86716 14.4711C4.94984 12.0006 6.35902 9.67933 8.29711 7.66892C10.3628 5.52613 12.7703 3.73074 16.0289 3.36143C17.618 3.18132 19.2687 3.32463 20.8801 3.4447C23.0523 3.60655 24.953 4.59526 26.9785 5.20908C28 5.51868 29.0974 5.67616 30.175 5.77597C31.7779 5.92444 33.3611 5.79211 34.8661 5.18441C35.7372 4.83269 35.8 4.76195 35.6249 3.92299C35.4404 3.03904 35.9818 1.2879 36.9301 0.872305C37.6962 0.536511 38.469 0.602145 39.2473 0.710322C40.6155 0.900482 41.7849 1.535 42.9859 2.10155C43.3105 2.25464 43.6967 2.3751 44.0575 2.38159C46.5458 2.42636 48.9949 2.71453 51.3244 3.50389C52.2307 3.81101 53.0574 4.34742 53.8568 4.85944C54.9261 5.54436 54.9051 7.22203 54.5021 8.08087C53.8539 9.46235 52.6887 10.4447 51.4117 11.3206C49.5315 12.61 47.4092 13.4376 45.0698 13.8128C44.8817 13.843 44.6689 14.0354 44.5738 14.2014C43.7315 15.6715 42.9624 17.177 42.0713 18.6222C41.4338 19.6562 40.6193 20.6007 39.4726 21.2434C38.9985 21.5091 39.0565 21.9062 39.1415 22.2591C39.1788 22.414 39.5228 22.5713 39.7542 22.6161C40.8725 22.8326 41.9543 23.102 42.8682 23.7674C44.0216 24.6071 44.2501 25.8346 43.8357 26.918C43.5704 27.6118 42.7652 27.8004 42.0237 27.8142C40.0381 27.851 38.0508 27.844 36.0652 27.8096C35.7646 27.8043 35.4108 27.614 35.1812 27.4162C34.0656 26.4547 32.9846 25.4608 31.8896 24.48C31.5884 24.2103 30.385 24.248 30.1465 24.5503C30.0868 24.626 30.1349 24.7785 30.1524 24.8934C30.199 25.1982 30.2685 25.5004 30.3066 25.8058C30.4996 27.3499 29.4502 27.8029 28.0868 27.8229C26.223 27.8501 24.3584 27.8299 22.4941 27.83C19.6039 27.83 16.7136 27.8154 13.8236 27.8373C12.7285 27.8455 11.9506 27.3837 11.4007 26.6101C11.1314 26.2313 10.808 26.0896 10.3618 26.0805C9.83284 26.0698 9.30016 26.1097 8.77513 26.0674C8.12087 26.0148 7.62654 26.2235 7.23587 26.6728C6.46903 27.5545 5.83229 28.5238 6.04814 29.6673C6.15048 30.2095 6.59234 30.754 7.02285 31.1819C8.13529 32.2876 9.52853 33.0679 11.0188 33.7135C12.4025 34.313 13.8337 34.7815 15.3876 34.7391C16.6539 34.7046 17.9286 34.6293 19.1782 34.4515C22.4234 33.9899 25.5784 33.1877 28.7004 32.278C29.3647 32.0845 29.9727 32.2175 30.1902 32.5668C30.4609 33.0014 30.3289 33.5568 29.8429 34.0032C26.857 36.7457 23.2478 38.4228 19.0344 39.0151C15.4369 39.5208 11.8639 39.3364 8.40607 38.3035C7.31311 37.977 6.29308 37.4538 5.24335 36.9502ZM19.0061 5.13491C18.6805 5.1333 18.3527 5.15286 18.0297 5.12649C16.4628 4.99862 15.0163 5.37021 13.6691 6.03575C11.2777 7.21708 9.56852 9.03138 8.14544 11.0688C6.71873 13.1114 5.57677 15.2839 4.90934 17.6274C4.55468 18.8727 4.24603 20.1397 4.08471 21.4141C3.98301 22.2175 3.89428 22.9628 3.44752 23.699C2.27923 25.6241 2.03666 27.7331 2.08797 29.8916C2.10945 30.7953 2.3912 31.6151 2.87484 32.3835C4.10534 34.3383 6.08301 35.4769 8.32928 36.2772C10.8669 37.1813 13.5176 37.4459 16.2414 37.3882C18.2563 37.3454 20.1754 36.979 22.0528 36.3777C22.3405 36.2855 22.2323 35.8712 21.9332 35.9134C20.5069 36.1149 19.0941 36.3352 17.6747 36.5125C16.0625 36.7139 14.4318 36.7128 12.8433 36.3225C9.86322 35.5904 7.27819 34.2446 5.19305 32.1838C4.55213 31.5503 4.00786 30.8349 3.93269 29.9314C3.80648 28.4144 4.30643 27.0626 5.28258 25.8356C6.08029 24.8328 7.0424 24.1675 8.53227 24.3077C9.35771 24.3854 10.1996 24.3259 11.0341 24.321C11.8641 24.3161 12.5518 24.6705 12.9135 25.2671C13.3186 25.9353 13.8845 26.0754 14.6071 26.0754C18.4946 26.0755 22.3821 26.0828 26.2696 26.068C26.4441 26.0674 26.6185 26.0594 26.7941 26.0469C27.5501 25.9933 28.0293 25.1034 27.2982 24.9037C26.5507 24.6996 25.781 24.5126 25.007 24.4457C23.7496 24.3371 23.37 24.0738 23.3525 23.0163C23.3226 21.1975 22.6798 19.5617 21.5699 18.0583C20.8707 17.1112 20.0554 16.267 19.0008 15.6173C18.4462 15.2757 18.2862 14.5846 18.6198 14.1721C18.9373 13.7794 19.6575 13.6651 20.1326 14.0522C21.1319 14.8664 22.1654 15.6744 23.0014 16.6162C24.4207 18.2151 25.0945 20.125 25.4276 22.1356C25.4522 22.2837 25.5724 22.5068 25.699 22.5403C27.1193 22.9163 28.5448 23.0648 29.9944 22.6088C30.4154 22.4763 30.5121 22.3423 30.3032 21.9917C29.9969 21.4777 29.7018 20.9567 29.4375 20.4245C29.1658 19.8775 29.3391 19.319 29.7946 19.1358C30.4162 18.8857 30.9819 19.0756 31.3018 19.6449C31.7043 20.361 32.0933 21.0835 32.5095 21.7931C32.7536 22.2093 32.9702 22.6636 33.3194 23.0001C34.3037 23.9488 35.3391 24.8559 36.3822 25.7533C36.5785 25.9222 36.8998 26.0504 37.1697 26.0605C38.145 26.0968 39.1237 26.0952 40.0996 26.0669C40.1198 26.0663 40.14 26.0656 40.1602 26.0649C41.0771 26.0305 41.5661 24.985 40.6709 24.7837C39.793 24.5862 38.8951 24.4496 37.9981 24.3343C37.401 24.2575 37.1431 23.9901 37.1476 23.4651C37.1553 22.5698 37.1569 21.6744 37.1468 20.7791C37.1422 20.366 37.3249 20.0924 37.7577 19.931C38.6312 19.6053 39.2208 18.9843 39.7614 18.3214C41.1258 16.6479 42.075 14.7809 42.8843 12.8529C43.0882 12.3673 43.3569 12.0556 43.9945 12.0124C45.759 11.8926 47.3874 11.3805 48.8998 10.5528C50.226 9.827 51.4606 9.02151 52.3041 7.81136C52.9322 6.91021 52.803 6.30558 51.796 5.75133C51.5046 5.59091 51.1816 5.47232 50.8631 5.35676C48.6923 4.56917 46.4115 4.3172 44.094 4.25998C43.2533 4.23923 42.468 4.14365 41.7482 3.66531C41.234 3.32356 40.6163 3.08777 40.0126 2.87982C39.4925 2.70064 38.9319 2.59414 38.3785 2.528C38.2119 2.5081 37.9222 2.69299 37.8379 2.84897C37.4057 3.64877 37.8884 5.39686 38.6603 5.97133C39.1279 6.31932 39.2562 7.06362 38.9105 7.42266C38.6085 7.7364 37.7715 7.74014 37.3338 7.43195C37.1116 7.2755 36.8881 7.12057 36.6646 6.96562C36.4732 6.83292 36.2648 6.72271 36.0392 6.78037C34.8949 7.07272 33.7659 7.51798 32.6005 7.61783C29.84 7.85437 27.1462 7.5163 24.6041 6.42015C22.8756 5.67487 21.0558 5.1986 19.0061 5.13491Z" fill="#FFE714"/>
<path d="M19.1264 4.88496C21.1017 4.94965 22.9068 5.43372 24.6212 6.19123C27.1427 7.30535 29.8146 7.64897 32.5527 7.40855C33.7087 7.30705 34.8285 6.8545 35.9634 6.55736C36.1876 6.49866 36.3934 6.61036 36.5823 6.74458C36.8045 6.90242 37.0267 7.06024 37.2475 7.21962C37.6817 7.53286 38.5119 7.52906 38.8115 7.21017C39.1544 6.84525 39.0271 6.08874 38.5633 5.73505C37.7977 5.15116 37.3189 3.37441 37.7476 2.56149C37.8312 2.40295 38.1186 2.21503 38.2838 2.23526C38.8327 2.30248 39.3887 2.41073 39.9047 2.59285C40.5034 2.8042 41.1161 3.04386 41.6261 3.39122C42.3401 3.8774 43.119 3.97454 43.9529 3.99564C46.2516 4.0538 48.5138 4.3099 50.667 5.1104C50.983 5.22785 51.3034 5.34839 51.5924 5.51144C52.5912 6.07478 52.7193 6.68932 52.0963 7.60525C51.2597 8.83525 50.0351 9.65394 48.7197 10.3917C47.2195 11.2329 45.6044 11.7534 43.8542 11.8751C43.2217 11.9191 42.9552 12.2359 42.7531 12.7294C41.9503 14.6891 41.0088 16.5867 39.6554 18.2876C39.1193 18.9614 38.5344 19.5926 37.6681 19.9236C37.2387 20.0876 37.0575 20.3657 37.0621 20.7857C37.0721 21.6956 37.0705 22.6057 37.0629 23.5156C37.0584 24.0493 37.3143 24.3211 37.9065 24.3991C38.7962 24.5163 39.6868 24.6552 40.5576 24.8559C41.4572 25.0632 40.9544 26.1259 40.0318 26.1588C40.0182 26.1593 40.0046 26.1597 39.9909 26.1601C39.0229 26.1889 38.0521 26.1905 37.0848 26.1536C36.817 26.1434 36.4984 26.013 36.3037 25.8413C35.269 24.9292 34.2421 24.0072 33.2657 23.043C32.9193 22.701 32.7046 22.2392 32.4625 21.8163C32.0496 21.095 31.6637 20.3607 31.2645 19.6328C30.9472 19.0542 30.3861 18.8612 29.7696 19.1154C29.3178 19.3016 29.1458 19.8692 29.4154 20.4252C29.6776 20.9662 29.9703 21.4957 30.274 22.0181C30.4812 22.3745 30.3853 22.5107 29.9678 22.6453C28.5299 23.1088 27.116 22.9579 25.7072 22.5757C25.5817 22.5416 25.4624 22.3149 25.4381 22.1643C25.1076 20.1208 24.4393 18.1796 23.0315 16.5544C22.2023 15.5972 21.1771 14.776 20.186 13.9484C19.7148 13.5549 19.0004 13.6711 18.6854 14.0703C18.3546 14.4895 18.5133 15.192 19.0634 15.5392C20.1094 16.1995 20.9181 17.0576 21.6116 18.0202C22.7126 19.5482 23.3501 21.2108 23.3798 23.0595C23.3971 24.1344 23.7737 24.4019 25.0208 24.5124C25.7885 24.5803 26.552 24.7704 27.2934 24.9779C28.0289 25.1837 27.5367 26.0872 26.7749 26.1412C26.607 26.1531 26.4401 26.1606 26.2731 26.1613C22.4173 26.1763 18.5613 26.1689 14.7054 26.1688C13.9886 26.1688 13.4273 26.0264 13.0255 25.3472C12.6667 24.7408 11.9846 24.3806 11.1614 24.3856C10.3337 24.3906 9.49858 24.451 8.67984 24.3721C7.20206 24.2296 6.24776 24.9058 5.45653 25.925C4.4883 27.1722 3.99241 28.5461 4.1176 30.088C4.19216 31.0063 4.73201 31.7335 5.36772 32.3773C7.43594 34.4719 9.99998 35.8397 12.9558 36.5839C14.5315 36.9806 16.149 36.9817 17.748 36.777C19.1541 36.597 20.5536 36.3735 21.9663 36.1689C22.2695 36.1251 22.3817 36.5444 22.0907 36.6399C20.2284 37.2512 18.325 37.6236 16.3263 37.667C13.6247 37.7257 10.9955 37.4568 8.4785 36.5379C6.25046 35.7245 4.28885 34.5672 3.06834 32.5803C2.58862 31.7993 2.30915 30.966 2.28785 30.0475C2.23696 27.8536 2.47756 25.7101 3.63636 23.7534C4.0795 23.0051 4.16751 22.2476 4.26839 21.431C4.42839 20.1358 4.73454 18.8479 5.08632 17.5823C5.74833 15.2003 6.88102 12.9922 8.29615 10.9161C9.70768 8.84528 11.403 7.00123 13.7749 5.80053C15.1113 5.12407 16.546 4.74639 18.1001 4.87636C18.4206 4.90315 18.7457 4.88328 19.1264 4.88496ZM46.5202 5.41161C46.2816 5.26739 45.9988 5.21726 45.72 5.22048C45.0811 5.22785 44.4932 5.61209 44.3565 6.10963C44.1725 6.77923 44.436 7.43692 45.0161 7.75616C45.4855 8.01444 46.3591 7.93731 46.7655 7.6017C47.5559 6.94887 47.4416 5.96857 46.5202 5.41161Z" fill="#FFC700"/>
</g>
</g>
</g>
</g>
</g>
</g>
</svg>
