<svg xmlns="http://www.w3.org/2000/svg" width="22" height="22" viewBox="0 0 22 22" fill="none">
  <path d="M4.125 5.84375C4.125 4.8409 4.52338 3.87912 5.2325 3.17C5.94162 2.46088 6.9034 2.0625 7.90625 2.0625C8.9091 2.0625 9.87088 2.46088 10.58 3.17C11.2891 3.87912 11.6875 4.8409 11.6875 5.84375C11.6875 6.8466 11.2891 7.80838 10.58 8.5175C9.87088 9.22662 8.9091 9.625 7.90625 9.625C6.9034 9.625 5.94162 9.22662 5.2325 8.5175C4.52338 7.80838 4.125 6.8466 4.125 5.84375ZM13.0625 7.90625C13.0625 7.49997 13.1425 7.09767 13.298 6.72232C13.4535 6.34697 13.6814 6.00592 13.9686 5.71864C14.2559 5.43136 14.597 5.20347 14.9723 5.048C15.3477 4.89252 15.75 4.8125 16.1562 4.8125C16.5625 4.8125 16.9648 4.89252 17.3402 5.048C17.7155 5.20347 18.0566 5.43136 18.3439 5.71864C18.6311 6.00592 18.859 6.34697 19.0145 6.72232C19.17 7.09767 19.25 7.49997 19.25 7.90625C19.25 8.72676 18.9241 9.51367 18.3439 10.0939C17.7637 10.6741 16.9768 11 16.1562 11C15.3357 11 14.5488 10.6741 13.9686 10.0939C13.3884 9.51367 13.0625 8.72676 13.0625 7.90625ZM1.375 17.5312C1.375 15.7991 2.06311 14.1378 3.28796 12.913C4.51281 11.6881 6.17405 11 7.90625 11C9.63844 11 11.2997 11.6881 12.5245 12.913C13.7494 14.1378 14.4375 15.7991 14.4375 17.5312V17.534L14.4366 17.6431C14.4346 17.7597 14.4031 17.8738 14.3449 17.9749C14.2867 18.0759 14.2037 18.1604 14.1038 18.2206C12.2331 19.3471 10.09 19.9408 7.90625 19.9375C5.64025 19.9375 3.51908 19.3105 1.70958 18.2206C1.60953 18.1605 1.5264 18.076 1.46803 17.975C1.40966 17.874 1.37796 17.7597 1.37592 17.6431L1.375 17.5312ZM15.8125 17.534L15.8116 17.666C15.8065 17.9715 15.7335 18.2721 15.598 18.546C17.1982 18.6447 18.7966 18.3256 20.2363 17.6202C20.3477 17.5657 20.4422 17.4822 20.51 17.3785C20.5778 17.2747 20.6162 17.1546 20.6213 17.0307C20.6537 16.2619 20.4869 15.4977 20.1373 14.8122C19.7876 14.1267 19.2668 13.5431 18.6253 13.118C17.9839 12.6928 17.2435 12.4405 16.4759 12.3855C15.7084 12.3305 14.9396 12.4747 14.2441 12.804C15.2645 14.1685 15.8146 15.8274 15.8116 17.5312L15.8125 17.534Z" fill="#858585"/>
</svg>