<svg width="60" height="25" viewBox="0 0 60 25" fill="none" xmlns="http://www.w3.org/2000/svg">
<rect width="60" height="25" rx="1" fill="#0EE520" fill-opacity="0.2"/>
<path d="M14.156 9.064V11.272C14.156 11.98 13.64 12.496 12.932 12.496H12.824L14.672 16H12.08L9.836 11.464H11.636V9.664H9.56V16H7.04V7.6H12.692C13.544 7.6 14.156 8.212 14.156 9.064ZM17.38 14.416H18.892V11.284H17.38V14.416ZM16.576 9.7H19.696C20.5 9.7 21.172 10.372 21.172 11.176V14.524C21.172 15.328 20.5 16 19.696 16H16.576C15.772 16 15.1 15.328 15.1 14.524V11.176C15.1 10.372 15.772 9.7 16.576 9.7ZM24.3175 14.416H25.8295V11.284H24.3175V14.416ZM23.5135 9.7H26.6335C27.4375 9.7 28.1095 10.372 28.1095 11.176V14.524C28.1095 15.328 27.4375 16 26.6335 16H23.5135C22.7095 16 22.0375 15.328 22.0375 14.524V11.176C22.0375 10.372 22.7095 9.7 23.5135 9.7ZM34.255 13.348L35.431 16H32.755L31.879 13.768H31.327V16H29.047V7.36H31.327V11.812H31.879L32.731 9.7H35.311L34.123 12.112C33.931 12.484 33.835 12.676 33.511 12.772C33.835 12.832 34.087 12.976 34.255 13.348ZM36.0548 9.004V7.36H38.3348V9.004H36.0548ZM36.0548 16V9.7H38.3348V16H36.0548ZM42.8278 11.404H41.5558V12.196H42.8278V11.404ZM39.2758 14.524V11.176C39.2758 10.372 39.9478 9.7 40.7518 9.7H43.5118C44.3158 9.7 44.9878 10.372 44.9878 11.176V11.992C44.9878 12.796 44.3158 13.468 43.5118 13.468H41.5558V14.176H45.1078L44.3878 16H40.7518C39.9478 16 39.2758 15.328 39.2758 14.524Z" fill="#0EE520"/>
</svg>
