<svg width="16" height="17" viewBox="0 0 16 17" fill="none" xmlns="http://www.w3.org/2000/svg">
<g clip-path="url(#clip0_179_12107)">
<path d="M3.30957 8.18066C3.30957 7.07606 4.20965 6.18066 5.31996 6.18066H10.681C11.7913 6.18066 12.6914 7.07606 12.6914 8.18066C12.6914 9.28526 11.7913 10.1807 10.681 10.1807H5.31996C4.20965 10.1807 3.30957 9.28526 3.30957 8.18066Z" fill="white"/>
<path d="M11.0851 4.87173C10.9524 4.85584 10.8173 4.84766 10.6803 4.84766H8.66992V2.84766H10.6803C11.5039 2.84766 12.2841 3.03242 12.9815 3.36256L11.0851 4.87173Z" fill="white"/>
<path d="M12.5498 5.41391C13.2665 5.89396 13.7867 6.64232 13.9645 7.51429H16.0004C15.8311 6.1637 15.1541 4.96995 14.1655 4.12793L12.5498 5.41391Z" fill="white"/>
<path d="M4.91491 4.87173C5.04759 4.85584 5.18273 4.84766 5.31967 4.84766H7.33005V2.84766H5.31967C4.49607 2.84766 3.71584 3.03242 3.01855 3.36256L4.91491 4.87173Z" fill="white"/>
<path d="M1.83467 4.12793L3.45045 5.41389C2.73369 5.89394 2.21375 6.64228 2.03591 7.51423H0C0.169332 6.16368 0.846167 4.96994 1.83467 4.12793Z" fill="white"/>
<path d="M3.45045 10.948L1.83467 12.234C0.846167 11.3919 0.169332 10.1982 0 8.84766H2.03591C2.21375 9.71959 2.73369 10.4679 3.45045 10.948Z" fill="white"/>
<path d="M3.01855 12.9994L4.91491 11.4902C5.04759 11.5061 5.18273 11.5143 5.31967 11.5143H7.33005V13.5143H5.31967C4.49607 13.5143 3.71584 13.3296 3.01855 12.9994Z" fill="white"/>
<path d="M11.0851 11.4902L12.9815 12.9994C12.2841 13.3296 11.5039 13.5143 10.6803 13.5143H8.66992V11.5143H10.6803C10.8173 11.5143 10.9524 11.5061 11.0851 11.4902Z" fill="white"/>
<path d="M14.1655 12.234L12.5498 10.9481C13.2665 10.468 13.7867 9.71959 13.9645 8.84766H16.0004C15.8311 10.1983 15.1541 11.392 14.1655 12.234Z" fill="white"/>
</g>
<defs>
<clipPath id="clip0_179_12107">
<rect width="16" height="16" fill="white" transform="translate(0 0.180664)"/>
</clipPath>
</defs>
</svg>
