<svg width="61" height="23" viewBox="0 0 61 23" fill="none" xmlns="http://www.w3.org/2000/svg">
<rect x="-0.00195312" width="61" height="23" rx="1" fill="#F4BF04" fill-opacity="0.2"/>
<path d="M10.542 15H5.11805L5.83805 12.936H9.48605V11.688H6.94205C6.09005 11.688 5.47805 11.076 5.47805 10.224V8.064C5.47805 7.212 6.09005 6.6 6.94205 6.6H12.126L11.406 8.664H7.99805V9.912H10.542C11.394 9.912 12.006 10.524 12.006 11.376V13.536C12.006 14.388 11.394 15 10.542 15ZM16.4703 10.404H15.1983V11.196H16.4703V10.404ZM12.9183 13.524V10.176C12.9183 9.372 13.5903 8.7 14.3943 8.7H17.1543C17.9583 8.7 18.6303 9.372 18.6303 10.176V10.992C18.6303 11.796 17.9583 12.468 17.1543 12.468H15.1983V13.176H18.7503L18.0303 15H14.3943C13.5903 15 12.9183 14.328 12.9183 13.524ZM19.4702 15V10.176C19.4702 9.372 20.1422 8.7 20.9462 8.7H23.7902L23.0702 10.524H21.7502V15H19.4702ZM29.03 17.304H23.99L24.65 15.6H27.89V14.88H25.574C24.77 14.88 24.098 14.208 24.098 13.404V10.176C24.098 9.372 24.77 8.7 25.574 8.7H30.17V16.164C30.17 16.788 29.654 17.304 29.03 17.304ZM26.378 10.284V13.296H27.89V10.284H26.378ZM34.6578 10.404H33.3858V11.196H34.6578V10.404ZM31.1058 13.524V10.176C31.1058 9.372 31.7778 8.7 32.5818 8.7H35.3418C36.1458 8.7 36.8178 9.372 36.8178 10.176V10.992C36.8178 11.796 36.1458 12.468 35.3418 12.468H33.3858V13.176H36.9378L36.2178 15H32.5818C31.7778 15 31.1058 14.328 31.1058 13.524ZM39.6977 13.296H40.9697V12.504H39.6977V13.296ZM37.5377 13.524V12.708C37.5377 11.904 38.2097 11.232 39.0137 11.232H40.9697V10.524H37.5377L38.2577 8.7H41.7737C42.5777 8.7 43.2497 9.372 43.2497 10.176V15H39.0137C38.2097 15 37.5377 14.328 37.5377 13.524ZM50.4245 10.176V15H48.1445V10.524H46.5125V15H44.2325V8.7H48.9485C49.7525 8.7 50.4245 9.372 50.4245 10.176ZM54.6444 15H53.1684C52.3644 15 51.6924 14.328 51.6924 13.524V10.524H50.9844L51.6924 8.7V7.68H53.9724V8.7H55.3284L54.6084 10.524H53.9724V13.176H55.3644L54.6444 15Z" fill="#F4BF04"/>
</svg>
