<svg width="33" height="33" viewBox="0 0 33 33" fill="none" xmlns="http://www.w3.org/2000/svg">
<path d="M23.8113 4.24175C23.6804 3.94947 23.5641 3.62419 23.4634 3.262L23.3393 3.62628C23.397 4.13256 23.4733 4.57611 23.5648 4.96513L23.8113 4.24175Z" fill="white" stroke="white"/>
<path d="M26.2968 7.14859L26.5044 6.53915C26.2993 6.48703 26.0937 6.42258 25.8907 6.34043L25.4336 7.68238C25.6266 7.76466 25.8313 7.82812 26.0479 7.87939L26.2968 7.14859Z" fill="white" stroke="white"/>
<path d="M29.7677 7.16238C29.5747 7.08015 29.37 7.01673 29.1532 6.96542L28.6968 8.30554C28.902 8.35768 29.1077 8.42214 29.3107 8.50431L29.5166 7.89962L29.7677 7.16238Z" fill="white" stroke="white"/>
<path d="M31.861 11.2204C31.8033 10.7141 31.7269 10.2706 31.6355 9.88154L31.389 10.6049C31.5199 10.8972 31.6362 11.2224 31.7369 11.5846L31.861 11.2204Z" fill="white" stroke="white"/>
<path d="M20.3404 12.4337L20.2162 12.7981C20.2739 13.3043 20.3503 13.7478 20.4418 14.1368L20.6882 13.4133C20.5573 13.1212 20.4411 12.7959 20.3404 12.4337Z" fill="white" stroke="white"/>
<path d="M22.7677 15.5116L22.3106 16.8533C22.5036 16.9356 22.7083 16.999 22.925 17.0503L23.3814 15.7101C23.1763 15.6581 22.9707 15.5937 22.7677 15.5116Z" fill="white" stroke="white"/>
<path d="M26.0304 16.1355L25.5738 17.4756C25.779 17.5277 25.9846 17.5922 26.1877 17.6743C26.3401 17.227 26.4924 16.7797 26.6447 16.3323C26.4517 16.2501 26.247 16.1867 26.0304 16.1355Z" fill="white" stroke="white"/>
<path d="M28.266 19.7744C28.3968 20.0667 28.513 20.3919 28.6138 20.754L28.7378 20.39C28.68 19.8838 28.6037 19.4403 28.5122 19.0512C28.4301 19.2923 28.348 19.5334 28.266 19.7744Z" fill="white" stroke="white"/>
<path d="M24.2259 8.12375C24.0448 7.98217 23.8732 7.81896 23.7123 7.63086L23.3316 8.74845C23.4755 9.00571 23.6313 9.21458 23.796 9.38604L24.2259 8.12375Z" fill="white" stroke="white"/>
<path d="M26.7188 9.0087L26.2677 10.333C26.3408 10.342 26.4147 10.3509 26.4896 10.3598L26.4952 10.3605C26.6346 10.3772 26.7775 10.3943 26.9218 10.4133L27.3729 9.08902C27.2999 9.08002 27.226 9.07117 27.1511 9.06221L27.1454 9.06153C27.0059 9.04485 26.863 9.02775 26.7188 9.0087Z" fill="white" stroke="white"/>
<path d="M30.3093 10.6765C30.1655 10.4195 30.0097 10.2107 29.8451 10.0393L29.4151 11.3015C29.5962 11.4431 29.7678 11.6063 29.9287 11.7943L30.3093 10.6765Z" fill="white" stroke="white"/>
<path d="M22.2486 8.83033C22.1177 8.53822 22.0015 8.21309 21.9008 7.85103L21.7768 8.21515C21.8344 8.72125 21.9107 9.16474 22.0021 9.55375L22.2486 8.83033Z" fill="white" stroke="white"/>
<path d="M24.5609 12.2462C24.6876 11.874 24.8143 11.502 24.941 11.1299C24.7358 11.0778 24.5302 11.0134 24.3273 10.9312L23.8701 12.2732C24.0632 12.3554 24.2679 12.4188 24.4846 12.4701C24.51 12.3954 24.5354 12.3208 24.5609 12.2462Z" fill="white" stroke="white"/>
<path d="M27.7482 13.0942L28.2054 11.7524C28.0124 11.6701 27.8077 11.6067 27.5909 11.5554L27.1344 12.8956C27.3396 12.9477 27.5452 13.0121 27.7482 13.0942Z" fill="white" stroke="white"/>
<path d="M30.0728 14.4685L29.8265 15.1918C29.9574 15.484 30.0736 15.8091 30.1743 16.1712L30.2983 15.807C30.2406 15.3009 30.1643 14.8575 30.0728 14.4685Z" fill="white" stroke="white"/>
<path d="M22.6624 12.7146C22.4813 12.573 22.3097 12.4097 22.1488 12.2216L21.7682 13.3393C21.912 13.5965 22.0679 13.8054 22.2325 13.9769L22.6624 12.7146Z" fill="white" stroke="white"/>
<path d="M25.5794 13.6519C25.4408 13.6353 25.2988 13.6183 25.1555 13.5994L24.7043 14.9236C24.7774 14.9326 24.8514 14.9415 24.9263 14.9505L24.932 14.9512C25.0714 14.9679 25.2143 14.985 25.3585 15.0041L25.8095 13.6798C25.7364 13.6707 25.6625 13.6619 25.5875 13.6529L25.5794 13.6519Z" fill="white" stroke="white"/>
<path d="M28.7451 15.2644C28.6012 15.0071 28.4454 14.7982 28.2807 14.6267L27.8507 15.8891C28.0318 16.0307 28.2034 16.1939 28.3643 16.382L28.7451 15.2644Z" fill="white" stroke="white"/>
<path d="M9.27688 3.26218C9.17614 3.6243 9.05993 3.94953 8.92906 4.24176L9.17545 4.96502C9.26689 4.57602 9.34323 4.13251 9.40091 3.62628L9.27688 3.26218Z" fill="white" stroke="white"/>
<path d="M7.30769 7.6824L6.85058 6.34042C6.64762 6.42257 6.44202 6.48702 6.23686 6.53915L6.69338 7.87941C6.90999 7.82814 7.11466 7.76467 7.30769 7.6824Z" fill="white" stroke="white"/>
<path d="M4.0455 8.30555L3.58903 6.96543C3.37231 7.01674 3.16761 7.08015 2.97459 7.16237L3.43165 8.50431C3.63466 8.42214 3.84031 8.35768 4.0455 8.30555Z" fill="white" stroke="white"/>
<path d="M1.1048 9.88161C1.01336 10.2706 0.937017 10.7141 0.879314 11.2204L1.00336 11.5845C1.1041 11.2224 1.22032 10.8971 1.3512 10.6049L1.1048 9.88161Z" fill="white" stroke="white"/>
<path d="M12.3004 14.1366C12.3919 13.7476 12.4682 13.3042 12.5259 12.7981L12.4018 12.434C12.3011 12.796 12.1849 13.1212 12.0541 13.4133L12.3004 14.1366Z" fill="white" stroke="white"/>
<path d="M9.35994 15.7101L9.81644 17.0503C10.033 16.999 10.2377 16.9356 10.4307 16.8533L9.97367 15.5116C9.77068 15.5937 9.56507 15.6581 9.35994 15.7101Z" fill="white" stroke="white"/>
<path d="M6.09666 16.3323L6.55375 17.6743C6.75679 17.5922 6.96245 17.5277 7.16761 17.4756L6.71108 16.1355C6.49438 16.1867 6.28969 16.2501 6.09666 16.3323Z" fill="white" stroke="white"/>
<path d="M4.00334 20.39L4.12737 20.7541C4.2281 20.392 4.3443 20.0667 4.47517 19.7745L4.22881 19.0513C4.13737 19.4403 4.06103 19.8838 4.00334 20.39Z" fill="white" stroke="white"/>
<path d="M9.40908 8.74846L9.02837 7.63081C8.86746 7.81893 8.69581 7.98215 8.51473 8.12374L8.94472 9.38605C9.10937 9.21458 9.26524 9.00571 9.40908 8.74846Z" fill="white" stroke="white"/>
<path d="M6.25064 10.3598C6.32554 10.3509 6.39947 10.342 6.47256 10.333L6.02147 9.00871C5.87719 9.02775 5.73428 9.04485 5.59484 9.06154L5.58924 9.06221C5.51435 9.07117 5.44044 9.08003 5.36736 9.08902L5.56263 9.66228L5.81845 10.4133C5.96275 10.3943 6.10567 10.3772 6.24514 10.3605L6.25064 10.3598Z" fill="white" stroke="white"/>
<path d="M2.81301 11.7943C2.97389 11.6063 3.1455 11.4431 3.32653 11.3016L2.89655 10.0392C2.73193 10.2107 2.57609 10.4195 2.43226 10.6765L2.81301 11.7943Z" fill="white" stroke="white"/>
<path d="M10.8403 7.85095C10.7396 8.21304 10.6234 8.5382 10.4925 8.83034L10.7389 9.55369C10.8304 9.16469 10.9067 8.72121 10.9644 8.21513L10.8403 7.85095Z" fill="white" stroke="white"/>
<path d="M8.87119 12.2732L8.41409 10.9312C8.21114 11.0133 8.00555 11.0778 7.80039 11.1299L8.25684 12.4701C8.47353 12.4188 8.6782 12.3554 8.87119 12.2732Z" fill="white" stroke="white"/>
<path d="M5.60708 12.8957L5.15052 11.5554C4.93381 11.6067 4.72911 11.6701 4.53608 11.7524L4.99325 13.0942C5.19627 13.0121 5.40191 12.9477 5.60708 12.8957Z" fill="white" stroke="white"/>
<path d="M2.66827 14.4684C2.57684 14.8574 2.50049 15.3009 2.44279 15.807L2.56687 16.1713C2.66761 15.8092 2.78381 15.484 2.91468 15.1918L2.66827 14.4684Z" fill="white" stroke="white"/>
<path d="M10.5918 12.2216C10.4309 12.4098 10.2593 12.573 10.0782 12.7146L10.5082 13.9769C10.6728 13.8054 10.8287 13.5965 10.9726 13.3393L10.5918 12.2216Z" fill="white" stroke="white"/>
<path d="M7.15376 13.6529C7.07884 13.6619 7.0049 13.6707 6.93178 13.6797L7.38287 15.0041C7.52711 14.985 7.66999 14.9679 7.80944 14.9511L7.81492 14.9505C7.88987 14.9415 7.96384 14.9326 8.03699 14.9236L7.58587 13.5994C7.44254 13.6183 7.30055 13.6353 7.16193 13.6519L7.15376 13.6529Z" fill="white" stroke="white"/>
<path d="M4.46002 14.6268C4.29538 14.7982 4.13953 15.0071 3.99571 15.2644L4.37641 16.382C4.53731 16.1939 4.70894 16.0307 4.89 15.8891L4.46002 14.6268Z" fill="white" stroke="white"/>
<mask id="path-37-inside-1_194_14385" fill="white">
<path d="M16.7519 20.1748L23.3065 0.931973C23.4012 0.654375 23.3549 0.288546 23.203 0.115221C23.0512 -0.0581017 22.8515 0.0269909 22.7568 0.304937L16.3702 19.0539L9.98363 0.304937C9.889 0.0269909 9.68917 -0.0581017 9.53733 0.115221C9.38557 0.288546 9.3392 0.654375 9.43386 0.931973L15.9885 20.1744L12.2605 31.1189C12.1658 31.3969 12.2122 31.7624 12.364 31.9357C12.5158 32.1087 12.7156 32.0239 12.8103 31.7463L16.3702 21.2953L19.9302 31.7463C20.0247 32.0239 20.2246 32.1087 20.3765 31.9357C20.5281 31.7624 20.5746 31.3969 20.4799 31.1189L16.7519 20.1748Z"/>
</mask>
<path d="M16.7519 20.1748L23.3065 0.931973C23.4012 0.654375 23.3549 0.288546 23.203 0.115221C23.0512 -0.0581017 22.8515 0.0269909 22.7568 0.304937L16.3702 19.0539L9.98363 0.304937C9.889 0.0269909 9.68917 -0.0581017 9.53733 0.115221C9.38557 0.288546 9.3392 0.654375 9.43386 0.931973L15.9885 20.1744L12.2605 31.1189C12.1658 31.3969 12.2122 31.7624 12.364 31.9357C12.5158 32.1087 12.7156 32.0239 12.8103 31.7463L16.3702 21.2953L19.9302 31.7463C20.0247 32.0239 20.2246 32.1087 20.3765 31.9357C20.5281 31.7624 20.5746 31.3969 20.4799 31.1189L16.7519 20.1748Z" fill="white"/>
<path d="M16.7519 20.1748L15.8053 20.4972L15.6954 20.1748L15.8053 19.8523L16.7519 20.1748ZM23.3065 0.931973L22.3599 0.609535L22.3601 0.609095L23.3065 0.931973ZM22.7568 0.304937L21.8102 -0.0175056L21.8102 -0.0175781L22.7568 0.304937ZM16.3702 19.0539L17.3168 19.3764L16.3702 22.1553L15.4236 19.3764L16.3702 19.0539ZM9.98363 0.304937L9.03704 0.62738L9.03698 0.627218L9.98363 0.304937ZM9.53733 0.115221L8.78495 -0.543514L8.78516 -0.543747L9.53733 0.115221ZM9.43386 0.931973L10.3803 0.609211L10.3804 0.609529L9.43386 0.931973ZM15.9885 20.1744L16.9351 19.852L17.045 20.1744L16.9351 20.4969L15.9885 20.1744ZM12.2605 31.1189L11.3139 30.7966L11.3139 30.7965L12.2605 31.1189ZM12.364 31.9357L11.6124 32.5953L11.6118 32.5946L12.364 31.9357ZM12.8103 31.7463L13.7569 32.0688L13.7568 32.0691L12.8103 31.7463ZM16.3702 21.2953L15.4236 20.9728L16.3702 18.1939L17.3168 20.9728L16.3702 21.2953ZM19.9302 31.7463L20.8768 31.4239L20.8768 31.424L19.9302 31.7463ZM20.3765 31.9357L21.129 32.5942L21.1279 32.5955L20.3765 31.9357ZM20.4799 31.1189L19.5334 31.4415L19.5333 31.4414L20.4799 31.1189ZM15.8053 19.8523L22.3599 0.609537L24.2531 1.25441L17.6985 20.4972L15.8053 19.8523ZM22.3601 0.609095C22.3546 0.625071 22.3549 0.63056 22.3554 0.625099C22.3558 0.620075 22.3557 0.614025 22.3552 0.610136C22.3546 0.60537 22.3549 0.614239 22.3632 0.635691C22.3704 0.654535 22.3936 0.708807 22.4509 0.774237L23.9552 -0.543793C24.209 -0.254082 24.3062 0.0974751 24.3393 0.35885C24.3745 0.637011 24.3558 0.953445 24.253 1.25485L22.3601 0.609095ZM22.4509 0.774237C22.5097 0.841291 22.6239 0.940838 22.804 0.993076C22.9941 1.04822 23.1884 1.02975 23.35 0.96104C23.5003 0.8971 23.5902 0.804668 23.6352 0.746635C23.6812 0.687382 23.6985 0.641546 23.7033 0.627451L21.8102 -0.0175781C21.9034 -0.291077 22.1175 -0.688118 22.567 -0.879333C22.8093 -0.982399 23.0879 -1.00701 23.3611 -0.927761C23.6243 -0.851418 23.8205 -0.69751 23.9552 -0.543793L22.4509 0.774237ZM23.7034 0.62738L17.3168 19.3764L15.4236 18.7315L21.8102 -0.0175056L23.7034 0.62738ZM15.4236 19.3764L9.03704 0.62738L10.9302 -0.0175056L17.3168 18.7315L15.4236 19.3764ZM9.03698 0.627218C9.04182 0.64142 9.05922 0.687338 9.10523 0.746651C9.15031 0.80475 9.24027 0.897163 9.39054 0.961079C9.55201 1.02975 9.74625 1.04821 9.93632 0.993092C10.1164 0.940868 10.2307 0.841328 10.2895 0.774189L8.78516 -0.543747C8.9199 -0.697548 9.11609 -0.851448 9.37931 -0.927776C9.65251 -1.007 9.9311 -0.982395 10.1733 -0.879372C10.6228 -0.688179 10.8371 -0.291122 10.9303 -0.0173454L9.03698 0.627218ZM10.2897 0.773956C10.347 0.708557 10.3701 0.654352 10.3773 0.635584C10.3855 0.614201 10.3859 0.605392 10.3853 0.610201C10.3848 0.614132 10.3846 0.620207 10.385 0.62524C10.3855 0.630711 10.3858 0.62521 10.3803 0.609211L8.48738 1.25473C8.38458 0.953285 8.36588 0.636858 8.40112 0.358788C8.43423 0.0974941 8.53137 -0.253887 8.78495 -0.543514L10.2897 0.773956ZM10.3804 0.609529L16.9351 19.852L15.0419 20.4969L8.48727 1.25442L10.3804 0.609529ZM16.9351 20.4969L13.2071 31.4414L11.3139 30.7965L15.0419 19.852L16.9351 20.4969ZM13.2071 31.4413C13.2125 31.4256 13.2121 31.4203 13.2116 31.4258C13.2112 31.4308 13.2114 31.4369 13.2119 31.4407C13.2125 31.4455 13.2121 31.4366 13.2039 31.4151C13.1966 31.3963 13.1735 31.3421 13.1163 31.2768L11.6118 32.5946C11.3582 32.3051 11.2609 31.9538 11.2278 31.6924C11.1925 31.4141 11.2113 31.0979 11.3139 30.7966L13.2071 31.4413ZM13.1157 31.2761C13.0567 31.2089 12.9425 31.1097 12.7628 31.0576C12.5732 31.0027 12.3793 31.021 12.218 31.0894C12.0678 31.1531 11.9777 31.2454 11.9324 31.3037C11.8863 31.3631 11.8687 31.4092 11.8638 31.4236L13.7568 32.0691C13.6633 32.3431 13.4487 32.7398 12.9991 32.9306C12.4378 33.1687 11.9081 32.9323 11.6124 32.5953L13.1157 31.2761ZM11.8637 31.4239L15.4236 20.9728L17.3168 21.6177L13.7569 32.0688L11.8637 31.4239ZM17.3168 20.9728L20.8768 31.4239L18.9836 32.0688L15.4236 21.6177L17.3168 20.9728ZM20.8768 31.424C20.8719 31.4095 20.8544 31.3633 20.8081 31.3038C20.7628 31.2455 20.6726 31.1531 20.5224 31.0894C20.361 31.0209 20.1672 31.0027 19.9777 31.0576C19.7981 31.1096 19.6839 31.2088 19.625 31.2759L21.1279 32.5955C20.8322 32.9323 20.3026 33.1687 19.7413 32.9306C19.2915 32.7398 19.0769 32.3429 18.9836 32.0686L20.8768 31.424ZM19.6239 31.2771C19.5668 31.3424 19.5437 31.3965 19.5365 31.4153C19.5283 31.4366 19.5279 31.4455 19.5285 31.4407C19.529 31.4368 19.5292 31.4308 19.5288 31.4258C19.5283 31.4203 19.528 31.4257 19.5334 31.4415L21.4265 30.7964C21.5292 31.0979 21.5479 31.4142 21.5126 31.6924C21.4795 31.9538 21.3823 32.3048 21.129 32.5942L19.6239 31.2771ZM19.5333 31.4414L15.8053 20.4972L17.6985 19.8523L21.4265 30.7965L19.5333 31.4414Z" fill="white" mask="url(#path-37-inside-1_194_14385)"/>
</svg>
