<svg width="33" height="33" viewBox="0 0 33 33" fill="none" xmlns="http://www.w3.org/2000/svg">
<path d="M11.9844 4.04604L16.2878 6.60291C16.3688 6.52272 16.4541 6.43967 16.542 6.35419C16.7522 6.14952 16.9768 5.93082 17.1922 5.70356C17.2066 5.68837 17.2211 5.67312 17.2359 5.65776C17.3847 5.50181 17.5429 5.33618 17.6145 5.14515C17.8014 4.64654 17.7684 4.1295 17.7354 3.61064C17.7289 3.50899 17.7224 3.40726 17.7175 3.30558C15.7141 3.11604 13.8028 3.37463 11.9844 4.04604Z" fill="white" fill-opacity="0.8"/>
<path d="M24.9457 6.44609C22.7191 6.69485 20.8069 7.65704 19.0037 8.8535L17.2754 7.39922C18.5873 6.42954 19.3269 5.20127 18.9988 3.52539C20.6 3.64227 23.9655 5.29475 24.9457 6.44609Z" fill="white" fill-opacity="0.8"/>
<path d="M14.524 7.89158C14.0436 8.16653 13.5795 8.43211 13.1042 8.67577C12.0475 9.21775 10.8902 9.43171 9.73507 9.6453L9.57238 9.67539C7.94844 9.97573 6.32399 10.2761 4.76965 10.8619C4.75732 10.8666 4.74302 10.866 4.71189 10.8648C4.69067 10.864 4.66165 10.8629 4.62012 10.8629C4.74146 10.6544 4.85751 10.4477 4.97208 10.2436C5.2188 9.80409 5.45866 9.37679 5.7297 8.97056C6.86688 7.26908 8.3407 5.92173 10.1211 4.90576C10.2687 4.82159 10.381 4.81124 10.5383 4.88132C12.1431 5.59617 13.6626 6.45997 15.1965 7.50943C14.9671 7.63795 14.7437 7.76579 14.524 7.89158Z" fill="white" fill-opacity="0.8"/>
<path d="M3.98542 12.7644C3.89537 13.0701 3.82798 13.3837 3.76799 13.6963C3.38535 15.6885 3.61859 17.8289 3.68429 18.2265C3.94254 19.7918 4.46253 21.2669 5.26371 22.6396C5.37921 22.8375 5.50288 23.0306 5.63583 23.2382C5.69997 23.3384 5.76657 23.4423 5.83515 23.5514C5.85149 23.4992 5.86539 23.4539 5.87789 23.413C5.90189 23.3346 5.9209 23.2725 5.94219 23.2117C5.98441 23.0911 6.02522 22.9699 6.06603 22.8488C6.16196 22.5639 6.25789 22.279 6.37226 22.0015C7.17383 20.0581 8.3815 18.371 9.73947 16.7863C11.6432 14.5645 13.8056 12.6158 16.1352 10.8496C16.5187 10.5588 16.9075 10.275 17.304 9.98554C17.4892 9.85037 17.6763 9.71387 17.8651 9.57493L16.2706 8.27051L16.1349 8.36808C16.0449 8.4329 15.9619 8.49265 15.8785 8.55121C14.4876 9.528 12.993 10.2873 11.3207 10.6478C10.6406 10.7944 9.95732 10.9264 9.27405 11.0585C8.73376 11.163 8.19343 11.2675 7.65469 11.3791C6.45609 11.6267 5.28419 11.9638 4.19754 12.5447C4.11033 12.5906 4.01134 12.6767 3.98542 12.7644Z" fill="white" fill-opacity="0.8"/>
<path d="M18.4573 21.0313C17.8061 23.7636 17.1552 26.4954 16.0645 29.1032H17.0768C17.2379 29.0846 17.3992 29.0682 17.5606 29.0519C17.9097 29.0164 18.259 28.981 18.6046 28.9223C20.6304 28.5788 22.4763 27.8024 24.1423 26.5928C24.3993 26.4058 24.4838 26.2254 24.4663 25.9135C24.3724 24.2401 24.1843 22.5802 23.8603 20.9345C23.4194 18.6892 22.7622 16.5163 21.7363 14.4633C21.6405 14.2715 21.5381 14.0832 21.4338 13.8913C21.3848 13.8012 21.335 13.7096 21.2856 13.6172C20.6369 14.1016 20.2239 14.7226 19.9876 15.4295C19.6204 16.5273 19.2901 17.6404 19.0078 18.7629C18.818 19.5173 18.6376 20.2743 18.4573 21.0313Z" fill="white" fill-opacity="0.8"/>
<path d="M18.8852 10.4795L20.6254 12.4999C19.6646 13.1817 19.1019 14.0924 18.7153 15.1138C18.4728 15.7498 18.2666 16.399 18.0978 17.0583C17.8168 18.1658 17.5447 19.2754 17.2725 20.385C16.942 21.7322 16.6114 23.0799 16.2654 24.4232C15.886 25.8961 15.4297 27.3481 14.8004 28.74C14.7127 28.934 14.6148 28.9739 14.4187 28.9401C11.5237 28.441 9.05824 27.1395 7.03565 25.0119C6.96983 24.9425 6.93315 24.8049 6.94586 24.708C7.13193 23.2796 7.71892 21.9988 8.4452 20.7766C9.71209 18.6448 11.3513 16.8154 13.1359 15.1103C14.8572 13.4657 16.7071 11.9762 18.6671 10.6238C18.7075 10.5955 18.7486 10.5686 18.8106 10.5283L18.8852 10.4795Z" fill="white" fill-opacity="0.8"/>
<path d="M22.4639 13.0358C24.5542 16.8383 25.3941 20.9354 25.7902 25.1974C25.8059 25.1767 25.8211 25.1553 25.8362 25.134C25.8692 25.0876 25.9022 25.0411 25.9408 24.9996C28.0633 22.6967 29.2203 19.9846 29.4118 16.8636C29.4178 16.7669 29.3814 16.6409 29.3179 16.5708C29.1723 16.4101 29.0271 16.2491 28.8818 16.088C28.2548 15.3927 27.6278 14.6973 26.9725 14.0298C26.6784 13.7299 26.3161 13.4911 25.9595 13.2562L25.8248 13.1672C24.9813 12.6069 24.0611 12.6357 23.1236 12.8655C22.9765 12.9015 22.8299 12.94 22.6784 12.9797C22.6084 12.9981 22.5364 13.017 22.4639 13.0358Z" fill="white" fill-opacity="0.8"/>
<path d="M28.7915 13.9741C28.9643 14.1441 29.1378 14.3147 29.3144 14.4835L29.298 14.3732C29.2906 14.3233 29.283 14.2712 29.2751 14.2198C28.8944 11.745 27.8698 9.56754 26.2301 7.67664C26.1803 7.61924 26.0734 7.56984 26.0013 7.57929C24.552 7.77012 23.1175 8.02585 21.8069 8.71887C21.3763 8.94661 20.953 9.18835 20.5405 9.42393C20.3569 9.52881 20.1751 9.63262 19.9961 9.73332C20.1412 9.9129 20.2851 10.0906 20.4279 10.2671C20.842 10.7785 21.2472 11.279 21.6474 11.7834C21.7321 11.8904 21.8041 11.897 21.9249 11.8628C22.3213 11.7512 22.7198 11.6419 23.1215 11.5525C24.1358 11.3265 25.1413 11.3283 26.0749 11.8384C26.5966 12.1235 27.1084 12.4483 27.5631 12.8285C27.9906 13.1859 28.3893 13.5784 28.7915 13.9741Z" fill="white" fill-opacity="0.8"/>
</svg>
