<svg width="27" height="27" viewBox="0 0 27 27" fill="none" xmlns="http://www.w3.org/2000/svg">
<path fill-rule="evenodd" clip-rule="evenodd" d="M26.2883 13.1744C26.2883 20.3151 20.4996 26.1037 13.3589 26.1037C6.21833 26.1037 0.429688 20.3151 0.429688 13.1744C0.429688 6.03367 6.21833 0.245117 13.3589 0.245117C20.4996 0.245117 26.2883 6.03367 26.2883 13.1744ZM4.93923 21.8941C5.43568 21.4703 7.14852 19.7691 7.14852 19.7691C6.73751 18.7161 4.83507 14.067 4.83507 14.067L1.40072 12.8808C1.40072 12.8808 1.36024 14.1291 1.33966 14.7533C1.70247 17.5427 3.01373 20.0344 4.93923 21.8941ZM25.4745 13.5455L24.2094 13.0243C24.2094 13.0243 22.9395 9.42077 22.3584 7.5991L22.7601 5.52231C23.6889 6.66212 24.4147 7.97408 24.8821 9.40302C25.3069 10.7019 25.5181 12.1139 25.4745 13.5455ZM7.94998 4.44177L8.14547 9.96797L14.3234 11.1605C14.3234 11.1605 17.4576 7.06537 18.0184 6.25995L13.6196 2.40204L7.94998 4.44177ZM21.9285 17.2797L20.749 22.2847C19.0156 23.6795 16.6981 24.703 15.5069 24.469L12.3358 21.229L16.2915 16.765L21.9285 17.2797Z" fill="white" fill-opacity="0.8"/>
</svg>
