<svg width="33" height="33" viewBox="0 0 33 33" fill="none" xmlns="http://www.w3.org/2000/svg">
<path fill-rule="evenodd" clip-rule="evenodd" d="M3.86719 8.41692C3.86719 6.98879 5.02492 5.83105 6.45305 5.83105H27.1399C28.5681 5.83105 29.7258 6.98879 29.7258 8.41692V21.3462C29.7258 22.7744 28.5681 23.9321 27.1399 23.9321H6.45305C5.02492 23.9321 3.86719 22.7744 3.86719 21.3462V8.41692ZM22.2914 14.3217C22.7224 14.5705 22.7224 15.1926 22.2914 15.4414L14.5338 19.9203C14.1029 20.1691 13.5641 19.858 13.5641 19.3604V10.4027C13.5641 9.90504 14.1029 9.59405 14.5338 9.84289L22.2914 14.3217Z" fill="white" fill-opacity="0.8"/>
<path d="M12.9179 26.5185C12.9179 25.8045 13.4967 25.2256 14.2108 25.2256H19.3825C20.0966 25.2256 20.6755 25.8045 20.6755 26.5185H21.9684C22.6825 26.5185 23.2613 27.0974 23.2613 27.8115C23.2613 28.5256 22.6825 29.1044 21.9684 29.1044H11.6249C10.9108 29.1044 10.332 28.5256 10.332 27.8115C10.332 27.0974 10.9108 26.5185 11.6249 26.5185H12.9179Z" fill="white" fill-opacity="0.8"/>
</svg>
