<svg width="15" height="14" viewBox="0 0 15 14" fill="none" xmlns="http://www.w3.org/2000/svg">
<path d="M3.92408 4.46321C2.44812 4.79741 1.71014 4.96421 1.53434 5.52881C1.35914 6.09282 1.86193 6.68142 2.86811 7.85802L3.1285 8.16222C3.4141 8.49642 3.55749 8.66382 3.62169 8.87022C3.68589 9.07722 3.66429 9.30042 3.62109 9.74623L3.58149 10.1524C3.4297 11.7226 3.3535 12.5074 3.81309 12.856C4.27268 13.2052 4.96386 12.8866 6.34503 12.2506L6.70322 12.0862C7.09561 11.905 7.2918 11.815 7.5 11.815C7.70819 11.815 7.90439 11.905 8.29738 12.0862L8.65437 12.2506C10.0361 12.8866 10.7273 13.2046 11.1863 12.8566C11.6465 12.5074 11.5703 11.7226 11.4185 10.1524M12.1319 7.85802C13.1381 6.68202 13.6409 6.09342 13.4657 5.52881C13.2899 4.96421 12.5519 4.79681 11.0759 4.46321L10.6943 4.37681C10.2749 4.28201 10.0655 4.23461 9.89694 4.10681C9.72895 3.97901 9.62095 3.78521 9.40495 3.39761L9.20816 3.04481C8.44798 1.6816 8.06819 1 7.5 1C6.93181 1 6.55202 1.6816 5.79184 3.04481" stroke="#C88300" stroke-width="1.5" stroke-linecap="round"/>
</svg>
