<svg xmlns="http://www.w3.org/2000/svg" width="21" height="21" viewBox="0 0 21 21" fill="none">
  <path d="M6.5625 3.9375H6.34375V1.75C6.34375 1.39125 6.04625 1.09375 5.6875 1.09375C5.32875 1.09375 5.03125 1.39125 5.03125 1.75V3.9375H4.8125C3.42125 3.9375 2.625 4.73375 2.625 6.125V11.375C2.625 12.7662 3.42125 13.5625 4.8125 13.5625H5.03125V19.25C5.03125 19.6087 5.32875 19.9062 5.6875 19.9062C6.04625 19.9062 6.34375 19.6087 6.34375 19.25V13.5625H6.5625C7.95375 13.5625 8.75 12.7662 8.75 11.375V6.125C8.75 4.73375 7.95375 3.9375 6.5625 3.9375Z" fill="#858585"/>
  <path d="M16.1875 7.4375H15.9688V1.75C15.9688 1.39125 15.6713 1.09375 15.3125 1.09375C14.9537 1.09375 14.6562 1.39125 14.6562 1.75V7.4375H14.4375C13.0462 7.4375 12.25 8.23375 12.25 9.625V14.875C12.25 16.2662 13.0462 17.0625 14.4375 17.0625H14.6562V19.25C14.6562 19.6087 14.9537 19.9062 15.3125 19.9062C15.6713 19.9062 15.9688 19.6087 15.9688 19.25V17.0625H16.1875C17.5788 17.0625 18.375 16.2662 18.375 14.875V9.625C18.375 8.23375 17.5788 7.4375 16.1875 7.4375Z" fill="#858585"/>
</svg>