<svg width="19" height="14" viewBox="0 0 19 14" fill="none" xmlns="http://www.w3.org/2000/svg">
<path d="M11.7998 0C11.0758 0 10.3764 0.0235524 9.71414 0.0817604L9.03126 1.53259L8.82969 0.185391C8.72684 0.200868 8.624 0.217018 8.52116 0.234851C8.14681 0.300125 7.89999 0.477777 7.68607 0.735171C7.47216 0.992564 7.31995 1.32398 7.18831 1.63016C6.82631 2.47468 6.53835 3.36631 6.30798 4.27476C6.5548 4.44635 6.80162 4.62131 7.04433 4.79291L8.30725 4.20073L9.69768 5.0789L11.8327 4.41607L14.3421 5.2404L14.0623 5.8023L11.8245 5.06881L9.57427 5.76528L8.24965 4.92749L7.63671 5.21349C8.443 5.79557 9.22461 6.37092 9.96096 6.93617L10.5369 6.72084L11.9314 7.26254L13.2149 6.82178L14.2104 7.60573L13.7003 8.04314L13.0504 7.53508L11.915 7.92874L10.5575 7.39713C10.8413 7.62256 11.1169 7.84126 11.3843 8.05996L11.4542 8.12052L12.2564 10.6877L11.9355 10.4959L9.75528 10.5094L8.18795 9.9105L6.44373 10.4017L6.20513 9.82975L8.22908 9.25776L9.91982 9.90377L10.9359 9.89704L8.02751 8.15753C7.21711 8.31231 6.40671 8.25174 5.63744 8.03304C5.46467 9.52694 5.39473 10.9165 5.34948 12.0269C5.33303 12.3869 5.46055 12.8007 5.65801 13.1204C5.85958 13.44 6.13932 13.6385 6.27507 13.6621C6.48898 13.7024 7.05667 13.7697 7.82594 13.8337L8.33604 12.5215L9.12176 13.9245C9.80875 13.9649 10.5616 13.9918 11.3226 13.9985C12.4827 14.0086 13.6715 13.9682 14.6959 13.8404C15.3458 13.763 15.9135 13.6385 16.3701 13.4905C15.8847 13.3189 15.4816 13.1338 15.173 12.9319C14.7164 12.6325 14.4243 12.2826 14.4614 11.8923V11.899C14.6835 8.6555 14.9057 5.54658 15.7078 2.27617L15.7119 2.26271L15.7161 2.24925C15.9341 1.64698 16.4524 0.908112 17.2011 0.370782C16.6293 0.30147 16.0246 0.236197 15.4034 0.180344L14.4861 1.03159L14.3956 0.0995929C13.6139 0.044413 12.8159 0.00841159 12.0343 0.00134588H11.7998V0ZM17.9087 0.687729C17.7153 0.811884 17.5302 0.957909 17.3615 1.11605C17.8593 1.39127 18.2419 1.9027 18.2583 2.36028C18.2707 2.62272 18.1802 2.86161 17.9416 3.08031C17.703 3.29565 17.2998 3.49753 16.6416 3.61193L16.798 4.2041C17.5631 4.06951 18.1267 3.81717 18.4928 3.48407C18.8631 3.15097 19.0153 2.73712 18.9988 2.3401C18.9741 1.69072 18.5422 1.07533 17.9087 0.687729ZM0.0156322 0.806164C0.00575925 0.860335 0 0.921571 0 0.995256C0.00411372 1.254 0.0835085 1.60661 0.23983 2.01036C0.380108 2.37038 0.580035 2.7674 0.830149 3.18125C1.26744 3.00293 1.67716 2.81114 1.99886 2.57226C1.81703 2.99283 1.58131 3.40332 1.2337 3.80034C1.40401 4.0426 1.58872 4.28485 1.787 4.52374C2.2247 4.34541 2.63936 4.08634 3.00137 3.64557C2.86562 4.18391 2.65294 4.67515 2.24979 5.05198C2.51842 5.33798 2.80515 5.61724 3.10339 5.87632C3.46128 5.56341 3.74513 5.16975 3.95493 4.70206C4.11125 5.32452 4.06189 5.88978 3.72045 6.36419C4.04955 6.60644 4.39098 6.82514 4.74065 7.00683C4.99159 6.53578 5.10677 5.97726 5.09032 5.33461C5.46878 6.13203 5.55517 6.77804 5.48523 7.33656C6.31621 7.64611 7.16363 7.74032 8.00694 7.54181L8.17972 7.49807L11.0305 9.20057L10.7878 8.43343C7.7848 5.98399 3.57235 3.16107 0.0156322 0.806164ZM11.8368 2.55543L13.2026 3.01975L14.4902 2.68665L14.7123 3.26537L13.1697 3.66576L11.7875 3.19471L10.6027 3.46725L10.4052 2.8818L11.8368 2.55543ZM16.2508 10.5027C16.222 10.5027 16.1974 10.506 16.1686 10.506C16.0246 10.5094 15.8724 10.5229 15.7119 10.5498L15.8518 11.142C16.3537 11.0646 16.6746 11.1285 16.8597 11.2261C17.0407 11.3236 17.1188 11.4549 17.1229 11.6466C17.1271 11.9596 16.835 12.4205 16.1644 12.7402C16.3866 12.8377 16.654 12.9387 16.9584 13.0329C17.5508 12.6426 17.8675 12.1312 17.8634 11.6399C17.8593 11.2799 17.6495 10.9266 17.2628 10.718C16.9872 10.5733 16.6458 10.4993 16.2508 10.5027Z" fill="url(#paint0_linear_962_3919)"/>
<defs>
<linearGradient id="paint0_linear_962_3919" x1="9.5" y1="0" x2="9.5" y2="14" gradientUnits="userSpaceOnUse">
<stop stop-color="#B2D5B2"/>
<stop offset="0.0001" stop-color="#4EAF90"/>
<stop offset="1" stop-color="#B2D5B2"/>
</linearGradient>
</defs>
</svg>
