<svg width="24" height="24" viewBox="0 0 24 24" fill="none" xmlns="http://www.w3.org/2000/svg">
<g clip-path="url(#clip0_736_55668)">
<path d="M10.1916 1.82483L9.76102 4.19659C9.34278 4.32807 8.93691 4.49836 8.55396 4.69778L6.56337 3.32837L4.00819 5.88355L5.38466 7.86707C5.18437 8.25089 5.01585 8.65414 4.88348 9.07414L2.51172 9.50472V13.1188L4.88348 13.5494C5.01584 13.9703 5.19054 14.3717 5.39172 14.7565L4.00819 16.74L6.56337 19.2951L8.54689 17.9257C8.93158 18.1269 9.34011 18.2946 9.761 18.4269L10.1916 20.7987H13.8057L14.2363 18.4269C14.6563 18.2946 15.0595 18.1261 15.4434 17.9257L17.4269 19.2951L19.982 16.74L18.6056 14.7565C18.8049 14.3736 18.9753 13.9747 19.1067 13.5565L21.4856 13.1188V9.50472L19.1067 9.07414C18.9753 8.65678 18.8111 8.25619 18.6126 7.87414L19.982 5.88355L17.4269 3.32837L15.4434 4.69778C15.0595 4.4975 14.6563 4.32896 14.2363 4.19659L13.8057 1.82483H10.1916ZM11.9987 7.02012C14.3686 7.02012 16.2904 8.94189 16.2904 11.3119C16.2904 13.6819 14.3687 15.6037 11.9987 15.6037C9.62865 15.6037 7.7069 13.6819 7.7069 11.3119C7.7069 8.94189 9.62865 7.02012 11.9987 7.02012Z" fill="#E8F9FF" fill-opacity="0.8"/>
</g>
<defs>
<clipPath id="clip0_736_55668">
<rect width="24" height="24" fill="white"/>
</clipPath>
</defs>
</svg>
