<svg width="46" height="36" viewBox="0 0 46 36" fill="none" xmlns="http://www.w3.org/2000/svg">
<path d="M25.8125 3.48359C25.8125 2.65137 25.5162 1.85324 24.9887 1.26477C24.4613 0.676301 23.7459 0.345703 23 0.345703C22.2541 0.345703 21.5387 0.676301 21.0113 1.26477C20.4838 1.85324 20.1875 2.65137 20.1875 3.48359C20.1875 4.31581 20.4838 5.11395 21.0113 5.70242C21.5387 6.29089 22.2541 6.62148 23 6.62148C23.7459 6.62148 24.4613 6.29089 24.9887 5.70242C25.5162 5.11395 25.8125 4.31581 25.8125 3.48359ZM10.625 14.1524C11.3709 14.1524 12.0863 13.8218 12.6137 13.2334C13.1412 12.6449 13.4375 11.8468 13.4375 11.0145C13.4375 10.1823 13.1412 9.38418 12.6137 8.79571C12.0863 8.20724 11.3709 7.87664 10.625 7.87664C9.87908 7.87664 9.16371 8.20724 8.63626 8.79571C8.10882 9.38418 7.8125 10.1823 7.8125 11.0145C7.8125 11.8468 8.10882 12.6449 8.63626 13.2334C9.16371 13.8218 9.87908 14.1524 10.625 14.1524ZM2.75 30.4695C1.50547 30.4695 0.5 31.5912 0.5 32.9798C0.5 34.3683 1.50547 35.4901 2.75 35.4901H43.25C44.4945 35.4901 45.5 34.3683 45.5 32.9798C45.5 31.5912 44.4945 30.4695 43.25 30.4695H2.75ZM35.375 14.1524C36.1209 14.1524 36.8363 13.8218 37.3637 13.2334C37.8912 12.6449 38.1875 11.8468 38.1875 11.0145C38.1875 10.1823 37.8912 9.38418 37.3637 8.79571C36.8363 8.20724 36.1209 7.87664 35.375 7.87664C34.6291 7.87664 33.9137 8.20724 33.3863 8.79571C32.8588 9.38418 32.5625 10.1823 32.5625 11.0145C32.5625 11.8468 32.8588 12.6449 33.3863 13.2334C33.9137 13.8218 34.6291 14.1524 35.375 14.1524ZM14.5625 22.4286L16.4539 26.3431C16.8969 27.261 17.9164 27.5983 18.7391 27.1119C19.5617 26.6255 19.8641 25.4802 19.4281 24.5624L16.8758 19.2672C16.9953 19.1338 17.1008 18.9848 17.1781 18.8122L19.0625 14.8977V19.173C19.0625 20.5616 20.068 21.6834 21.3125 21.6834H24.6875C25.932 21.6834 26.9375 20.5616 26.9375 19.173V14.8977L28.8289 18.8122C28.9133 18.9848 29.0117 19.1338 29.1313 19.2672L26.5789 24.5624C26.1359 25.4802 26.4453 26.6177 27.268 27.1119C28.0906 27.6061 29.1102 27.261 29.5531 26.3431L31.4375 22.4286V25.4488C31.4375 26.8373 32.443 27.9591 33.6875 27.9591H37.0625C38.307 27.9591 39.3125 26.8373 39.3125 25.4488V22.4286L41.2039 26.3431C41.6469 27.261 42.6664 27.5983 43.4891 27.1119C44.3117 26.6255 44.6141 25.4802 44.1781 24.5624L41.5133 19.0475C40.4375 16.8118 38.3422 15.4154 36.0641 15.4154H34.6859C33.5398 15.4154 32.443 15.7684 31.4937 16.4039L29.1313 11.5166C28.0555 9.28085 25.9602 7.88449 23.682 7.88449H22.3109C20.0328 7.88449 17.9445 9.28085 16.8617 11.5166L14.4992 16.4039C13.55 15.7684 12.4531 15.4154 11.307 15.4154H9.93594C7.65781 15.4154 5.56953 16.8118 4.48672 19.0475L1.82891 24.5545C1.38594 25.4724 1.69531 26.6098 2.51797 27.1041C3.34063 27.5983 4.36016 27.2531 4.80312 26.3353L6.6875 22.4286V25.4488C6.6875 26.8373 7.69297 27.9591 8.9375 27.9591H12.3125C13.557 27.9591 14.5625 26.8373 14.5625 25.4488V22.4286Z" fill="#B1B6C6"/>
</svg>
