<svg xmlns="http://www.w3.org/2000/svg" width="24" height="24" viewBox="0 0 24 24" fill="none">
  <path d="M15.0697 17.8803L14.0597 20.1003C13.7997 20.6603 13.4197 21.1503 12.9097 21.4903C12.3897 21.8403 11.7097 21.8703 11.1697 21.5303C9.52969 20.4903 5.94974 17.8203 3.77974 13.1903C3.69974 13.0303 3.9197 12.8703 4.0597 12.9703C4.6297 13.3703 5.23968 13.6503 5.90968 13.8103C6.31968 13.9003 6.73972 13.9403 7.13972 13.9403C8.99972 13.9403 10.6797 12.9903 11.7997 12.1703C12.1297 11.9303 12.5697 11.8803 12.9097 12.0903C14.0297 12.7903 14.7797 13.6303 15.1497 14.5803C15.7897 16.2603 15.0897 17.8103 15.0697 17.8803Z" fill="url(#paint0_linear_97_1570)"/>
  <path d="M16.8502 18.0497C16.7702 18.1397 16.6102 18.0397 16.6502 17.9297C17.0902 16.4697 17.6602 12.6197 12.5602 10.1797C12.2502 10.0297 12.0202 9.74967 11.9802 9.40967C11.3602 3.84967 16.1502 2.84967 16.1502 2.84967C16.5402 2.76967 16.9502 2.76966 17.3302 2.87966C18.4102 3.16966 19.5102 3.56967 20.6202 4.10967C21.5702 4.56967 22.1202 5.56967 21.9802 6.61967C21.6502 9.09967 20.5502 13.8797 16.8502 18.0497Z" fill="url(#paint1_linear_97_1570)"/>
  <path d="M10.56 10.2105L10.5901 10.4105C10.6601 10.7905 10.5 11.1805 10.18 11.3805C8.03003 12.7305 4.51002 13.7505 2.36002 7.84047C2.16002 7.30047 2.04003 6.90048 2.00003 6.32048C1.95003 5.56048 2.38003 4.69048 3.06003 4.37048C4.82003 3.55048 8.54006 2.12048 13.0301 2.25048C13.2301 2.26048 13.3 2.52047 13.14 2.63047C11.41 3.95047 9.92003 6.33048 10.56 10.2105Z" fill="url(#paint2_linear_97_1570)"/>
  <defs>
    <linearGradient id="paint0_linear_97_1570" x1="9.59074" y1="11.958" x2="9.59074" y2="21.7697" gradientUnits="userSpaceOnUse">
      <stop stop-color="#4EAF90"/>
      <stop offset="1" stop-color="#B2D5B2"/>
    </linearGradient>
    <linearGradient id="paint1_linear_97_1570" x1="16.9633" y1="2.79297" x2="16.9633" y2="18.0846" gradientUnits="userSpaceOnUse">
      <stop stop-color="#4EAF90"/>
      <stop offset="1" stop-color="#B2D5B2"/>
    </linearGradient>
    <linearGradient id="paint2_linear_97_1570" x1="7.6122" y1="2.24219" x2="7.6122" y2="12.4199" gradientUnits="userSpaceOnUse">
      <stop stop-color="#4EAF90"/>
      <stop offset="1" stop-color="#B2D5B2"/>
    </linearGradient>
  </defs>
</svg>