<svg width="24" height="24" viewBox="0 0 24 24" fill="none" xmlns="http://www.w3.org/2000/svg">
<path fill-rule="evenodd" clip-rule="evenodd" d="M1.23741 13.7489C6.06923 11.2087 9.29121 9.534 10.9033 8.72489C15.5063 6.4147 16.4627 6.01339 17.0861 6.00014C17.2232 5.99723 17.5298 6.03823 17.7284 6.23267C17.8961 6.39685 17.9422 6.61863 17.9643 6.77429C17.9864 6.92995 18.0139 7.28455 17.992 7.56163C17.7426 10.7241 16.6633 18.3986 16.1142 21.9406C15.8818 23.4394 15.4244 23.9419 14.9815 23.9911C14.0189 24.098 13.288 23.2235 12.3558 22.4861C10.897 21.3323 10.0729 20.614 8.65691 19.488C7.02048 18.1868 8.08131 17.4716 9.0139 16.3027C9.25797 15.9969 13.4988 11.3423 13.5809 10.92C13.5912 10.8672 13.6007 10.6704 13.5038 10.5664C13.4069 10.4625 13.2639 10.498 13.1606 10.5263C13.0143 10.5664 10.6839 12.425 6.16938 16.1022C5.5079 16.6503 4.90875 16.9174 4.37193 16.9034C3.78013 16.888 2.64175 16.4996 1.79548 16.1677C0.757494 15.7606 -0.0674757 15.5453 0.00436067 14.8539C0.0417775 14.4937 0.452793 14.1254 1.23741 13.7489Z" fill="url(#paint0_linear_847_3843)"/>
<defs>
<linearGradient id="paint0_linear_847_3843" x1="17.7017" y1="6.12" x2="5.88323" y2="16.7746" gradientUnits="userSpaceOnUse">
<stop stop-color="#4EAF90"/>
<stop offset="1" stop-color="#B2D5B2"/>
</linearGradient>
</defs>
</svg>
