<svg width="24" height="24" viewBox="0 0 24 24" fill="none" xmlns="http://www.w3.org/2000/svg">
<rect width="24" height="24" fill="#F5F5F5"/>
<g id="Sedona Rooms - Light Mode">
<path d="M-1335 -573C-1335 -574.105 -1334.1 -575 -1333 -575H13944C13945.1 -575 13946 -574.105 13946 -573V1685C13946 1686.1 13945.1 1687 13944 1687H-1333C-1334.1 1687 -1335 1686.1 -1335 1685V-573Z" fill="#404040"/>
<path d="M-1333 -574H13944V-576H-1333V-574ZM13945 -573V1685H13947V-573H13945ZM13944 1686H-1333V1688H13944V1686ZM-1334 1685V-573H-1336V1685H-1334ZM-1333 1686C-1333.55 1686 -1334 1685.55 -1334 1685H-1336C-1336 1686.66 -1334.66 1688 -1333 1688V1686ZM13945 1685C13945 1685.55 13944.6 1686 13944 1686V1688C13945.7 1688 13947 1686.66 13947 1685H13945ZM13944 -574C13944.6 -574 13945 -573.552 13945 -573H13947C13947 -574.657 13945.7 -576 13944 -576V-574ZM-1333 -576C-1334.66 -576 -1336 -574.657 -1336 -573H-1334C-1334 -573.552 -1333.55 -574 -1333 -574V-576Z" fill="black" fill-opacity="0.1"/>
<g id="Frame">
<rect width="1440" height="1170" transform="translate(-704 -29)" fill="#1C2936"/>
<g id="div.flex">
<g id="div.flex_2">
<rect width="1440" height="80" transform="translate(-704 -29)" fill="black" fill-opacity="0.35"/>
<g id="socials">
<g id="Socials link">
<path id="Rectangle 6" d="M-14 11C-14 -0.313707 -14 -5.97056 -10.4853 -9.48528C-6.97056 -13 -1.31371 -13 10 -13H13C24.3137 -13 29.9706 -13 33.4853 -9.48528C37 -5.97056 37 -0.313708 37 11V13C37 24.3137 37 29.9706 33.4853 33.4853C29.9706 37 24.3137 37 13 37H10C-1.31371 37 -6.97056 37 -10.4853 33.4853C-14 29.9706 -14 24.3137 -14 13V11Z" fill="#121D28"/>
<g id="mingcute:twitter-fill">
<g id="Group">
<path id="Vector" d="M11.905 12.4695L19.3512 4H17.5869L11.1184 11.3524L5.95583 4H0L7.80863 15.1192L0 24H1.76429L8.59099 16.2338L14.0442 24H20L11.905 12.4695ZM9.48775 15.2168L8.69536 14.1089L2.40053 5.30146H5.11084L10.1925 12.412L10.9815 13.5199L17.5861 22.7619H14.8758L9.48775 15.2168Z" fill="url(#paint0_linear_0_1)"/>
</g>
</g>
</g>
</g>
</g>
</g>
</g>
</g>
<defs>
<linearGradient id="paint0_linear_0_1" x1="10" y1="4" x2="10" y2="24" gradientUnits="userSpaceOnUse">
<stop stop-color="#4EAF90"/>
<stop offset="1" stop-color="#B2D582"/>
</linearGradient>
</defs>
</svg>
