<svg xmlns="http://www.w3.org/2000/svg" width="5" height="8" viewBox="0 0 5 8" fill="#858585">
  <path d="M1.22354 0.1959L4.78906 3.52649C4.8559 3.58841 4.90895 3.66209 4.94516 3.74326C4.98136 3.82443 5 3.9115 5 3.99943C5 4.08737 4.98136 4.17443 4.94516 4.25561C4.90895 4.33678 4.8559 4.41045 4.78906 4.47238L1.22354 7.80296C1.15725 7.8654 1.07838 7.91495 0.991482 7.94877C0.904584 7.98259 0.811377 8 0.717239 8C0.623101 8 0.529894 7.98259 0.442996 7.94877C0.356097 7.91495 0.277227 7.8654 0.210935 7.80296C0.144097 7.74104 0.0910462 7.66737 0.0548428 7.58619C0.0186395 7.50502 0 7.41795 0 7.33002C0 7.24208 0.0186395 7.15502 0.0548428 7.07385C0.0910462 6.99267 0.144097 6.919 0.210935 6.85708L3.27728 3.99943L0.210935 1.14179C0.0766549 1.01635 0.00121732 0.846231 0.00121732 0.668843C0.00121732 0.58101 0.0197373 0.494036 0.0557208 0.412888C0.0917043 0.33174 0.144446 0.258007 0.210935 0.1959C0.345215 0.0704672 0.527338 0 0.717239 0C0.811269 0 0.904377 0.0173003 0.991249 0.0509129C1.07812 0.0845254 1.15705 0.133792 1.22354 0.1959Z" fill="#858585"/>
</svg>