<svg width="28" height="22" viewBox="0 0 28 22" fill="none" xmlns="http://www.w3.org/2000/svg">
<path d="M13.7726 3C12.2111 2.99953 10.6764 3.36017 9.31925 4.04646C7.96208 4.73276 6.82912 5.72111 6.0317 6.9144C5.23428 8.10769 4.79984 9.46486 4.77106 10.8526C4.74228 12.2403 5.12016 13.6107 5.86756 14.8293L4.80256 18.1493C4.76509 18.2659 4.76409 18.3894 4.79967 18.5064C4.83526 18.6235 4.90608 18.7297 5.00451 18.8136C5.10295 18.8975 5.22527 18.956 5.35831 18.9827C5.49135 19.0095 5.63008 19.0035 5.75956 18.9653L9.26656 17.9267C10.4618 18.5406 11.8 18.902 13.1775 18.9827C14.555 19.0634 15.935 18.8613 17.2106 18.3922C18.4862 17.923 19.6233 17.1993 20.5339 16.277C21.4445 15.3547 22.1042 14.2585 22.462 13.0733C22.8198 11.8881 22.8661 10.6457 22.5972 9.44205C22.3284 8.23842 21.7516 7.10591 20.9116 6.13211C20.0716 5.15831 18.9908 4.36934 17.7529 3.82622C16.515 3.28311 15.1531 3.00041 13.7726 3ZM10.7726 9.66667C10.7726 9.48986 10.8516 9.32029 10.9922 9.19526C11.1329 9.07024 11.3236 9 11.5226 9H16.0225C16.2215 9 16.4122 9.07024 16.5529 9.19526C16.6935 9.32029 16.7725 9.48986 16.7725 9.66667C16.7725 9.84348 16.6935 10.013 16.5529 10.1381C16.4122 10.2631 16.2215 10.3333 16.0225 10.3333H11.5226C11.3236 10.3333 11.1329 10.2631 10.9922 10.1381C10.8516 10.013 10.7726 9.84348 10.7726 9.66667ZM11.5226 11.6667H14.5226C14.7215 11.6667 14.9122 11.7369 15.0529 11.8619C15.1935 11.987 15.2725 12.1565 15.2725 12.3333C15.2725 12.5101 15.1935 12.6797 15.0529 12.8047C14.9122 12.9298 14.7215 13 14.5226 13H11.5226C11.3236 13 11.1329 12.9298 10.9922 12.8047C10.8516 12.6797 10.7726 12.5101 10.7726 12.3333C10.7726 12.1565 10.8516 11.987 10.9922 11.8619C11.1329 11.7369 11.3236 11.6667 11.5226 11.6667Z" fill="white"/>
</svg>
