<svg xmlns="http://www.w3.org/2000/svg" width="139" height="42" viewBox="0 0 139 42" fill="none">
  <path d="M6.6024 0.0227075C6.84646 0.0218134 7.09052 0.0207229 7.33458 0.0194523C7.99342 0.0166583 8.65223 0.0168262 9.31108 0.0177216C9.86292 0.0182074 10.4148 0.0172498 10.9666 0.0163068C12.2695 0.0141128 13.5723 0.0143492 14.8752 0.016135C16.2152 0.0179311 17.5551 0.0157293 18.8951 0.0115339C20.0494 0.00805633 21.2036 0.00702917 22.3579 0.0079459C23.0456 0.00847126 23.7333 0.00810897 24.421 0.00540231C25.0682 0.00296615 25.7153 0.00361654 26.3624 0.0065457C26.5985 0.00711854 26.8347 0.0066481 27.0708 0.00499839C28.9197 -0.00692409 30.691 0.152099 32.0806 1.49462C33.0599 2.6545 33.308 3.71088 33.3077 5.19658C33.3082 5.33471 33.3088 5.47284 33.3094 5.61515C33.3111 6.07893 33.3117 6.5427 33.3123 7.00648C33.3133 7.33865 33.3144 7.67083 33.3155 8.003C33.3188 9.09476 33.3204 10.1865 33.3219 11.2783C33.3226 11.6542 33.3232 12.0302 33.3239 12.4061C33.3269 14.1725 33.3291 15.9388 33.3304 17.7052C33.3319 19.7435 33.336 21.7818 33.3424 23.82C33.3471 25.3959 33.3494 26.9717 33.3499 28.5476C33.3503 29.4886 33.3517 30.4295 33.3556 31.3705C33.3593 32.2562 33.36 33.1418 33.3583 34.0275C33.3583 34.3519 33.3593 34.6764 33.3614 35.0008C33.3749 37.1512 33.3221 38.836 31.7747 40.4812C31.1488 40.9887 30.451 41.1985 29.6825 41.4069C29.5274 41.4586 29.3724 41.5102 29.2126 41.5634C28.9682 41.5774 28.7232 41.5825 28.4783 41.5822C28.3274 41.5825 28.1766 41.5827 28.0211 41.5829C27.7732 41.5821 27.7732 41.5821 27.5203 41.5812C27.3461 41.5812 27.1719 41.5812 26.9924 41.5813C26.4153 41.5812 25.8382 41.5799 25.2611 41.5787C24.8615 41.5784 24.4619 41.5782 24.0623 41.578C23.1171 41.5775 22.172 41.5763 21.2268 41.5747C20.1508 41.573 19.0748 41.5721 17.9987 41.5713C15.7853 41.5697 13.5719 41.5669 11.3584 41.5634C11.4354 40.8761 11.5091 40.2311 11.7291 39.5731C11.772 39.4431 11.8149 39.3131 11.8591 39.1792C11.9052 39.0433 11.9514 38.9075 11.999 38.7675C12.0705 38.5529 12.0705 38.5529 12.1435 38.3341C12.2439 38.0339 12.3449 37.7338 12.4465 37.434C12.6019 36.9746 12.7553 36.5146 12.9084 36.0544C13.0065 35.762 13.1046 35.4697 13.203 35.1773C13.2488 35.0399 13.2947 34.9025 13.3419 34.7608C13.3853 34.6333 13.4286 34.5058 13.4733 34.3744C13.5111 34.2624 13.5489 34.1505 13.5878 34.0351C13.7077 33.7375 13.7077 33.7375 14.0209 33.2679C17.6387 33.2679 21.2565 33.2679 24.984 33.2679C24.984 25.0554 24.984 16.8429 24.984 8.38144C19.5056 8.38144 14.0272 8.38144 8.38275 8.38144C8.38275 12.9268 8.38275 17.4721 8.38275 22.1551C12.9825 22.1551 17.5823 22.1551 22.3215 22.1551C20.4421 27.9463 20.4421 27.9463 19.5025 30.6071C17.6794 30.6142 15.8563 30.6199 14.0332 30.6233C13.1865 30.625 12.3398 30.6272 11.4932 30.6307C10.6747 30.6342 9.8562 30.636 9.03771 30.6368C8.72685 30.6374 8.41598 30.6385 8.10512 30.6402C2.9785 30.6671 2.9785 30.6671 1.36503 29.0756C0.174925 27.6311 -0.0103082 25.9942 0.00355044 24.1846C0.0029565 23.9695 0.00209393 23.7543 0.000986226 23.5392C-0.0011831 22.96 0.000538255 22.3809 0.00313343 21.8017C0.00531842 21.1927 0.0042893 20.5836 0.00373923 19.9746C0.00331733 18.9525 0.00541558 17.9304 0.00905646 16.9082C0.0132249 15.7299 0.0134968 14.5516 0.0116583 13.3733C0.0099648 12.2352 0.010943 11.097 0.0131543 9.95886C0.0140514 9.47655 0.0140474 8.99425 0.0133007 8.51194C0.0125482 7.94316 0.0141581 7.37445 0.0175222 6.80568C0.0187962 6.49983 0.0177974 6.19397 0.0167085 5.88811C0.0313438 4.13932 0.348649 2.69863 1.49167 1.3381C2.87602 -0.0216616 4.78453 0.0166591 6.6024 0.0227075Z" fill="url(#paint0_linear_97_1404)"/>
  <path d="M38.9231 0.0859375C41.6623 0.0859375 44.4015 0.0859375 47.2237 0.0859375C47.2237 7.36876 47.2237 14.6516 47.2237 22.1551C52.7021 22.1551 58.1805 22.1551 63.8249 22.1551C63.8249 14.8723 63.8249 7.58945 63.8249 0.0859375C66.6158 0.0859375 69.4067 0.0859375 72.2822 0.0859375C72.2856 4.84084 72.2885 9.59574 72.2902 14.3506C72.2904 14.9117 72.2906 15.4729 72.2908 16.034C72.2908 16.2015 72.2908 16.2015 72.2909 16.3725C72.2916 18.1823 72.2928 19.992 72.2943 21.8018C72.2957 23.6582 72.2966 25.5146 72.2969 27.371C72.2971 28.414 72.2976 29.457 72.2987 30.4999C72.2998 31.4809 72.3001 32.4619 72.2999 33.4428C72.2999 33.8035 72.3003 34.1642 72.3009 34.5248C72.3016 35.0161 72.3014 35.5073 72.301 35.9985C72.3017 36.2141 72.3017 36.2141 72.3024 36.434C72.3021 36.5656 72.3018 36.6971 72.3015 36.8327C72.3015 36.9461 72.3016 37.0595 72.3016 37.1763C72.2813 37.5075 72.216 37.8013 72.1256 38.12C72.0222 38.12 71.9188 38.12 71.8123 38.12C71.7893 38.209 71.7663 38.298 71.7426 38.3896C71.4218 39.4931 71.0078 40.286 69.9807 40.8603C69.0774 41.2816 68.2961 41.5833 67.2945 41.5822C67.0659 41.5826 67.0659 41.5826 66.8326 41.5829C66.5834 41.582 66.5834 41.582 66.3291 41.5812C66.1533 41.5812 65.9776 41.5812 65.7965 41.5813C65.2152 41.5811 64.6339 41.5799 64.0525 41.5787C63.6496 41.5784 63.2467 41.5782 62.8438 41.578C61.8914 41.5775 60.9391 41.5763 59.9868 41.5747C58.9024 41.5729 57.818 41.5721 56.7336 41.5713C54.5034 41.5697 52.2731 41.5669 50.0428 41.5634C50.116 41.2924 50.1894 41.0214 50.2628 40.7504C50.3241 40.524 50.3241 40.524 50.3866 40.2931C50.5724 39.6276 50.7834 38.9715 50.9984 38.315C51.0425 38.1793 51.0867 38.0435 51.1322 37.9036C51.2244 37.6204 51.3168 37.3372 51.4093 37.0541C51.5514 36.6196 51.6928 36.1847 51.8341 35.7499C51.9242 35.4734 52.0143 35.197 52.1045 34.9205C52.1679 34.7256 52.1679 34.7256 52.2325 34.5268C52.5305 33.6172 52.5305 33.6172 52.7052 33.2679C56.3747 33.2679 60.0442 33.2679 63.8249 33.2679C63.8249 32.3382 63.8249 31.4085 63.8249 30.4506C63.5668 30.4513 63.3086 30.452 63.0426 30.4527C60.6091 30.459 58.1757 30.4637 55.7422 30.4668C54.4912 30.4684 53.2401 30.4706 51.9891 30.4742C50.8983 30.4773 49.8076 30.4793 48.7169 30.48C48.1396 30.4804 47.5624 30.4814 46.9852 30.4837C46.3399 30.4862 45.6947 30.4863 45.0494 30.4861C44.8592 30.4872 44.6689 30.4884 44.4729 30.4895C42.8829 30.4857 41.4944 30.2992 40.2445 29.2278C38.8423 27.7095 38.8106 25.6613 38.8342 23.7185C38.8344 23.4591 38.8343 23.1997 38.8338 22.9404C38.8336 22.2432 38.8382 21.5462 38.8437 20.8492C38.8486 20.118 38.849 19.3869 38.85 18.6558C38.8524 17.2745 38.8588 15.8932 38.8667 14.5119C38.8755 12.938 38.8797 11.3641 38.8837 9.79013C38.8918 6.55537 38.9062 3.32067 38.9231 0.0859375Z" fill="url(#paint1_linear_97_1404)"/>
  <path d="M84.3193 0.00514149C84.5634 0.00429114 84.8075 0.0031753 85.0516 0.00181699C85.7091 -0.00101573 86.3666 6.04948e-05 87.0242 0.00205433C87.7156 0.00365055 88.407 0.00216632 89.0984 0.00118648C90.259 5.06781e-05 91.4195 0.00154007 92.5801 0.00453009C93.9178 0.00793671 95.2554 0.00683282 96.5931 0.00338662C97.7461 0.000536307 98.899 0.000149067 100.052 0.00178303C100.739 0.00275406 101.425 0.00290321 102.112 0.000821076C102.758 -0.00100094 103.404 0.00029136 104.049 0.00388525C104.285 0.00470595 104.521 0.00448769 104.756 0.00309473C106.612 -0.0068597 108.372 0.155207 109.762 1.50644C110.716 2.59506 110.985 3.51935 110.987 4.96733C110.988 5.25368 110.988 5.25368 110.989 5.5458C110.989 5.75526 110.989 5.96472 110.989 6.17418C110.989 6.39639 110.99 6.6186 110.99 6.84081C110.992 7.44262 110.992 8.04443 110.992 8.64624C110.992 9.02249 110.993 9.39873 110.993 9.77498C110.994 11.0883 110.995 12.4015 110.995 13.7148C110.995 14.938 110.997 16.1612 110.999 17.3844C111.001 18.4358 111.002 19.4871 111.002 20.5384C111.002 21.1658 111.002 21.7933 111.004 22.4207C111.005 23.0106 111.005 23.6006 111.004 24.1905C111.004 24.4067 111.004 24.6228 111.005 24.839C111.007 25.1347 111.006 25.4304 111.005 25.7261C111.005 25.8914 111.005 26.0567 111.005 26.227C110.908 27.3914 110.356 28.5115 109.556 29.3552C107.219 30.816 104.638 30.6928 101.975 30.6685C101.596 30.6673 101.217 30.6664 100.838 30.6658C99.848 30.6634 98.8584 30.6573 97.8687 30.6503C96.8555 30.6439 95.8423 30.641 94.829 30.6379C92.8471 30.6312 90.8651 30.6207 88.8832 30.6073C89.0416 29.8639 89.199 29.1293 89.4451 28.409C89.4916 28.2718 89.5381 28.1345 89.586 27.9931C89.6353 27.8502 89.6846 27.7073 89.7354 27.5601C89.7867 27.4096 89.838 27.2591 89.8909 27.104C89.9986 26.7888 90.1067 26.4736 90.2151 26.1586C90.3817 25.6743 90.547 25.1896 90.7121 24.7048C90.8171 24.3979 90.9222 24.091 91.0274 23.7841C91.077 23.6387 91.1266 23.4932 91.1777 23.3434C91.2237 23.2101 91.2698 23.0768 91.3172 22.9394C91.3576 22.8217 91.398 22.7039 91.4397 22.5826C91.5456 22.3118 91.5456 22.3118 91.7022 22.1553C92.0434 22.1405 92.385 22.1369 92.7264 22.1375C92.8351 22.1375 92.9438 22.1375 93.0558 22.1375C93.4091 22.1376 93.7624 22.1388 94.1157 22.14C94.3332 22.1402 94.5508 22.1404 94.7683 22.1405C95.5767 22.1413 96.3851 22.1435 97.1936 22.1455C98.9993 22.1487 100.805 22.152 102.665 22.1553C102.665 17.61 102.665 13.0647 102.665 8.38165C97.1869 8.38165 91.7085 8.38165 86.0641 8.38165C86.0641 19.3317 86.0641 30.2818 86.0641 41.5636C83.3766 41.5636 80.689 41.5636 77.9201 41.5636C77.9132 36.7994 77.9074 32.0353 77.9041 27.2711C77.9037 26.7084 77.9033 26.1458 77.9029 25.5831C77.9028 25.4711 77.9027 25.3591 77.9026 25.2437C77.9013 23.4308 77.8988 21.6179 77.8959 19.805C77.893 17.9443 77.8912 16.0837 77.8906 14.223C77.8902 13.1781 77.8892 12.1332 77.887 11.0883C77.8848 10.1048 77.8842 9.12122 77.8846 8.13767C77.8846 7.77676 77.8839 7.41586 77.8827 7.05495C77.8812 6.56189 77.8815 6.06886 77.8824 5.57579C77.8815 5.43328 77.8806 5.29076 77.8796 5.14393C77.8856 3.87748 78.0531 2.83188 78.8598 1.80786C78.9318 1.71565 79.0039 1.62345 79.0782 1.52845C80.4244 -0.0133404 82.4147 -0.0061193 84.3193 0.00514149Z" fill="url(#paint2_linear_97_1404)"/>
  <path d="M122.473 0.049579C122.648 0.0495332 122.824 0.0494875 123.005 0.0494404C123.583 0.0496575 124.161 0.0520885 124.739 0.0545466C125.141 0.0551308 125.543 0.0555762 125.945 0.0558888C126.893 0.0569596 127.841 0.0594237 128.789 0.062572C129.869 0.0660802 130.949 0.0677944 132.028 0.0693635C134.248 0.0726288 136.468 0.0781292 138.688 0.0851167C138.409 0.964702 138.131 1.84423 137.852 2.7237C137.758 3.02209 137.663 3.32051 137.569 3.61894C137.432 4.05107 137.295 4.48313 137.158 4.91519C137.117 5.04586 137.076 5.17654 137.033 5.31118C136.707 6.3381 136.366 7.35824 136.025 8.38061C132.356 8.38061 128.686 8.38061 124.906 8.38061C124.906 15.7151 124.906 23.0496 124.906 30.6063C122.166 30.6063 119.427 30.6063 116.605 30.6063C116.591 27.1871 116.579 23.768 116.573 20.3489C116.569 18.7612 116.565 17.1735 116.558 15.5859C116.551 14.2016 116.547 12.8173 116.546 11.433C116.545 10.7004 116.543 9.96792 116.539 9.23538C116.534 8.54485 116.533 7.85438 116.534 7.16384C116.534 6.91141 116.533 6.65897 116.53 6.40655C116.514 4.56221 116.696 2.93212 117.906 1.44976C119.186 0.152724 120.74 0.0376818 122.473 0.049579Z" fill="url(#paint3_linear_97_1404)"/>
  <path d="M97.1836 8.38086C97.6487 8.38086 98.1139 8.38086 98.5931 8.38086C98.3191 8.6939 98.3191 8.6939 97.9667 9.00693C97.7599 9.00693 97.5532 9.00693 97.3402 9.00693C97.2885 8.80033 97.2368 8.59372 97.1836 8.38086Z" fill="url(#paint4_linear_97_1404)"/>
  <defs>
    <linearGradient id="paint0_linear_97_1404" x1="16.6814" y1="0.00390625" x2="16.6814" y2="41.5829" gradientUnits="userSpaceOnUse">
      <stop stop-color="#B2D5B2"/>
      <stop offset="1" stop-color="#4EAF90"/>
    </linearGradient>
    <linearGradient id="paint1_linear_97_1404" x1="55.5662" y1="0.0859375" x2="55.5662" y2="41.5829" gradientUnits="userSpaceOnUse">
      <stop stop-color="#B2D5B2"/>
      <stop offset="1" stop-color="#4EAF90"/>
    </linearGradient>
    <linearGradient id="paint2_linear_97_1404" x1="94.4428" y1="0" x2="94.4428" y2="41.5636" gradientUnits="userSpaceOnUse">
      <stop stop-color="#B2D5B2"/>
      <stop offset="1" stop-color="#4EAF90"/>
    </linearGradient>
    <linearGradient id="paint3_linear_97_1404" x1="127.609" y1="0.0488281" x2="127.609" y2="30.6063" gradientUnits="userSpaceOnUse">
      <stop stop-color="#B2D5B2"/>
      <stop offset="1" stop-color="#4EAF90"/>
    </linearGradient>
    <linearGradient id="paint4_linear_97_1404" x1="97.8884" y1="8.38086" x2="97.8884" y2="9.00693" gradientUnits="userSpaceOnUse">
      <stop stop-color="#B2D5B2"/>
      <stop offset="1" stop-color="#4EAF90"/>
    </linearGradient>
  </defs>
</svg>