<svg xmlns="http://www.w3.org/2000/svg" width="24" height="24" viewBox="0 0 24 24" fill="none">
  <path fill-rule="evenodd" clip-rule="evenodd" d="M11.943 1.25H12.057C14.366 1.25 16.175 1.25 17.587 1.44C19.031 1.634 20.171 2.04 21.066 2.934C21.961 3.829 22.366 4.969 22.56 6.414C22.75 7.825 22.75 9.634 22.75 11.943V12.057C22.75 14.366 22.75 16.175 22.56 17.587C22.366 19.031 21.96 20.171 21.066 21.066C20.171 21.961 19.031 22.366 17.586 22.56C16.175 22.75 14.366 22.75 12.057 22.75H11.943C9.634 22.75 7.825 22.75 6.413 22.56C4.969 22.366 3.829 21.96 2.934 21.066C2.039 20.171 1.634 19.031 1.44 17.586C1.25 16.175 1.25 14.366 1.25 12.057V11.943C1.25 9.634 1.25 7.825 1.44 6.413C1.634 4.969 2.04 3.829 2.934 2.934C3.829 2.039 4.969 1.634 6.414 1.44C7.825 1.25 9.634 1.25 11.943 1.25ZM6.613 2.926C5.335 3.098 4.564 3.426 3.995 3.995C3.425 4.565 3.098 5.335 2.926 6.614C2.752 7.914 2.75 9.622 2.75 12C2.75 14.378 2.752 16.086 2.926 17.386C3.098 18.665 3.426 19.436 3.995 20.006C4.565 20.575 5.335 20.902 6.614 21.074C7.914 21.248 9.622 21.25 12 21.25C14.378 21.25 16.086 21.248 17.386 21.074C18.665 20.902 19.436 20.574 20.006 20.005C20.575 19.435 20.902 18.665 21.074 17.386C21.248 16.086 21.25 14.378 21.25 12C21.25 9.622 21.248 7.914 21.074 6.614C20.902 5.335 20.574 4.564 20.005 3.994C19.435 3.425 18.665 3.098 17.386 2.926C16.086 2.752 14.378 2.75 12 2.75C9.622 2.75 7.913 2.752 6.613 2.926ZM10.004 5.25C10.1027 5.25065 10.2002 5.27077 10.2911 5.30919C10.382 5.34761 10.4644 5.40359 10.5336 5.47391C10.6028 5.54423 10.6574 5.62751 10.6944 5.71899C10.7314 5.81047 10.7499 5.90834 10.749 6.007C10.741 6.857 10.715 7.583 10.597 8.186C10.475 8.809 10.245 9.352 9.799 9.798C9.353 10.244 8.809 10.474 8.187 10.596C7.584 10.714 6.858 10.74 6.007 10.748C5.90851 10.7488 5.81083 10.7302 5.71953 10.6932C5.62823 10.6562 5.54511 10.6017 5.47491 10.5326C5.40471 10.4635 5.34881 10.3812 5.31039 10.2906C5.27197 10.1999 5.25179 10.1025 5.251 10.004C5.25021 9.90551 5.26883 9.80783 5.30579 9.71653C5.34276 9.62523 5.39734 9.54211 5.46643 9.47191C5.53551 9.40171 5.61775 9.34581 5.70844 9.30739C5.79914 9.26897 5.89651 9.24879 5.995 9.248C6.851 9.24 7.448 9.212 7.898 9.124C8.327 9.04 8.564 8.912 8.738 8.738C8.913 8.563 9.041 8.326 9.125 7.898C9.213 7.448 9.241 6.85 9.249 5.994C9.24978 5.89551 9.26996 5.79813 9.30838 5.70744C9.3468 5.61675 9.4027 5.53451 9.47291 5.46542C9.54311 5.39633 9.62623 5.34175 9.71753 5.30479C9.80882 5.26783 9.90651 5.24921 10.005 5.25M13.995 5.25C14.0936 5.24908 14.1914 5.2676 14.2828 5.3045C14.3742 5.3414 14.4574 5.39596 14.5277 5.46506C14.598 5.53416 14.654 5.61645 14.6925 5.70721C14.731 5.79797 14.7512 5.89542 14.752 5.994C14.759 6.85 14.788 7.447 14.876 7.897C14.96 8.326 15.088 8.563 15.262 8.737C15.436 8.912 15.674 9.04 16.102 9.124C16.552 9.212 17.15 9.24 18.006 9.248C18.1045 9.24885 18.2019 9.2691 18.2925 9.30758C18.3832 9.34606 18.4654 9.40202 18.5344 9.47227C18.6035 9.54251 18.658 9.62567 18.6949 9.71699C18.7318 9.80831 18.7504 9.90601 18.7495 10.0045C18.7486 10.103 18.7284 10.2003 18.6899 10.291C18.6514 10.3817 18.5955 10.4639 18.5252 10.5329C18.455 10.602 18.3718 10.6565 18.2805 10.6934C18.1892 10.7303 18.0915 10.7489 17.993 10.748C17.143 10.74 16.416 10.714 15.814 10.596C15.191 10.474 14.647 10.244 14.201 9.798C13.755 9.352 13.526 8.808 13.404 8.186C13.286 7.583 13.259 6.857 13.252 6.006C13.2512 5.90751 13.2698 5.80982 13.3068 5.71853C13.3437 5.62723 13.3983 5.54411 13.4674 5.47391C13.5365 5.4037 13.6187 5.3478 13.7094 5.30938C13.8001 5.27096 13.8975 5.25078 13.996 5.25M5.25 13.994C5.25078 13.8954 5.27099 13.798 5.30947 13.7072C5.34796 13.6164 5.40395 13.5342 5.47426 13.4651C5.54457 13.396 5.62781 13.3414 5.71922 13.3045C5.81063 13.2676 5.90842 13.2491 6.007 13.25C6.857 13.257 7.583 13.284 8.186 13.402C8.809 13.524 9.352 13.753 9.798 14.199C10.244 14.645 10.474 15.189 10.596 15.812C10.714 16.414 10.74 17.14 10.748 17.991C10.7497 18.1899 10.6724 18.3814 10.5329 18.5232C10.3935 18.6651 10.2034 18.7458 10.0045 18.7475C9.80559 18.7492 9.61414 18.6719 9.47227 18.5324C9.33039 18.393 9.24972 18.2029 9.248 18.004C9.24 17.148 9.212 16.55 9.124 16.1C9.04 15.672 8.912 15.434 8.738 15.26C8.563 15.086 8.326 14.958 7.898 14.874C7.448 14.786 6.85 14.757 5.994 14.75C5.89551 14.7492 5.79813 14.729 5.70744 14.6906C5.61675 14.6522 5.53451 14.5963 5.46542 14.5261C5.39633 14.4559 5.34175 14.3728 5.30479 14.2815C5.26783 14.1902 5.24921 14.0925 5.25 13.994ZM18.747 13.994C18.7486 14.1927 18.6712 14.384 18.5319 14.5257C18.3926 14.6675 18.2027 14.7482 18.004 14.75C17.148 14.757 16.55 14.786 16.1 14.874C15.672 14.958 15.434 15.086 15.26 15.26C15.086 15.434 14.958 15.672 14.874 16.1C14.786 16.55 14.757 17.148 14.75 18.004C14.7491 18.1025 14.7289 18.1999 14.6904 18.2905C14.6519 18.3812 14.596 18.4634 14.5257 18.5324C14.4555 18.6015 14.3723 18.656 14.281 18.6929C14.1897 18.7298 14.092 18.7484 13.9935 18.7475C13.895 18.7466 13.7977 18.7264 13.707 18.6879C13.6163 18.6494 13.5341 18.5935 13.4651 18.5232C13.396 18.453 13.3415 18.3698 13.3046 18.2785C13.2677 18.1872 13.2491 18.0895 13.25 17.991C13.257 17.141 13.284 16.414 13.402 15.812C13.524 15.189 13.753 14.645 14.199 14.199C14.645 13.753 15.189 13.524 15.812 13.402C16.414 13.284 17.14 13.257 17.991 13.25C18.0895 13.2492 18.1872 13.2678 18.2785 13.3048C18.3698 13.3417 18.4529 13.3963 18.5231 13.4654C18.5933 13.5345 18.6492 13.6167 18.6876 13.7074C18.726 13.7981 18.7462 13.8955 18.747 13.994Z" fill="white"/>
</svg>