<svg width="28" height="24" viewBox="0 0 28 24" fill="none" xmlns="http://www.w3.org/2000/svg">
<path d="M7.78134 14H4.66634C3.38301 14 2.33301 14.9 2.33301 16V21C2.33301 21.55 2.85801 22 3.49967 22H7.78134C8.42301 22 8.94801 21.55 8.94801 21V15C8.94801 14.45 8.42301 14 7.78134 14Z" fill="#858585"/>
<path d="M15.5518 10H12.4368C11.1535 10 10.1035 10.9 10.1035 12V21C10.1035 21.55 10.6285 22 11.2702 22H16.7185C17.3602 22 17.8852 21.55 17.8852 21V12C17.8852 10.9 16.8468 10 15.5518 10Z" fill="#858585"/>
<path d="M23.3334 17H20.2184C19.5768 17 19.0518 17.45 19.0518 18V21C19.0518 21.55 19.5768 22 20.2184 22H24.5001C25.1418 22 25.6668 21.55 25.6668 21V19C25.6668 17.9 24.6168 17 23.3334 17Z" fill="#858585"/>
<path d="M17.512 4.84998C17.8737 4.53998 18.0137 4.16998 17.897 3.84998C17.7803 3.52998 17.4187 3.29998 16.9053 3.22998L15.7853 3.06998C15.7387 3.06998 15.6337 2.99998 15.6103 2.95998L14.992 1.89998C14.5253 1.08998 13.4637 1.08998 12.997 1.89998L12.3787 2.95998C12.367 2.99998 12.262 3.06998 12.2153 3.06998L11.0953 3.22998C10.582 3.29998 10.232 3.52998 10.1037 3.84998C9.987 4.16998 10.127 4.53998 10.4887 4.84998L11.352 5.59998C11.3987 5.62998 11.4337 5.74998 11.422 5.78998L11.177 6.70998C10.9903 7.39998 11.2937 7.70998 11.492 7.82998C11.6903 7.94998 12.122 8.10998 12.8337 7.74998L13.8837 7.21998C13.9303 7.18998 14.082 7.18998 14.1287 7.21998L15.167 7.74998C15.4937 7.91998 15.762 7.96998 15.972 7.96998C16.217 7.96998 16.392 7.88998 16.497 7.82998C16.6953 7.70998 16.9987 7.39998 16.812 6.70998L16.567 5.78998C16.5553 5.73998 16.5903 5.62998 16.637 5.59998L17.512 4.84998Z" fill="#858585"/>
</svg>
