<svg xmlns="http://www.w3.org/2000/svg" width="14" height="14" viewBox="0 0 14 14" fill="none">
  <path d="M11.3109 6.38514C11.1726 5.38985 10.7109 4.46765 9.99687 3.76059C9.28287 3.05353 8.3562 2.60084 7.35961 2.47224C6.36303 2.34365 5.3518 2.54629 4.48171 3.04895C3.61162 3.55162 2.93093 4.32641 2.54451 5.25399M2.26172 2.99169V5.25399H4.52401M2.26172 7.51628C2.40004 8.51157 2.86175 9.43377 3.57575 10.1408C4.28975 10.8479 5.21641 11.3006 6.213 11.4292C7.20959 11.5578 8.22082 11.3551 9.09091 10.8525C9.961 10.3498 10.6417 9.57501 11.0281 8.64743M11.3109 10.9097V8.64743H9.0486" stroke="white" stroke-width="1.13115" stroke-linecap="round" stroke-linejoin="round"/>
</svg>