<svg xmlns="http://www.w3.org/2000/svg" width="24" height="24" viewBox="0 0 24 24" fill="none">
  <g clip-path="url(#clip0_97_1388)">
    <path d="M4.59356 4.98439C4.77461 4.96335 4.95797 4.99219 5.12382 5.0678C5.28967 5.14342 5.4317 5.26292 5.53456 5.41339C7.01056 7.57239 8.78256 8.47039 10.7496 8.67439C10.8456 7.83339 11.0726 7.00239 11.4996 6.27039C12.1256 5.19639 13.1436 4.40639 14.5976 4.11439C16.6076 3.71039 18.1376 4.43839 19.0246 5.32939L20.8166 4.99439C21.0041 4.95926 21.1977 4.9785 21.3747 5.04984C21.5516 5.12119 21.7045 5.24166 21.8152 5.39704C21.9259 5.55242 21.9898 5.73623 21.9994 5.92677C22.0091 6.11731 21.964 6.30663 21.8696 6.47239L20.1496 9.49439C20.3066 13.8554 19.0946 16.8994 16.5106 18.9964C15.1406 20.1084 13.1786 20.7394 11.0256 20.9344C8.85556 21.1304 6.40256 20.8934 3.96456 20.1814C3.75625 20.1206 3.57336 19.9938 3.44348 19.8199C3.31361 19.6461 3.2438 19.4347 3.24459 19.2178C3.24538 19.0008 3.31672 18.7899 3.44786 18.617C3.579 18.4442 3.76281 18.3186 3.97156 18.2594C5.19756 17.9104 6.13156 17.6094 6.97456 17.0824C5.77556 16.4464 4.89256 15.6144 4.26756 14.6664C3.39956 13.3484 3.07756 11.8784 3.01356 10.5534C2.94956 9.22839 3.14056 8.00039 3.34256 7.11539C3.45756 6.61039 3.59156 6.10439 3.77656 5.62039C3.84181 5.44978 3.95255 5.30031 4.09676 5.18818C4.24096 5.07606 4.41212 5.00558 4.59356 4.98439Z" fill="url(#paint0_linear_97_1388)"/>
  </g>
  <defs>
    <linearGradient id="paint0_linear_97_1388" x1="12.5008" y1="4" x2="12.5008" y2="21.0005" gradientUnits="userSpaceOnUse">
      <stop stop-color="#4EAF90"/>
      <stop offset="1" stop-color="#B2D5B2"/>
    </linearGradient>
    <clipPath id="clip0_97_1388">
      <rect width="24" height="24" fill="white"/>
    </clipPath>
  </defs>
</svg>